<svg width="90" height="84" viewBox="0 0 90 84" fill="none" xmlns="http://www.w3.org/2000/svg">
<path d="M63.4987 46.0037C63.3833 45.4893 63.2183 44.9836 63.0039 44.504C63.1853 44.9138 63.3338 45.341 63.4492 45.7944L63.4987 46.0037Z" fill="#011138"/>
<path d="M50.4374 44.0695L41.0938 58.9525L44.9285 74.6116C45.4728 76.8524 45.0028 79.1105 43.8152 80.8543C43.9142 80.7235 44.0214 80.5927 44.1121 80.4445L53.6537 65.2563L49.7777 49.5275C49.3076 47.6093 49.5963 45.6737 50.4292 44.0695H50.4374Z" fill="#B4B4B4"/>
<path d="M42.7465 77.0607C42.7465 77.0607 42.6888 77.1391 42.6641 77.174C42.697 77.1391 42.7218 77.0955 42.7465 77.0607Z" fill="#011138"/>
<path d="M63.8398 83.7387C64.3676 83.7212 64.8954 83.6515 65.4232 83.512C67.6004 82.9191 69.2745 81.3061 70.1157 79.2833L69.5219 80.2773C68.2354 82.4308 66.0747 83.6515 63.8398 83.7474V83.7387Z" fill="#0A1D56"/>
<path d="M60.6883 41.6011C61.7274 42.3683 62.5027 43.3797 63.0057 44.5044C61.5955 41.3046 58.1978 39.5172 54.8496 40.4327C52.8868 40.9646 51.3447 42.3247 50.4375 44.0685L50.8581 43.432C53.093 40.0578 57.4968 39.2382 60.6883 41.6011Z" fill="#0A1D56"/>
<path d="M65.6035 54.7944L63.4923 46.0058L63.4429 45.7966C63.3356 45.3432 63.179 44.916 62.9975 44.5062C62.4945 43.3815 61.711 42.3701 60.6802 41.6028C57.4886 39.24 53.0848 40.0596 50.8499 43.4338L50.4293 44.0702C49.5881 45.6832 49.3077 47.6101 49.7778 49.5282L53.6538 65.2571L55.7815 74.1154C55.6413 72.5286 55.9712 70.8894 56.8371 69.4421L65.6118 54.7944H65.6035Z" fill="white"/>
<path d="M42.8164 76.963C42.8164 76.963 42.7669 77.0328 42.7422 77.0589C42.7669 77.024 42.7917 76.9979 42.8164 76.963Z" fill="#0A1D56"/>
<path d="M12.5435 11.8341H6.82015C3.05134 11.8341 0 15.0601 0 19.0446C0 23.0291 3.05134 26.2551 6.82015 26.2551H16.0731L12.5435 11.8341Z" fill="white"/>
<path d="M46.2399 12.3838C45.4317 12.0263 44.5493 11.8258 43.6174 11.8258H29.8452L28.3195 5.59182C27.3381 1.6073 23.4869 -0.790386 19.718 0.238439C15.941 1.26726 13.6731 5.33897 14.6545 9.3322L15.2647 11.8258L18.6707 25.7498L18.7944 26.2468L31.2636 78.3419C32.2368 82.3352 36.0881 84.7329 39.8651 83.6953C41.432 83.2681 42.735 82.309 43.6587 81.0535C43.6834 81.0186 43.7164 80.9838 43.7411 80.9402C43.7659 80.9053 43.7906 80.8791 43.8154 80.8443C45.0029 79.1092 45.473 76.8423 44.9287 74.6016L40.3517 54.74L33.3831 26.2468H43.6257C47.3945 26.2468 50.4458 23.0208 50.4458 19.0363C50.4458 16.037 48.714 13.4649 46.2482 12.3838H46.2399Z" fill="white"/>
<path d="M56.8277 78.1479L56.5391 76.9708C56.737 79.1941 57.8668 81.3041 59.7883 82.5858C60.8769 83.3094 62.0809 83.6756 63.2767 83.7279C60.2831 83.5536 57.6112 81.3738 56.8277 78.1479Z" fill="#00D392"/>
<path d="M88.7929 44.0065C88.7104 43.9542 88.6279 43.9193 88.5454 43.8757C87.7785 43.5269 86.8961 43.7187 86.327 44.3465C86.3023 44.3901 86.2693 44.425 86.2446 44.4599L85.7003 45.4015C85.7003 45.4015 85.7003 45.3928 85.7003 45.384L84.4797 47.5115L81.3294 52.9433C81.3047 53.0043 81.2882 53.0654 81.2635 53.1264L79.9192 55.4718C79.0781 56.9452 77.2555 57.4161 75.8618 56.5267C74.4681 55.6287 74.0227 53.7106 74.8639 52.2371L76.035 50.1969L77.2555 48.1392C77.338 48.0084 77.3957 47.8689 77.4534 47.7207C77.7998 46.7355 77.4534 45.5846 76.5875 45.0091C75.7133 44.4337 74.6 44.5994 73.9155 45.3405C73.8083 45.4538 73.7176 45.5759 73.6269 45.7154L68.4643 54.3906C68.4314 54.4429 68.4149 54.504 68.3819 54.5563L66.3614 57.9218L57.5867 72.5694C56.7208 74.0168 56.3909 75.6646 56.5311 77.2427L56.8198 78.4198C57.6115 81.6458 60.2835 83.8342 63.2688 83.9999C63.3348 83.9999 63.4008 83.9999 63.4668 83.9999C63.5905 83.9999 63.7059 83.9999 63.8296 83.9999C66.0728 83.9039 68.2252 82.6833 69.5117 80.5298L70.1055 79.5358L85.7415 53.4141C85.9394 53.0828 86.1044 52.7515 86.2446 52.4027L88.3393 48.7757L89.1969 47.2324L89.6175 46.4826C89.9309 45.5671 89.601 44.5122 88.7846 43.9803L88.7929 44.0065Z" fill="#00D392"/>
<path d="M77.6776 52.6649C78.4775 53.1706 79.5249 52.9003 80.0032 52.0458L81.801 48.8635C82.2793 48.0177 82.0237 46.9104 81.2155 46.4048C80.4155 45.8991 79.3682 46.1693 78.8899 47.0238L77.092 50.2062C76.6137 51.0519 76.8694 52.1592 77.6776 52.6649Z" fill="#00D392"/>
<path d="M86.2197 34.0903L81.7164 42.0421C81.2345 42.8932 81.4947 43.9952 82.2978 44.5035C83.1008 45.0118 84.1425 44.734 84.6245 43.8829L89.1277 35.9311C89.6097 35.08 89.3494 33.978 88.5464 33.4697C87.7433 32.9614 86.7016 33.2392 86.2197 34.0903Z" fill="#00D392"/>
</svg>
