<svg width="266" height="200" viewBox="0 0 266 200" fill="none" xmlns="http://www.w3.org/2000/svg">
<g clip-path="url(#clip0_1232_8122)">
<path d="M259.317 0H6.68342C2.99227 0 0 2.88849 0 6.45161V38.7097C0 42.2728 2.99227 45.1613 6.68342 45.1613H259.317C263.008 45.1613 266 42.2728 266 38.7097V6.45161C266 2.88849 263.008 0 259.317 0Z" fill="#F3F3F0"/>
<path d="M47.0232 27.7419H45.789L49.3586 18.3578H50.5737L54.1433 27.7419H52.9091L50.0041 19.8424H49.9281L47.0232 27.7419ZM47.4788 24.0763H52.4534V25.0843H47.4788V24.0763ZM55.6575 27.7419V18.3578H59.0561C59.7334 18.3578 60.2919 18.4708 60.7317 18.6968C61.1716 18.9199 61.4991 19.2207 61.7143 19.5996C61.9295 19.9752 62.0371 20.3923 62.0371 20.8505C62.0371 21.2537 61.9627 21.5867 61.814 21.8494C61.6684 22.1121 61.4754 22.3198 61.2349 22.4725C60.9975 22.6252 60.7397 22.7383 60.4612 22.8116V22.9032C60.7587 22.9216 61.0577 23.0224 61.3583 23.2057C61.6589 23.3889 61.9105 23.6516 62.113 23.9938C62.3156 24.3359 62.4168 24.7544 62.4168 25.2493C62.4168 25.7197 62.3061 26.1428 62.0846 26.5185C61.863 26.8943 61.5133 27.1921 61.0355 27.412C60.5577 27.6319 59.9359 27.7419 59.1701 27.7419H55.6575ZM56.8347 26.7339H59.1701C59.939 26.7339 60.4849 26.5903 60.8077 26.3032C61.1336 26.013 61.2966 25.6617 61.2966 25.2493C61.2966 24.9316 61.2127 24.6383 61.045 24.3695C60.8773 24.0976 60.6384 23.8808 60.3282 23.7188C60.0181 23.5539 59.6511 23.4714 59.227 23.4714H56.8347V26.7339ZM56.8347 22.4817H59.0182C59.3726 22.4817 59.6922 22.4145 59.977 22.2801C60.2649 22.1457 60.4928 21.9563 60.6605 21.7119C60.8314 21.4675 60.9169 21.1803 60.9169 20.8505C60.9169 20.4381 60.7681 20.0883 60.4707 19.8012C60.1732 19.511 59.7017 19.3658 59.0561 19.3658H56.8347V22.4817ZM72.1735 21.2903H70.9966C70.9271 20.9635 70.8054 20.6763 70.631 20.4289C70.4599 20.1814 70.2514 19.9738 70.0048 19.8058C69.7608 19.6347 69.4901 19.5063 69.1927 19.4208C68.8953 19.3353 68.5852 19.2925 68.2624 19.2925C67.6736 19.2925 67.1409 19.4361 66.6628 19.7232C66.1881 20.0104 65.81 20.4335 65.5283 20.9925C65.2498 21.5515 65.1106 22.2373 65.1106 23.0499C65.1106 23.8624 65.2498 24.5482 65.5283 25.1072C65.81 25.6663 66.1881 26.0893 66.6628 26.3765C67.1409 26.6636 67.6736 26.8072 68.2624 26.8072C68.5852 26.8072 68.8953 26.7644 69.1927 26.6789C69.4901 26.5934 69.7608 26.4666 70.0048 26.2986C70.2514 26.1275 70.4599 25.9183 70.631 25.6708C70.8054 25.4203 70.9271 25.1332 70.9966 24.8094H72.1735C72.0853 25.289 71.9236 25.7182 71.6897 26.097C71.4557 26.4757 71.1643 26.798 70.8161 27.0638C70.4679 27.3265 70.0776 27.5266 69.6439 27.6641C69.2134 27.8015 68.753 27.8703 68.2624 27.8703C67.4337 27.8703 66.696 27.6747 66.0505 27.2837C65.4049 26.8927 64.897 26.3368 64.5268 25.6158C64.1565 24.8949 63.9714 24.0396 63.9714 23.0499C63.9714 22.0601 64.1565 21.2048 64.5268 20.4839C64.897 19.763 65.4049 19.207 66.0505 18.816C66.696 18.425 67.4337 18.2295 68.2624 18.2295C68.753 18.2295 69.2134 18.2982 69.6439 18.4357C70.0776 18.5732 70.4679 18.7748 70.8161 19.0405C71.1643 19.3032 71.4557 19.6239 71.6897 20.0028C71.9236 20.3785 72.0853 20.8077 72.1735 21.2903ZM83.1517 20.7038C83.0949 20.2395 82.8637 19.879 82.4586 19.6225C82.0536 19.3658 81.5571 19.2376 80.9682 19.2376C80.5378 19.2376 80.1616 19.3047 79.8387 19.4392C79.5193 19.5736 79.2686 19.7584 79.0889 19.9936C78.9111 20.2288 78.8229 20.4961 78.8229 20.7955C78.8229 21.0459 78.8843 21.2613 79.008 21.4416C79.1343 21.6187 79.2961 21.7668 79.4919 21.886C79.6884 22.0021 79.8942 22.0983 80.1094 22.1747C80.3246 22.248 80.5218 22.3076 80.7022 22.3534L81.69 22.61C81.9427 22.6741 82.2247 22.7627 82.5348 22.8758C82.8483 22.9888 83.147 23.143 83.4317 23.3385C83.7198 23.531 83.9571 23.7784 84.1442 24.0808C84.3307 24.3832 84.4242 24.7544 84.4242 25.1943C84.4242 25.7014 84.2866 26.1596 84.0112 26.5689C83.7385 26.9783 83.3402 27.3036 82.8149 27.5449C82.2929 27.7863 81.658 27.9069 80.9114 27.9069C80.215 27.9069 79.6122 27.7985 79.1029 27.5816C78.5963 27.3647 78.198 27.0623 77.9066 26.6743C77.6185 26.2863 77.4554 25.8358 77.418 25.3226H78.6331C78.6645 25.6769 78.7881 25.9702 79.0033 26.2023C79.2212 26.4314 79.4966 26.6025 79.8294 26.7156C80.1642 26.8255 80.5251 26.8805 80.9114 26.8805C81.3606 26.8805 81.7642 26.8103 82.1218 26.6698C82.4794 26.5261 82.7627 26.3276 82.9713 26.0741C83.1805 25.8174 83.2847 25.5181 83.2847 25.1759C83.2847 24.8644 83.1945 24.6108 83.014 24.4154C82.8336 24.2198 82.5963 24.061 82.3022 23.9388C82.0075 23.8166 81.6901 23.7097 81.3479 23.6181L80.1515 23.2881C79.3923 23.0774 78.7915 22.7765 78.3483 22.3854C77.9052 21.9945 77.6833 21.4828 77.6833 20.8505C77.6833 20.325 77.8304 19.8668 78.1251 19.4758C78.4225 19.0818 78.8209 18.7763 79.3214 18.5594C79.824 18.3394 80.3861 18.2295 81.0063 18.2295C81.6326 18.2295 82.19 18.3379 82.6772 18.5548C83.1644 18.7687 83.5507 19.0619 83.8354 19.4346C84.1235 19.8072 84.2752 20.2303 84.2912 20.7038H83.1517ZM89.3787 20.7038V21.6203H85.5998V20.7038H89.3787ZM86.7013 19.0176H87.8214V25.7258C87.8214 26.0313 87.8675 26.2604 87.9591 26.4131C88.054 26.5628 88.1743 26.6636 88.32 26.7156C88.4684 26.7644 88.6254 26.7888 88.7898 26.7888C88.9135 26.7888 89.0144 26.7828 89.0933 26.7705C89.1728 26.7552 89.2356 26.743 89.2831 26.7339L89.511 27.7053C89.4355 27.7328 89.3292 27.7603 89.1935 27.7878C89.0572 27.8183 88.8847 27.8336 88.6756 27.8336C88.3594 27.8336 88.0493 27.7679 87.7452 27.6365C87.4451 27.5052 87.1945 27.3051 86.9953 27.0363C86.7995 26.7675 86.7013 26.4284 86.7013 26.019V19.0176ZM93.9468 27.8886C93.2891 27.8886 92.7117 27.7374 92.2144 27.4349C91.7212 27.1325 91.3349 26.7094 91.0562 26.1657C90.7808 25.6219 90.6432 24.9866 90.6432 24.2596C90.6432 23.5264 90.7808 22.8865 91.0562 22.3396C91.3349 21.7928 91.7212 21.3682 92.2144 21.0658C92.7117 20.7634 93.2891 20.6122 93.9468 20.6122C94.6051 20.6122 95.1812 20.7634 95.6751 21.0658C96.1717 21.3682 96.558 21.7928 96.8333 22.3396C97.1114 22.8865 97.2511 23.5264 97.2511 24.2596C97.2511 24.9866 97.1114 25.6219 96.8333 26.1657C96.558 26.7094 96.1717 27.1325 95.6751 27.4349C95.1812 27.7374 94.6051 27.8886 93.9468 27.8886ZM93.9468 26.9172C94.4474 26.9172 94.8584 26.7934 95.1812 26.546C95.504 26.2986 95.7426 25.9732 95.8983 25.57C96.0534 25.1668 96.1309 24.7299 96.1309 24.2596C96.1309 23.7891 96.0534 23.3508 95.8983 22.9445C95.7426 22.5382 95.504 22.2098 95.1812 21.9593C94.8584 21.7088 94.4474 21.5836 93.9468 21.5836C93.4468 21.5836 93.0358 21.7088 92.713 21.9593C92.3902 22.2098 92.1509 22.5382 91.9959 22.9445C91.8408 23.3508 91.7633 23.7891 91.7633 24.2596C91.7633 24.7299 91.8408 25.1668 91.9959 25.57C92.1509 25.9732 92.3902 26.2986 92.713 26.546C93.0358 26.7934 93.4468 26.9172 93.9468 26.9172ZM98.9607 27.7419V20.7038H100.043V21.7668H100.119C100.252 21.4187 100.493 21.1361 100.841 20.9192C101.189 20.7023 101.581 20.5939 102.018 20.5939C102.1 20.5939 102.203 20.5954 102.326 20.5985C102.449 20.6015 102.543 20.6061 102.606 20.6122V21.7119C102.568 21.7027 102.481 21.689 102.345 21.6707C102.212 21.6492 102.072 21.6386 101.923 21.6386C101.569 21.6386 101.252 21.7103 100.974 21.8539C100.698 21.9945 100.48 22.1899 100.318 22.4405C100.16 22.6879 100.081 22.9705 100.081 23.2881V27.7419H98.9607ZM106.769 27.8886C106.066 27.8886 105.461 27.7389 104.951 27.4395C104.445 27.1371 104.054 26.7156 103.779 26.1748C103.507 25.6311 103.37 24.9988 103.37 24.2779C103.37 23.557 103.507 22.9216 103.779 22.3717C104.054 21.8188 104.437 21.3881 104.928 21.0796C105.421 20.7679 105.997 20.6122 106.655 20.6122C107.035 20.6122 107.41 20.6733 107.78 20.7955C108.15 20.9176 108.488 21.1162 108.791 21.3911C109.095 21.663 109.337 22.0235 109.518 22.4725C109.698 22.9216 109.788 23.4745 109.788 24.1312V24.5894H104.168V23.6547H108.649C108.649 23.2576 108.567 22.9032 108.402 22.5916C108.241 22.2801 108.01 22.0341 107.709 21.8539C107.412 21.6737 107.06 21.5836 106.655 21.5836C106.209 21.5836 105.823 21.6905 105.497 21.9043C105.174 22.1151 104.926 22.39 104.752 22.7291C104.578 23.0682 104.491 23.4317 104.491 23.8197V24.4428C104.491 24.9743 104.585 25.4249 104.776 25.7945C104.968 26.1611 105.236 26.4407 105.578 26.633C105.919 26.8225 106.316 26.9172 106.769 26.9172C107.064 26.9172 107.33 26.8774 107.567 26.798C107.808 26.7156 108.015 26.5934 108.188 26.4315C108.362 26.2665 108.497 26.0618 108.592 25.8174L109.674 26.1107C109.561 26.465 109.369 26.7767 109.1 27.0455C108.831 27.3112 108.499 27.519 108.103 27.6687C107.707 27.8152 107.263 27.8886 106.769 27.8886Z" fill="black"/>
<path d="M32.0804 7.74194H14.7035C11.0124 7.74194 8.02011 10.6304 8.02011 14.1936V30.9677C8.02011 34.5309 11.0124 37.4194 14.7035 37.4194H32.0804C35.7716 37.4194 38.7638 34.5309 38.7638 30.9677V14.1936C38.7638 10.6304 35.7716 7.74194 32.0804 7.74194Z" fill="#E0D6FF"/>
<path d="M15.4203 14.8387C15.2302 14.8387 15.0479 14.9116 14.9134 15.0414C14.779 15.1711 14.7035 15.3471 14.7035 15.5307C14.7035 15.7142 14.779 15.8902 14.9134 16.0199C15.0479 16.1496 15.2302 16.2226 15.4203 16.2226H16.6962C16.8003 16.2227 16.9018 16.2545 16.9863 16.3133C17.0709 16.3722 17.134 16.4551 17.1671 16.5506L19.5303 23.3956C19.6356 23.7001 19.6485 24.0267 19.5682 24.338L19.374 25.0901C19.088 26.193 19.9775 27.2932 21.1545 27.2932H29.7558C29.9459 27.2932 30.1282 27.2203 30.2626 27.0905C30.397 26.9607 30.4725 26.7847 30.4725 26.6013C30.4725 26.4178 30.397 26.2418 30.2626 26.112C30.1282 25.9822 29.9459 25.9093 29.7558 25.9093H21.1545C20.8749 25.9093 20.6957 25.6879 20.7638 25.4271L20.9107 24.8611C20.9355 24.7654 20.9927 24.6804 21.0732 24.6196C21.1537 24.5587 21.2529 24.5256 21.3552 24.5255H29.039C29.1896 24.5257 29.3365 24.4801 29.4587 24.3951C29.5809 24.3102 29.6723 24.1902 29.7199 24.0522L31.6301 18.5169C31.666 18.4129 31.6758 18.3022 31.6586 18.1938C31.6414 18.0854 31.5979 17.9826 31.5314 17.8936C31.465 17.8047 31.3776 17.7323 31.2765 17.6824C31.1754 17.6324 31.0635 17.6064 30.9499 17.6064H19.402C19.2976 17.6064 19.196 17.5747 19.1114 17.5158C19.0268 17.457 18.9634 17.3739 18.9303 17.2784L18.2508 15.312C18.2033 15.1742 18.112 15.0543 17.9899 14.9693C17.8678 14.8844 17.7211 14.8387 17.5706 14.8387H15.4203ZM20.4377 27.9851C20.0575 27.9851 19.6929 28.1309 19.424 28.3904C19.1552 28.6499 19.0042 29.0019 19.0042 29.3689C19.0042 29.7359 19.1552 30.0879 19.424 30.3475C19.6929 30.6069 20.0575 30.7527 20.4377 30.7527C20.8179 30.7527 21.1826 30.6069 21.4514 30.3475C21.7202 30.0879 21.8712 29.7359 21.8712 29.3689C21.8712 29.0019 21.7202 28.6499 21.4514 28.3904C21.1826 28.1309 20.8179 27.9851 20.4377 27.9851ZM29.039 27.9851C28.6588 27.9851 28.2942 28.1309 28.0253 28.3904C27.7564 28.6499 27.6055 29.0019 27.6055 29.3689C27.6055 29.7359 27.7564 30.0879 28.0253 30.3475C28.2942 30.6069 28.6588 30.7527 29.039 30.7527C29.4192 30.7527 29.7838 30.6069 30.0527 30.3475C30.3215 30.0879 30.4725 29.7359 30.4725 29.3689C30.4725 29.0019 30.3215 28.6499 30.0527 28.3904C29.7838 28.1309 29.4192 27.9851 29.039 27.9851Z" fill="#9F7FFF"/>
<path d="M259.317 51.6129H6.68342C2.99227 51.6129 0 54.5014 0 58.0645V90.3226C0 93.8857 2.99227 96.7742 6.68342 96.7742H259.317C263.008 96.7742 266 93.8857 266 90.3226V58.0645C266 54.5014 263.008 51.6129 259.317 51.6129Z" fill="#F3F3F0"/>
<path d="M46.6245 79.3548V69.9709H49.9092C50.6718 69.9709 51.2952 70.1038 51.7794 70.369C52.2667 70.6322 52.6275 70.9877 52.8617 71.4367C53.0958 71.8858 53.2129 72.387 53.2129 72.9399C53.2129 73.4929 53.0958 73.9954 52.8617 74.447C52.6306 74.8993 52.2731 75.2599 51.7889 75.529C51.3047 75.7948 50.6845 75.9277 49.9281 75.9277H47.5738V74.9193H49.8902C50.4123 74.9193 50.8316 74.8322 51.1481 74.658C51.4645 74.4838 51.694 74.249 51.8364 73.9522C51.9819 73.6529 52.0547 73.3154 52.0547 72.9399C52.0547 72.5638 51.9819 72.2283 51.8364 71.9316C51.694 71.6354 51.4629 71.4032 51.1433 71.2354C50.8237 71.0645 50.3996 70.9787 49.8712 70.9787H47.8016V79.3548H46.6245ZM54.9573 79.3548V72.3167H56.0775V79.3548H54.9573ZM55.527 71.1438C55.3086 71.1438 55.1203 71.0716 54.9621 70.9283C54.807 70.7845 54.7295 70.6122 54.7295 70.4103C54.7295 70.209 54.807 70.0361 54.9621 69.8929C55.1203 69.749 55.3086 69.6774 55.527 69.6774C55.7453 69.6774 55.932 69.749 56.087 69.8929C56.2453 70.0361 56.3244 70.209 56.3244 70.4103C56.3244 70.6122 56.2453 70.7845 56.087 70.9283C55.932 71.0716 55.7453 71.1438 55.527 71.1438ZM58.1294 72.3167H59.2496V79.8677C59.2496 80.3019 59.172 80.6774 59.017 80.9954C58.8651 81.3129 58.6341 81.5587 58.324 81.7329C58.017 81.907 57.6294 81.9941 57.161 81.9941C57.123 81.9941 57.0851 81.9941 57.0471 81.9941C57.0091 81.9941 56.9711 81.9941 56.9332 81.9941V80.9858C56.9711 80.9858 57.0059 80.9858 57.0376 80.9858C57.0692 80.9858 57.1041 80.9858 57.142 80.9858C57.4838 80.9858 57.7338 80.8883 57.892 80.6929C58.0502 80.5006 58.1294 80.2251 58.1294 79.8677V72.3167ZM58.68 71.1438C58.4617 71.1438 58.2733 71.0716 58.1151 70.9283C57.9601 70.7845 57.8825 70.6122 57.8825 70.4103C57.8825 70.209 57.9601 70.0361 58.1151 69.8929C58.2733 69.749 58.4617 69.6774 58.68 69.6774C58.8983 69.6774 59.085 69.749 59.2401 69.8929C59.3983 70.0361 59.4774 70.209 59.4774 70.4103C59.4774 70.6122 59.3983 70.7845 59.2401 70.9283C59.085 71.0716 58.8983 71.1438 58.68 71.1438ZM65.8962 76.4774V72.3167H67.0166V79.3548H65.8962V78.1632H65.8203C65.6494 78.5206 65.3835 78.8251 65.0228 79.0754C64.6621 79.3225 64.2064 79.4464 63.6557 79.4464C63.2001 79.4464 62.795 79.3503 62.4406 79.158C62.0861 78.9625 61.8077 78.669 61.6051 78.278C61.4026 77.8838 61.3014 77.3877 61.3014 76.789V72.3167H62.4216V76.7154C62.4216 77.229 62.5704 77.638 62.8678 77.9432C63.1684 78.249 63.5513 78.4019 64.0165 78.4019C64.295 78.4019 64.5782 78.3329 64.8662 78.1954C65.1573 78.058 65.401 77.847 65.5971 77.5632C65.7965 77.2793 65.8962 76.9174 65.8962 76.4774ZM74.2327 73.8928L73.2262 74.1677C73.1634 74.0058 73.0698 73.8483 72.9462 73.6961C72.8259 73.5399 72.6614 73.4116 72.4529 73.3109C72.2437 73.2103 71.9764 73.16 71.6502 73.16C71.2045 73.16 70.8322 73.2593 70.5348 73.4574C70.2407 73.6529 70.0937 73.9019 70.0937 74.2045C70.0937 74.4735 70.1946 74.6858 70.3971 74.8412C70.5996 74.9974 70.9164 75.127 71.3468 75.2309L72.4289 75.4877C73.0805 75.6399 73.5664 75.8741 73.8858 76.1883C74.206 76.5 74.3657 76.9019 74.3657 77.3935C74.3657 77.7967 74.2454 78.1574 74.0048 78.4748C73.7675 78.7929 73.4354 79.0432 73.0083 79.2264C72.5806 79.4096 72.084 79.5012 71.5172 79.5012C70.774 79.5012 70.1585 79.3458 69.6713 79.0341C69.1841 78.7225 68.8753 78.267 68.7456 77.6683L69.809 77.4122C69.9099 77.7909 70.1017 78.0748 70.3831 78.2645C70.6678 78.4535 71.0394 78.5483 71.4985 78.5483C72.0205 78.5483 72.4355 78.4412 72.7423 78.2277C73.0524 78.0109 73.2075 77.7509 73.2075 77.4483C73.2075 77.2045 73.1186 76.9993 72.9415 76.8348C72.7644 76.6664 72.4924 76.5412 72.1254 76.4587L70.9097 76.1838C70.242 76.0309 69.7515 75.7948 69.4387 75.4735C69.1286 75.1496 68.9735 74.7451 68.9735 74.2593C68.9735 73.8625 69.0885 73.5109 69.3197 73.2058C69.5537 72.9 69.8718 72.6606 70.2741 72.4864C70.6791 72.3122 71.1376 72.2251 71.6502 72.2251C72.3721 72.2251 72.9381 72.378 73.3498 72.6832C73.7642 72.989 74.0589 73.3922 74.2327 73.8928ZM77.1721 75.1212V79.3548H76.0519V69.9709H77.1721V73.4161H77.267C77.4381 73.0529 77.6941 72.7645 78.0362 72.5503C78.3811 72.3335 78.8396 72.2251 79.4124 72.2251C79.9096 72.2251 80.3447 72.3212 80.7176 72.5135C81.0912 72.7032 81.3806 72.9948 81.5865 73.389C81.7957 73.7799 81.8999 74.278 81.8999 74.8825V79.3548H80.7798V74.9561C80.7798 74.3967 80.6294 73.9645 80.3287 73.6593C80.0312 73.3509 79.6182 73.1967 79.0896 73.1967C78.7226 73.1967 78.3938 73.2716 78.1024 73.4212C77.8144 73.5709 77.5865 73.789 77.4187 74.0761C77.2543 74.3632 77.1721 74.7116 77.1721 75.1212ZM95.5695 69.9709V79.3548H94.43L89.1327 71.987H89.0378V79.3548H87.8609V69.9709H88.9997L94.3164 77.3567H94.4113V69.9709H95.5695ZM99.9184 79.5199C99.4566 79.5199 99.0369 79.4354 98.6606 79.2677C98.2843 79.0967 97.9849 78.8509 97.7637 78.5303C97.5418 78.2064 97.4315 77.8154 97.4315 77.3567C97.4315 76.9535 97.5137 76.627 97.6781 76.3767C97.8426 76.1232 98.0624 75.9245 98.3378 75.7806C98.6131 75.6374 98.9173 75.5303 99.2494 75.4599C99.5849 75.3864 99.9218 75.3283 100.26 75.2858C100.703 75.2309 101.063 75.1896 101.338 75.1619C101.616 75.1316 101.819 75.0812 101.946 75.0109C102.075 74.9406 102.14 74.8187 102.14 74.6445V74.6077C102.14 74.1554 102.012 73.8045 101.756 73.5541C101.502 73.3032 101.118 73.178 100.602 73.178C100.067 73.178 99.6478 73.2909 99.3443 73.5174C99.0402 73.7432 98.827 73.9845 98.7034 74.2412L97.64 73.8748C97.8299 73.447 98.0832 73.1141 98.3993 72.8754C98.7194 72.6341 99.067 72.4664 99.4439 72.3716C99.8235 72.2741 100.197 72.2251 100.564 72.2251C100.798 72.2251 101.067 72.2522 101.371 72.3077C101.678 72.3593 101.974 72.4677 102.259 72.6329C102.546 72.798 102.786 73.047 102.975 73.3799C103.165 73.7129 103.26 74.1587 103.26 74.7174V79.3548H102.14V78.4019H102.083C102.007 78.5541 101.881 78.718 101.704 78.8922C101.526 79.0664 101.291 79.2141 100.996 79.3367C100.702 79.4587 100.343 79.5199 99.9184 79.5199ZM100.09 78.5483C100.533 78.5483 100.906 78.4645 101.21 78.2961C101.516 78.1283 101.748 77.9116 101.903 77.6458C102.061 77.3799 102.14 77.1006 102.14 76.807V75.8174C102.093 75.8722 101.988 75.9225 101.827 75.9683C101.669 76.0116 101.485 76.0496 101.276 76.0832C101.071 76.1135 100.869 76.1412 100.673 76.1658C100.48 76.187 100.323 76.2051 100.203 76.2206C99.9124 76.2574 99.6397 76.3167 99.3871 76.3993C99.1371 76.4787 98.9346 76.5993 98.7796 76.7612C98.6272 76.92 98.5517 77.1367 98.5517 77.4122C98.5517 77.7877 98.6954 78.0716 98.9834 78.2645C99.2748 78.4535 99.6431 78.5483 100.09 78.5483ZM106.425 75.1212V79.3548H105.305V72.3167H106.387V73.4161H106.482C106.653 73.0587 106.913 72.7716 107.261 72.5548C107.608 72.3348 108.058 72.2251 108.609 72.2251C109.102 72.2251 109.535 72.3225 109.905 72.518C110.275 72.7109 110.562 73.0038 110.768 73.398C110.974 73.789 111.077 74.2838 111.077 74.8825V79.3548H109.957V74.9561C109.957 74.4032 109.808 73.9722 109.51 73.6638C109.213 73.3522 108.805 73.1967 108.286 73.1967C107.929 73.1967 107.608 73.2716 107.327 73.4212C107.048 73.5709 106.828 73.789 106.667 74.0761C106.506 74.3632 106.425 74.7116 106.425 75.1212ZM115.877 79.5012C115.27 79.5012 114.733 79.3535 114.268 79.0567C113.803 78.7574 113.439 78.3361 113.176 77.7922C112.914 77.2458 112.782 76.5993 112.782 75.8541C112.782 75.1148 112.914 74.4735 113.176 73.9296C113.439 73.3858 113.805 72.9658 114.272 72.6696C114.741 72.3735 115.282 72.2251 115.896 72.2251C116.371 72.2251 116.746 72.3012 117.021 72.4541C117.299 72.6038 117.512 72.7748 117.657 72.967C117.806 73.1567 117.922 73.3122 118.004 73.4348H118.099V69.9709H119.219V79.3548H118.137V78.2735H118.004C117.922 78.4019 117.804 78.5638 117.652 78.7593C117.5 78.9516 117.284 79.1245 117.002 79.2767C116.721 79.4264 116.346 79.5012 115.877 79.5012ZM116.029 78.5303C116.479 78.5303 116.858 78.4167 117.168 78.1909C117.478 77.9619 117.714 77.6458 117.875 77.2425C118.037 76.8361 118.117 76.367 118.117 75.8354C118.117 75.3103 118.039 74.8503 117.88 74.4567C117.722 74.0593 117.488 73.7509 117.178 73.5309C116.868 73.3077 116.485 73.1967 116.029 73.1967C115.554 73.1967 115.159 73.3141 114.842 73.549C114.529 73.7812 114.293 74.0974 114.135 74.498C113.98 74.8948 113.902 75.3406 113.902 75.8354C113.902 76.3367 113.982 76.7916 114.14 77.2012C114.301 77.6077 114.538 77.9316 114.852 78.1729C115.168 78.4109 115.56 78.5303 116.029 78.5303ZM122.147 81.9941C121.958 81.9941 121.789 81.9787 121.64 81.9483C121.491 81.9206 121.388 81.8935 121.331 81.8658L121.616 80.9129C121.888 80.9799 122.129 81.0045 122.337 80.9858C122.546 80.9677 122.732 80.8774 122.893 80.7154C123.057 80.5567 123.207 80.2987 123.344 79.9412L123.552 79.3916L120.856 72.3167H122.071L124.084 77.9251H124.16L126.173 72.3167H127.388L124.293 80.3812C124.154 80.7445 123.981 81.0458 123.776 81.2838C123.57 81.5251 123.331 81.7038 123.059 81.8199C122.79 81.9361 122.486 81.9941 122.147 81.9941Z" fill="black"/>
<path d="M32.0804 59.3549H14.7035C11.0124 59.3549 8.02011 62.2433 8.02011 65.8065V82.5807C8.02011 86.1438 11.0124 89.0323 14.7035 89.0323H32.0804C35.7716 89.0323 38.7638 86.1438 38.7638 82.5807V65.8065C38.7638 62.2433 35.7716 59.3549 32.0804 59.3549Z" fill="#FFDDE5"/>
<path d="M32.5174 74.7923L28.353 71.7639C28.2667 71.7007 28.1639 71.6626 28.0562 71.6529C27.9485 71.6433 27.8402 71.6633 27.7434 71.7097C27.6466 71.7562 27.5652 71.8278 27.5084 71.9168C27.4514 72.0052 27.4213 72.1078 27.4213 72.2123V73.8123H18.9053C18.8958 73.8123 18.8863 73.8123 18.877 73.8136C18.7608 73.82 18.6516 73.8697 18.5718 73.9517C18.492 74.0336 18.4475 74.1413 18.4474 74.2536V75.6491L15.1719 73.2671L18.4476 70.8852V72.2923C18.4476 72.4046 18.4922 72.5129 18.572 72.5942C18.6518 72.6762 18.7609 72.7258 18.8771 72.7329C18.8865 72.7336 18.896 72.7342 18.9054 72.7342H25.3785C25.439 72.7349 25.4989 72.7233 25.5549 72.7013C25.6109 72.6794 25.6619 72.6471 25.7048 72.6058C25.7478 72.5652 25.7819 72.5162 25.8052 72.462C25.8284 72.4084 25.8404 72.3504 25.8404 72.2923C25.8404 72.2336 25.8284 72.1762 25.8052 72.122C25.7819 72.0684 25.7478 72.0194 25.7048 71.9781C25.6619 71.9375 25.6109 71.9046 25.5549 71.8826C25.4989 71.8607 25.439 71.8497 25.3785 71.8504H19.363V70.2388C19.363 70.1349 19.3329 70.0323 19.276 69.9433C19.2191 69.8549 19.1377 69.7833 19.0409 69.7362C18.9442 69.6897 18.8359 69.6704 18.7282 69.68C18.6205 69.6891 18.5177 69.7278 18.4313 69.7904L14.2669 72.8188C14.1949 72.871 14.1365 72.9388 14.0963 73.0168C14.0561 73.0949 14.0352 73.18 14.0352 73.2671C14.0352 73.3542 14.0561 73.44 14.0963 73.5181C14.1365 73.5955 14.1949 73.6633 14.2669 73.7155L18.4313 76.7439C18.7944 77.0271 19.3786 76.7446 19.363 76.2955V74.6962H27.8791C27.8914 74.6962 27.9038 74.6955 27.9162 74.6942C28.0307 74.6852 28.1377 74.6349 28.2156 74.5536C28.2935 74.4717 28.3368 74.3646 28.3368 74.2536V72.8588L31.6124 75.2407L28.3367 77.6226V76.2155C28.3366 76.1039 28.2929 75.9968 28.2142 75.9149C28.1355 75.8336 28.0277 75.7833 27.9125 75.7755C27.9013 75.7742 27.8902 75.7736 27.8789 75.7736H21.4058C21.2844 75.7736 21.168 75.82 21.0821 75.9033C20.9963 75.9858 20.948 76.0981 20.948 76.2155C20.948 76.3329 20.9963 76.4452 21.0821 76.5278C21.168 76.611 21.2844 76.6575 21.4058 76.6575H27.4213V78.2691C27.4056 78.7181 27.9898 79 28.3529 78.7175L32.5174 75.6891C32.5894 75.6368 32.6478 75.5691 32.688 75.491C32.7282 75.4136 32.7491 75.3278 32.7491 75.2407C32.7491 75.1536 32.7282 75.0678 32.688 74.9904C32.6478 74.9123 32.5894 74.8446 32.5174 74.7923Z" fill="#FF6E90"/>
<path d="M223.637 68.4638C223.227 68.4638 222.877 68.3503 222.587 68.1232C222.298 67.8942 222.076 67.5632 221.92 67.1309C221.766 66.698 221.69 66.1787 221.69 65.5716C221.69 64.9671 221.766 64.4492 221.92 64.0185C222.076 63.5859 222.299 63.2551 222.589 63.026C222.882 62.7951 223.231 62.6796 223.637 62.6796C224.044 62.6796 224.392 62.7951 224.682 63.026C224.975 63.2551 225.198 63.5859 225.352 64.0185C225.508 64.4492 225.585 64.9671 225.585 65.5716C225.585 66.1787 225.508 66.698 225.352 67.1309C225.198 67.5632 224.976 67.8942 224.686 68.1232C224.397 68.3503 224.048 68.4638 223.637 68.4638ZM223.637 68.0019C224.088 68.0019 224.439 67.7903 224.691 67.3671C224.944 66.9419 225.07 66.3432 225.07 65.5716C225.07 65.0587 225.012 64.6206 224.896 64.2576C224.782 63.8929 224.618 63.6143 224.404 63.4219C224.191 63.2294 223.935 63.1332 223.637 63.1332C223.191 63.1332 222.841 63.3476 222.587 63.7765C222.332 64.2036 222.205 64.8019 222.205 65.5716C222.205 66.0851 222.262 66.5232 222.376 66.8858C222.492 67.249 222.656 67.5258 222.869 67.7161C223.083 67.9071 223.339 68.0019 223.637 68.0019ZM226.745 68.3871V68.0103L228.65 65.9432C228.899 65.6716 229.099 65.44 229.251 65.2477C229.403 65.0548 229.513 64.8774 229.581 64.7141C229.652 64.5509 229.687 64.3814 229.687 64.2054C229.687 63.991 229.634 63.804 229.53 63.6445C229.428 63.4832 229.286 63.3577 229.106 63.2679C228.925 63.1781 228.722 63.1332 228.496 63.1332C228.257 63.1332 228.047 63.1827 227.867 63.2816C227.688 63.3807 227.55 63.5163 227.451 63.6885C227.353 63.8609 227.303 64.0588 227.303 64.2824H226.793C226.793 63.9708 226.867 63.695 227.015 63.4549C227.165 63.2129 227.369 63.0232 227.628 62.8858C227.888 62.7483 228.182 62.6796 228.511 62.6796C228.835 62.6796 229.124 62.7474 229.376 62.8831C229.629 63.0168 229.827 63.1992 229.972 63.4302C230.116 63.6611 230.188 63.9195 230.188 64.2054C230.188 64.4125 230.15 64.6135 230.074 64.8077C230 65.0019 229.872 65.218 229.69 65.4561C229.507 65.6948 229.255 65.9858 228.932 66.3303L227.485 67.8896V67.9251H230.37V68.3871H226.745ZM234.029 68.3871H233.471L235.593 62.7565H236.163L238.285 68.3871H237.726L235.898 63.4246H235.858L234.029 68.3871ZM234.431 66.229H237.324V66.6909H234.431V66.229ZM241.958 66.7735V64.1641H242.465V68.3871H241.958V67.6858H241.918C241.816 67.9025 241.654 68.0825 241.431 68.2277C241.209 68.3703 240.938 68.4419 240.617 68.4419C240.338 68.4419 240.09 68.3832 239.873 68.2658C239.657 68.147 239.487 67.9729 239.364 67.7438C239.24 67.5148 239.179 67.2335 239.179 66.9V64.1641H239.685V66.8696C239.685 67.1993 239.786 67.4651 239.988 67.6671C240.189 67.8664 240.447 67.9664 240.762 67.9664C240.959 67.9664 241.149 67.9206 241.332 67.829C241.514 67.7374 241.664 67.6038 241.781 67.4277C241.9 67.2496 241.958 67.0316 241.958 66.7735ZM245.477 70.0587C245.179 70.0587 244.917 70.0212 244.693 69.9458C244.469 69.8729 244.28 69.7716 244.127 69.6432C243.973 69.5154 243.853 69.3716 243.768 69.2116L244.183 68.9477C244.246 69.0542 244.33 69.1587 244.434 69.2612C244.54 69.3638 244.678 69.449 244.847 69.5167C245.017 69.5851 245.227 69.6187 245.477 69.6187C245.864 69.6187 246.176 69.5251 246.414 69.338C246.652 69.1516 246.772 68.8606 246.772 68.4671V67.5154H246.726C246.668 67.6438 246.583 67.7722 246.473 67.9006C246.363 68.0271 246.218 68.1322 246.04 68.2167C245.864 68.3006 245.644 68.3432 245.382 68.3432C245.033 68.3432 244.723 68.26 244.451 68.0929C244.181 67.9264 243.969 67.6877 243.813 67.378C243.659 67.0664 243.583 66.6954 243.583 66.2645C243.583 65.8374 243.657 65.4619 243.807 65.1374C243.959 64.8129 244.171 64.56 244.443 64.3786C244.714 64.1972 245.03 64.1065 245.391 64.1065C245.658 64.1065 245.881 64.1523 246.057 64.2439C246.234 64.3337 246.376 64.4455 246.482 64.5793C246.59 64.7129 246.674 64.8432 246.735 64.9696H246.787V64.1641H247.282V68.4967C247.282 68.8541 247.203 69.1483 247.046 69.3793C246.888 69.6103 246.674 69.7812 246.402 69.8909C246.13 70.0025 245.822 70.0587 245.477 70.0587ZM245.442 67.8948C245.723 67.8948 245.963 67.8296 246.163 67.7C246.362 67.5677 246.515 67.3787 246.621 67.1335C246.728 66.8877 246.781 66.5954 246.781 66.2561C246.781 65.9264 246.728 65.6341 246.624 65.3793C246.52 65.1225 246.367 64.9212 246.168 64.7748C245.971 64.6258 245.729 64.5516 245.442 64.5516C245.15 64.5516 244.903 64.6277 244.701 64.78C244.5 64.9322 244.348 65.1374 244.246 65.3961C244.143 65.6522 244.092 65.9393 244.092 66.2561C244.092 66.5787 244.145 66.8638 244.249 67.1116C244.353 67.3567 244.506 67.5496 244.707 67.689C244.908 67.8264 245.154 67.8948 245.442 67.8948Z" fill="#7C7C7C"/>
<path d="M257.547 63.2258C257.662 63.2263 257.771 63.2704 257.853 63.3487C257.934 63.427 257.979 63.533 257.98 63.6437V69.2155C257.98 69.3265 257.934 69.4323 257.853 69.511C257.772 69.5891 257.662 69.6329 257.547 69.6329C257.433 69.6329 257.322 69.5891 257.241 69.511C257.16 69.4323 257.114 69.3265 257.114 69.2155V64.6529L252.024 69.5652C251.942 69.6394 251.834 69.6794 251.722 69.6774C251.609 69.6755 251.502 69.6316 251.424 69.5549C251.344 69.4787 251.299 69.3755 251.297 69.2671C251.295 69.1587 251.336 69.0542 251.413 68.9749L256.502 64.0616H251.775C251.66 64.0616 251.55 64.0176 251.469 63.9392C251.388 63.8608 251.342 63.7545 251.342 63.6437C251.342 63.5329 251.388 63.4266 251.469 63.3482C251.55 63.2698 251.66 63.2258 251.775 63.2258H257.547Z" fill="#7C7C7C"/>
<path d="M221.379 78.64L221.056 79.7032H214.905L215.227 78.64H221.379ZM218.493 85.8064L215.018 81.7006L215 80.931H216.727C217.176 80.931 217.559 80.8697 217.876 80.7477C218.192 80.6226 218.434 80.4361 218.602 80.189C218.77 79.9381 218.854 79.6239 218.854 79.2452C218.854 78.6858 218.679 78.2477 218.331 77.9297C217.984 77.609 217.448 77.4484 216.727 77.4484H214.905L215.227 76.4226H216.727C217.499 76.4226 218.132 76.5458 218.626 76.7935C219.123 77.0381 219.489 77.3735 219.727 77.8013C219.967 78.2258 220.088 78.7071 220.088 79.2452C220.088 79.7303 219.977 80.1781 219.755 80.5877C219.537 80.9935 219.186 81.3206 218.701 81.5677C218.221 81.8155 217.585 81.9394 216.793 81.9394H216.765L219.974 85.7329V85.8064H218.493ZM221.379 76.4226L221.056 77.4852L216.215 77.4484L216.537 76.4226H221.379ZM225.787 85.9348C225.23 85.9348 224.729 85.8277 224.283 85.6142C223.836 85.4 223.479 85.1071 223.21 84.7342C222.941 84.3613 222.794 83.9368 222.768 83.4606H223.908C223.952 83.8852 224.151 84.2361 224.506 84.5142C224.864 84.789 225.291 84.9265 225.787 84.9265C226.186 84.9265 226.54 84.8368 226.851 84.6561C227.164 84.4761 227.409 84.2284 227.586 83.9142C227.767 83.5961 227.857 83.2374 227.857 82.8374C227.857 82.4277 227.763 82.0626 227.577 81.7419C227.393 81.4181 227.141 81.1632 226.818 80.9768C226.495 80.7903 226.126 80.6961 225.712 80.6929C225.414 80.6897 225.109 80.7342 224.795 80.8258C224.482 80.9142 224.224 81.029 224.021 81.169L222.921 81.0413L223.509 76.4226H228.559V77.4303H224.497L224.154 80.1981H224.211C224.411 80.0452 224.661 79.9187 224.962 79.8174C225.262 79.7168 225.575 79.6665 225.901 79.6665C226.496 79.6665 227.026 79.8039 227.491 80.0787C227.96 80.351 228.327 80.7232 228.593 81.1968C228.862 81.6703 228.997 82.211 228.997 82.8187C228.997 83.4174 228.857 83.9523 228.579 84.4226C228.304 84.8903 227.923 85.2594 227.439 85.5316C226.955 85.8006 226.405 85.9348 225.787 85.9348ZM232.206 84.5232L232.13 85.0181C232.076 85.3665 231.994 85.7394 231.883 86.1361C231.776 86.5335 231.663 86.9077 231.546 87.2587C231.429 87.6103 231.333 87.8897 231.257 88.0974H230.403C230.444 87.9019 230.498 87.6439 230.564 87.3232C230.63 87.0026 230.697 86.6432 230.763 86.2465C230.833 85.8523 230.89 85.449 230.934 85.0368L230.991 84.5232H232.206ZM237.094 85.9348C236.379 85.9348 235.77 85.7471 235.267 85.371C234.764 84.9923 234.379 84.4439 234.113 83.7265C233.847 83.0052 233.714 82.1348 233.714 81.1142C233.714 80.1 233.847 79.2342 234.113 78.5161C234.382 77.7955 234.768 77.2458 235.272 76.8664C235.778 76.4852 236.385 76.2942 237.094 76.2942C237.803 76.2942 238.409 76.4852 238.912 76.8664C239.419 77.2458 239.804 77.7955 240.07 78.5161C240.34 79.2342 240.474 80.1 240.474 81.1142C240.474 82.1348 240.341 83.0052 240.075 83.7265C239.809 84.4439 239.425 84.9923 238.921 85.371C238.419 85.7471 237.809 85.9348 237.094 85.9348ZM237.094 84.9265C237.803 84.9265 238.353 84.5968 238.746 83.9368C239.139 83.2774 239.334 82.3361 239.334 81.1142C239.334 80.3019 239.244 79.6097 239.064 79.0387C238.887 78.4677 238.631 78.0323 238.295 77.7329C237.963 77.4335 237.563 77.2839 237.094 77.2839C236.392 77.2839 235.842 77.6181 235.447 78.2871C235.052 78.9529 234.854 79.8955 234.854 81.1142C234.854 81.9271 234.942 82.6174 235.119 83.1858C235.297 83.7535 235.552 84.1858 235.884 84.4819C236.219 84.7787 236.623 84.9265 237.094 84.9265ZM245.448 85.9348C244.733 85.9348 244.124 85.7471 243.621 85.371C243.118 84.9923 242.734 84.4439 242.468 83.7265C242.202 83.0052 242.069 82.1348 242.069 81.1142C242.069 80.1 242.202 79.2342 242.468 78.5161C242.736 77.7955 243.123 77.2458 243.626 76.8664C244.132 76.4852 244.739 76.2942 245.448 76.2942C246.158 76.2942 246.763 76.4852 247.266 76.8664C247.773 77.2458 248.159 77.7955 248.425 78.5161C248.694 79.2342 248.828 80.1 248.828 81.1142C248.828 82.1348 248.695 83.0052 248.429 83.7265C248.163 84.4439 247.779 84.9923 247.276 85.371C246.773 85.7471 246.164 85.9348 245.448 85.9348ZM245.448 84.9265C246.158 84.9265 246.708 84.5968 247.101 83.9368C247.493 83.2774 247.689 82.3361 247.689 81.1142C247.689 80.3019 247.599 79.6097 247.418 79.0387C247.241 78.4677 246.985 78.0323 246.649 77.7329C246.317 77.4335 245.917 77.2839 245.448 77.2839C244.746 77.2839 244.197 77.6181 243.802 78.2871C243.406 78.9529 243.208 79.8955 243.208 81.1142C243.208 81.9271 243.296 82.6174 243.474 83.1858C243.651 83.7535 243.906 84.1858 244.238 84.4819C244.574 84.7787 244.977 84.9265 245.448 84.9265ZM253.803 85.9348C253.088 85.9348 252.478 85.7471 251.975 85.371C251.472 84.9923 251.088 84.4439 250.822 83.7265C250.556 83.0052 250.423 82.1348 250.423 81.1142C250.423 80.1 250.556 79.2342 250.822 78.5161C251.091 77.7955 251.477 77.2458 251.98 76.8664C252.486 76.4852 253.094 76.2942 253.803 76.2942C254.512 76.2942 255.117 76.4852 255.621 76.8664C256.127 77.2458 256.513 77.7955 256.779 78.5161C257.048 79.2342 257.183 80.1 257.183 81.1142C257.183 82.1348 257.05 83.0052 256.784 83.7265C256.518 84.4439 256.133 84.9923 255.63 85.371C255.127 85.7471 254.518 85.9348 253.803 85.9348ZM253.803 84.9265C254.512 84.9265 255.062 84.5968 255.455 83.9368C255.847 83.2774 256.043 82.3361 256.043 81.1142C256.043 80.3019 255.953 79.6097 255.772 79.0387C255.595 78.4677 255.339 78.0323 255.004 77.7329C254.672 77.4335 254.271 77.2839 253.803 77.2839C253.1 77.2839 252.551 77.6181 252.156 78.2871C251.76 78.9529 251.562 79.8955 251.562 81.1142C251.562 81.9271 251.651 82.6174 251.828 83.1858C252.006 83.7535 252.26 84.1858 252.592 84.4819C252.928 84.7787 253.332 84.9265 253.803 84.9265Z" fill="black"/>
<path d="M259.317 103.226H6.68342C2.99227 103.226 0 106.114 0 109.677V141.936C0 145.499 2.99227 148.387 6.68342 148.387H259.317C263.008 148.387 266 145.499 266 141.936V109.677C266 106.114 263.008 103.226 259.317 103.226Z" fill="#F3F3F0"/>
<path d="M47.0232 121.584L49.9091 129.483H50.0231L52.9091 121.584H54.1433L50.5737 130.968H49.3586L45.789 121.584H47.0232ZM57.8837 131.114C57.1812 131.114 56.5752 130.964 56.0657 130.665C55.5594 130.363 55.1686 129.941 54.8932 129.401C54.6211 128.857 54.485 128.224 54.485 127.504C54.485 126.783 54.6211 126.147 54.8932 125.597C55.1686 125.044 55.5515 124.614 56.042 124.305C56.5356 123.994 57.1116 123.838 57.7698 123.838C58.1495 123.838 58.5245 123.899 58.8947 124.021C59.265 124.143 59.602 124.342 59.9058 124.617C60.2096 124.889 60.4517 125.249 60.6321 125.698C60.8125 126.147 60.9026 126.7 60.9026 127.357V127.815H55.2825V126.881H59.7634C59.7634 126.483 59.6811 126.129 59.5165 125.817C59.3552 125.506 59.1242 125.26 58.8235 125.08C58.5261 124.899 58.1748 124.81 57.7698 124.81C57.3236 124.81 56.9375 124.916 56.6115 125.13C56.2888 125.341 56.0404 125.616 55.8663 125.955C55.6923 126.294 55.6053 126.657 55.6053 127.045V127.668C55.6053 128.2 55.7002 128.651 55.8901 129.021C56.0831 129.387 56.3505 129.666 56.6923 129.859C57.034 130.048 57.4312 130.143 57.8837 130.143C58.178 130.143 58.4438 130.103 58.6811 130.024C58.9217 129.941 59.1289 129.819 59.3029 129.657C59.477 129.492 59.6115 129.288 59.7064 129.043L60.7887 129.337C60.6748 129.691 60.4833 130.003 60.2144 130.271C59.9453 130.537 59.613 130.744 59.2175 130.894C58.8219 131.041 58.3774 131.114 57.8837 131.114ZM65.5497 133.754C65.0086 133.754 64.5433 133.686 64.1542 133.552C63.7649 133.421 63.4405 133.246 63.1811 133.03C62.9248 132.816 62.7206 132.586 62.5687 132.343L63.4611 131.737C63.5623 131.866 63.6905 132.012 63.8456 132.177C64.0006 132.345 64.2127 132.49 64.4817 132.613C64.7538 132.738 65.1098 132.801 65.5497 132.801C66.1383 132.801 66.624 132.663 67.0072 132.388C67.3895 132.114 67.5814 131.683 67.5814 131.096V129.666H67.4864C67.4042 129.795 67.2873 129.954 67.1349 130.143C66.9865 130.329 66.7712 130.495 66.4895 130.643C66.2111 130.786 65.8345 130.858 65.3598 130.858C64.7712 130.858 64.2427 130.723 63.7744 130.455C63.3092 130.186 62.9405 129.795 62.6684 129.281C62.3994 128.768 62.265 128.145 62.265 127.412C62.265 126.691 62.3962 126.063 62.6589 125.529C62.9215 124.991 63.2871 124.575 63.7554 124.283C64.2237 123.986 64.7649 123.838 65.3788 123.838C65.8535 123.838 66.23 123.914 66.5085 124.067C66.7902 124.217 67.0052 124.388 67.1543 124.58C67.306 124.77 67.423 124.925 67.5052 125.048H67.6194V123.93H68.7015V131.169C68.7015 131.774 68.5591 132.266 68.2744 132.644C67.9924 133.026 67.6128 133.306 67.1349 133.483C66.6604 133.664 66.1319 133.754 65.5497 133.754ZM65.5117 129.886C65.9611 129.886 66.3408 129.787 66.651 129.588C66.9611 129.39 67.1971 129.104 67.3581 128.732C67.5199 128.359 67.6001 127.913 67.6001 127.394C67.6001 126.886 67.5212 126.439 67.3628 126.051C67.2044 125.663 66.9705 125.359 66.6604 125.139C66.3503 124.919 65.9674 124.81 65.5117 124.81C65.037 124.81 64.6414 124.925 64.325 125.157C64.0117 125.39 63.7759 125.701 63.6178 126.092C63.4627 126.483 63.3852 126.917 63.3852 127.394C63.3852 127.883 63.4643 128.315 63.6225 128.69C63.7839 129.063 64.0212 129.356 64.3345 129.57C64.6509 129.781 65.0433 129.886 65.5117 129.886ZM73.809 131.114C73.1065 131.114 72.5004 130.964 71.9911 130.665C71.4845 130.363 71.0942 129.941 70.8188 129.401C70.5461 128.857 70.4104 128.224 70.4104 127.504C70.4104 126.783 70.5461 126.147 70.8188 125.597C71.0942 125.044 71.4764 124.614 71.967 124.305C72.4609 123.994 73.037 123.838 73.6953 123.838C74.075 123.838 74.4499 123.899 74.8202 124.021C75.1904 124.143 75.5273 124.342 75.8314 124.617C76.1348 124.889 76.3767 125.249 76.5572 125.698C76.7376 126.147 76.8279 126.7 76.8279 127.357V127.815H71.2078V126.881H75.689C75.689 126.483 75.6061 126.129 75.4417 125.817C75.2806 125.506 75.0494 125.26 74.7487 125.08C74.4512 124.899 74.1004 124.81 73.6953 124.81C73.2489 124.81 72.8626 124.916 72.5371 125.13C72.2143 125.341 71.9657 125.616 71.7919 125.955C71.6175 126.294 71.5306 126.657 71.5306 127.045V127.668C71.5306 128.2 71.6255 128.651 71.8153 129.021C72.0084 129.387 72.2758 129.666 72.6173 129.859C72.9595 130.048 73.3565 130.143 73.809 130.143C74.103 130.143 74.369 130.103 74.6063 130.024C74.8469 129.941 75.0541 129.819 75.2285 129.657C75.4023 129.492 75.5366 129.288 75.6315 129.043L76.7142 129.337C76.6 129.691 76.4088 130.003 76.1395 130.271C75.8708 130.537 75.5386 130.744 75.143 130.894C74.7473 131.041 74.3029 131.114 73.809 131.114ZM81.7027 123.93V124.846H77.9246V123.93H81.7027ZM79.0254 122.243H80.1462V128.952C80.1462 129.257 80.1916 129.486 80.2839 129.639C80.3788 129.788 80.4991 129.89 80.6441 129.941C80.7931 129.99 80.9495 130.015 81.1139 130.015C81.2376 130.015 81.3392 130.008 81.418 129.996C81.4969 129.981 81.5604 129.969 81.6078 129.96L81.8357 130.931C81.7596 130.959 81.654 130.986 81.5176 131.014C81.3819 131.044 81.2095 131.059 81.0003 131.059C80.6842 131.059 80.3741 130.994 80.07 130.863C79.7692 130.731 79.5193 130.531 79.3201 130.262C79.1236 129.994 79.0254 129.654 79.0254 129.245V122.243ZM85.5337 131.133C85.0712 131.133 84.6521 131.048 84.2759 130.881C83.8989 130.71 83.6002 130.464 83.3783 130.143C83.1571 129.819 83.0461 129.428 83.0461 128.97C83.0461 128.566 83.1283 128.24 83.2927 127.99C83.4578 127.736 83.6777 127.537 83.953 127.394C84.2284 127.25 84.5318 127.143 84.864 127.073C85.1995 126.999 85.5364 126.941 85.8752 126.899C86.3183 126.844 86.6772 126.803 86.9526 126.775C87.2313 126.744 87.4338 126.694 87.5601 126.624C87.6898 126.554 87.7552 126.432 87.7552 126.257V126.221C87.7552 125.768 87.6269 125.417 87.3703 125.167C87.117 124.916 86.7327 124.791 86.2167 124.791C85.6821 124.791 85.263 124.904 84.9589 125.13C84.6555 125.356 84.4416 125.597 84.3186 125.854L83.2553 125.488C83.4451 125.06 83.6977 124.727 84.0145 124.488C84.334 124.247 84.6822 124.079 85.0585 123.984C85.4388 123.887 85.8117 123.838 86.1793 123.838C86.4132 123.838 86.6819 123.865 86.986 123.921C87.2928 123.972 87.5888 124.081 87.8735 124.246C88.1616 124.411 88.4002 124.66 88.5907 124.993C88.7805 125.326 88.8754 125.772 88.8754 126.33V130.968H87.7552V130.015H87.6978C87.6222 130.167 87.4953 130.331 87.3182 130.505C87.141 130.679 86.9051 130.827 86.611 130.95C86.317 131.072 85.9574 131.133 85.5337 131.133ZM85.7041 130.161C86.1472 130.161 86.5208 130.077 86.8249 129.909C87.1317 129.741 87.3623 129.524 87.5173 129.259C87.6757 128.993 87.7552 128.714 87.7552 128.42V127.43C87.7078 127.485 87.6029 127.535 87.4418 127.581C87.2834 127.624 87.0996 127.663 86.8911 127.696C86.6852 127.726 86.4847 127.754 86.2882 127.779C86.0951 127.8 85.9387 127.818 85.8184 127.834C85.527 127.87 85.255 127.93 85.0017 128.012C84.7517 128.092 84.5492 128.212 84.3942 128.374C84.2424 128.533 84.1663 128.75 84.1663 129.025C84.1663 129.401 84.3106 129.684 84.5987 129.877C84.8894 130.066 85.2583 130.161 85.7041 130.161ZM91.0716 130.968V121.584H92.1917V125.048H92.2866C92.3695 124.925 92.4831 124.77 92.6288 124.58C92.7772 124.388 92.9897 124.217 93.2651 124.067C93.5431 123.914 93.92 123.838 94.3946 123.838C95.0081 123.838 95.5494 123.986 96.018 124.283C96.4865 124.579 96.8514 124.999 97.114 125.543C97.3767 126.086 97.5084 126.728 97.5084 127.467C97.5084 128.212 97.3767 128.859 97.114 129.405C96.8514 129.949 96.4878 130.37 96.0226 130.67C95.5575 130.966 95.0208 131.114 94.4133 131.114C93.9454 131.114 93.5698 131.039 93.2884 130.89C93.0071 130.737 92.7899 130.564 92.6381 130.372C92.4864 130.177 92.3695 130.015 92.2866 129.886H92.1543V130.968H91.0716ZM92.173 127.448C92.173 127.98 92.2538 128.449 92.4149 128.855C92.5767 129.259 92.8119 129.575 93.122 129.804C93.4321 130.03 93.8124 130.143 94.2616 130.143C94.7301 130.143 95.121 130.024 95.4338 129.786C95.7506 129.544 95.9879 129.221 96.1463 128.814C96.3074 128.404 96.3882 127.95 96.3882 127.448C96.3882 126.954 96.3087 126.508 96.151 126.111C95.9959 125.71 95.76 125.394 95.4432 125.162C95.1304 124.927 94.7361 124.81 94.2616 124.81C93.8057 124.81 93.4228 124.921 93.1127 125.144C92.8026 125.364 92.5686 125.672 92.4103 126.07C92.2519 126.463 92.173 126.923 92.173 127.448ZM100.342 121.584V130.968H99.222V121.584H100.342ZM105.451 131.114C104.749 131.114 104.142 130.964 103.633 130.665C103.126 130.363 102.735 129.941 102.46 129.401C102.188 128.857 102.052 128.224 102.052 127.504C102.052 126.783 102.188 126.147 102.46 125.597C102.735 125.044 103.118 124.614 103.609 124.305C104.103 123.994 104.679 123.838 105.337 123.838C105.717 123.838 106.092 123.899 106.462 124.021C106.832 124.143 107.169 124.342 107.473 124.617C107.777 124.889 108.019 125.249 108.199 125.698C108.38 126.147 108.47 126.7 108.47 127.357V127.815H102.85V126.881H107.33C107.33 126.483 107.248 126.129 107.084 125.817C106.923 125.506 106.691 125.26 106.391 125.08C106.093 124.899 105.742 124.81 105.337 124.81C104.891 124.81 104.505 124.916 104.178 125.13C103.856 125.341 103.608 125.616 103.433 125.955C103.259 126.294 103.173 126.657 103.173 127.045V127.668C103.173 128.2 103.267 128.651 103.457 129.021C103.65 129.387 103.918 129.666 104.259 129.859C104.601 130.048 104.998 130.143 105.451 130.143C105.745 130.143 106.011 130.103 106.248 130.024C106.489 129.941 106.696 129.819 106.87 129.657C107.044 129.492 107.179 129.288 107.274 129.043L108.356 129.337C108.242 129.691 108.051 130.003 107.781 130.271C107.513 130.537 107.18 130.744 106.785 130.894C106.389 131.041 105.944 131.114 105.451 131.114ZM119.401 123.93C119.344 123.465 119.114 123.104 118.708 122.848C118.303 122.592 117.807 122.463 117.218 122.463C116.787 122.463 116.411 122.53 116.088 122.665C115.769 122.799 115.519 122.984 115.338 123.219C115.161 123.455 115.072 123.722 115.072 124.021C115.072 124.272 115.134 124.487 115.258 124.667C115.384 124.844 115.546 124.993 115.742 125.112C115.938 125.228 116.144 125.324 116.359 125.401C116.574 125.474 116.772 125.534 116.952 125.579L117.94 125.835C118.193 125.9 118.474 125.988 118.784 126.101C119.098 126.215 119.397 126.369 119.681 126.564C119.969 126.757 120.207 127.004 120.394 127.306C120.58 127.609 120.674 127.98 120.674 128.42C120.674 128.927 120.536 129.385 120.261 129.795C119.989 130.204 119.59 130.53 119.064 130.771C118.542 131.012 117.908 131.133 117.161 131.133C116.465 131.133 115.862 131.024 115.352 130.807C114.846 130.59 114.447 130.288 114.156 129.9C113.869 129.512 113.706 129.061 113.668 128.548H114.883C114.914 128.903 115.038 129.196 115.253 129.428C115.471 129.657 115.747 129.828 116.079 129.941C116.414 130.052 116.775 130.106 117.161 130.106C117.61 130.106 118.014 130.036 118.371 129.895C118.729 129.752 119.012 129.554 119.221 129.3C119.43 129.043 119.534 128.744 119.534 128.402C119.534 128.09 119.444 127.837 119.264 127.641C119.084 127.446 118.846 127.287 118.552 127.164C118.258 127.043 117.94 126.935 117.598 126.844L116.402 126.514C115.642 126.303 115.041 126.003 114.598 125.611C114.155 125.22 113.934 124.708 113.934 124.076C113.934 123.551 114.081 123.093 114.375 122.702C114.672 122.308 115.071 122.002 115.571 121.785C116.074 121.565 116.636 121.455 117.256 121.455C117.883 121.455 118.439 121.564 118.927 121.781C119.414 121.994 119.8 122.288 120.085 122.661C120.373 123.033 120.525 123.456 120.541 123.93H119.401ZM125.628 123.93V124.846H121.849V123.93H125.628ZM122.951 122.243H124.071V128.952C124.071 129.257 124.117 129.486 124.209 129.639C124.304 129.788 124.424 129.89 124.57 129.941C124.719 129.99 124.875 130.015 125.039 130.015C125.163 130.015 125.264 130.008 125.343 129.996C125.422 129.981 125.486 129.969 125.533 129.96L125.761 130.931C125.685 130.959 125.579 130.986 125.443 131.014C125.307 131.044 125.134 131.059 124.926 131.059C124.609 131.059 124.299 130.994 123.995 130.863C123.695 130.731 123.445 130.531 123.245 130.262C123.049 129.994 122.951 129.654 122.951 129.245V122.243ZM130.197 131.114C129.539 131.114 128.961 130.963 128.464 130.661C127.971 130.358 127.584 129.935 127.306 129.392C127.031 128.848 126.893 128.212 126.893 127.485C126.893 126.752 127.031 126.112 127.306 125.565C127.584 125.019 127.971 124.594 128.464 124.292C128.961 123.989 129.539 123.838 130.197 123.838C130.855 123.838 131.431 123.989 131.925 124.292C132.421 124.594 132.807 125.019 133.083 125.565C133.362 126.112 133.501 126.752 133.501 127.485C133.501 128.212 133.362 128.848 133.083 129.392C132.807 129.935 132.421 130.358 131.925 130.661C131.431 130.963 130.855 131.114 130.197 131.114ZM130.197 130.143C130.697 130.143 131.108 130.019 131.431 129.772C131.754 129.524 131.993 129.199 132.148 128.796C132.303 128.393 132.38 127.955 132.38 127.485C132.38 127.015 132.303 126.577 132.148 126.17C131.993 125.764 131.754 125.435 131.431 125.185C131.108 124.935 130.697 124.81 130.197 124.81C129.697 124.81 129.285 124.935 128.963 125.185C128.64 125.435 128.401 125.764 128.246 126.17C128.091 126.577 128.013 127.015 128.013 127.485C128.013 127.955 128.091 128.393 128.246 128.796C128.401 129.199 128.64 129.524 128.963 129.772C129.285 130.019 129.697 130.143 130.197 130.143ZM135.211 130.968V123.93H136.293V124.993H136.368C136.501 124.644 136.742 124.362 137.09 124.145C137.438 123.928 137.831 123.819 138.267 123.819C138.349 123.819 138.452 123.821 138.576 123.824C138.7 123.827 138.792 123.832 138.856 123.838V124.937C138.818 124.928 138.731 124.915 138.595 124.896C138.462 124.875 138.321 124.864 138.172 124.864C137.818 124.864 137.502 124.936 137.223 125.08C136.948 125.22 136.729 125.415 136.568 125.666C136.41 125.914 136.331 126.196 136.331 126.514V130.968H135.211ZM143.019 131.114C142.317 131.114 141.71 130.964 141.201 130.665C140.695 130.363 140.304 129.941 140.028 129.401C139.756 128.857 139.621 128.224 139.621 127.504C139.621 126.783 139.756 126.147 140.028 125.597C140.304 125.044 140.687 124.614 141.177 124.305C141.671 123.994 142.246 123.838 142.905 123.838C143.284 123.838 143.66 123.899 144.03 124.021C144.401 124.143 144.737 124.342 145.041 124.617C145.345 124.889 145.587 125.249 145.767 125.698C145.948 126.147 146.038 126.7 146.038 127.357V127.815H140.418V126.881H144.898C144.898 126.483 144.816 126.129 144.652 125.817C144.49 125.506 144.26 125.26 143.959 125.08C143.661 124.899 143.31 124.81 142.905 124.81C142.459 124.81 142.073 124.916 141.747 125.13C141.424 125.341 141.176 125.616 141.001 125.955C140.828 126.294 140.741 126.657 140.741 127.045V127.668C140.741 128.2 140.836 128.651 141.025 129.021C141.219 129.387 141.486 129.666 141.827 129.859C142.169 130.048 142.567 130.143 143.019 130.143C143.313 130.143 143.579 130.103 143.816 130.024C144.057 129.941 144.264 129.819 144.438 129.657C144.612 129.492 144.747 129.288 144.842 129.043L145.924 129.337C145.81 129.691 145.618 130.003 145.35 130.271C145.081 130.537 144.748 130.744 144.353 130.894C143.957 131.041 143.512 131.114 143.019 131.114Z" fill="black"/>
<path d="M32.0804 110.968H14.7035C11.0124 110.968 8.02011 113.856 8.02011 117.419V134.194C8.02011 137.757 11.0124 140.645 14.7035 140.645H32.0804C35.7716 140.645 38.7638 137.757 38.7638 134.194V117.419C38.7638 113.856 35.7716 110.968 32.0804 110.968Z" fill="#FFEECD"/>
<path d="M30.4565 125.328C30.8679 124.879 31.0802 124.315 31.0802 123.714C31.0802 122.368 29.939 121.267 28.5457 121.267C28.2936 121.267 28.0414 121.305 27.8159 121.37C27.8689 121.165 27.8955 120.959 27.8955 120.755C27.8955 119.268 26.6481 118.065 25.1088 118.065C24.1799 118.065 23.3041 118.513 22.7999 119.255C22.2956 118.743 21.5923 118.449 20.8625 118.449C19.4558 118.449 18.3014 119.499 18.2217 120.844C17.2796 121.126 16.6161 121.972 16.6161 122.932C16.6161 123.214 16.6692 123.483 16.7754 123.752C15.6209 123.97 14.7583 124.969 14.7583 126.135C14.7583 127.479 15.8863 128.568 17.2796 128.568H17.2929C17.4256 129.465 18.2616 130.234 19.2701 130.234C20.0928 130.234 20.7961 129.759 21.1013 129.068C22.216 130.234 22.3089 131.975 22.3089 133.82C22.3089 133.897 22.362 133.948 22.4416 133.948H24.8434C24.8832 133.948 24.9098 133.935 24.9363 133.91C24.9628 133.885 24.9761 133.846 24.9761 133.82C24.9761 133.795 24.923 131.13 25.8652 129.926C26.051 129.965 26.2368 129.99 26.4225 129.99C27.1523 129.99 27.8557 129.695 28.3599 129.17C28.705 129.363 29.0898 129.465 29.4878 129.465C30.7219 129.465 31.7305 128.492 31.7305 127.3C31.7437 126.442 31.2394 125.686 30.4565 125.328ZM23.6624 130.234C23.4368 129.542 22.9459 128.479 22.4151 127.928C22.906 127.915 23.397 127.761 23.7951 127.479C23.8083 127.979 23.9676 128.44 24.2462 128.837C23.9941 129.209 23.7818 129.811 23.6624 130.234Z" fill="#FFBB33"/>
<path d="M223.622 120.077C223.211 120.077 222.861 119.963 222.571 119.736C222.282 119.507 222.06 119.176 221.904 118.744C221.75 118.311 221.674 117.792 221.674 117.184C221.674 116.58 221.75 116.062 221.904 115.632C222.06 115.199 222.283 114.868 222.574 114.639C222.866 114.408 223.215 114.292 223.622 114.292C224.028 114.292 224.376 114.408 224.667 114.639C224.959 114.868 225.182 115.199 225.336 115.632C225.492 116.062 225.57 116.58 225.57 117.184C225.57 117.792 225.492 118.311 225.336 118.744C225.182 119.176 224.96 119.507 224.67 119.736C224.381 119.963 224.032 120.077 223.622 120.077ZM223.622 119.615C224.072 119.615 224.423 119.403 224.676 118.98C224.928 118.555 225.054 117.956 225.054 117.184C225.054 116.672 224.997 116.234 224.88 115.87C224.767 115.506 224.602 115.227 224.388 115.035C224.175 114.843 223.92 114.746 223.622 114.746C223.175 114.746 222.825 114.961 222.571 115.39C222.317 115.817 222.19 116.415 222.19 117.184C222.19 117.698 222.246 118.136 222.36 118.499C222.476 118.862 222.64 119.139 222.853 119.329C223.067 119.52 223.324 119.615 223.622 119.615ZM228.532 120.077C228.16 120.077 227.828 120.009 227.538 119.874C227.248 119.738 227.02 119.553 226.855 119.318C226.689 119.082 226.607 118.815 226.607 118.518C226.607 118.285 226.657 118.068 226.758 117.866C226.858 117.663 226.997 117.493 227.173 117.355C227.35 117.216 227.548 117.125 227.769 117.083V117.053C227.482 116.972 227.251 116.814 227.076 116.577C226.902 116.339 226.815 116.068 226.817 115.766C226.815 115.486 226.889 115.235 227.04 115.013C227.189 114.791 227.393 114.616 227.652 114.488C227.912 114.357 228.205 114.292 228.532 114.292C228.856 114.292 229.148 114.357 229.406 114.488C229.664 114.616 229.869 114.791 230.018 115.013C230.17 115.235 230.247 115.486 230.249 115.766C230.247 116.066 230.159 116.337 229.984 116.577C229.809 116.815 229.58 116.974 229.295 117.053V117.083C229.515 117.123 229.713 117.213 229.888 117.352C230.062 117.492 230.201 117.663 230.303 117.866C230.406 118.068 230.457 118.285 230.457 118.518C230.457 118.815 230.373 119.082 230.206 119.318C230.041 119.553 229.813 119.738 229.523 119.874C229.235 120.009 228.904 120.077 228.532 120.077ZM228.532 119.615C228.809 119.615 229.052 119.568 229.261 119.472C229.472 119.375 229.636 119.242 229.754 119.074C229.873 118.905 229.933 118.712 229.933 118.494C229.933 118.268 229.871 118.067 229.748 117.892C229.625 117.714 229.458 117.574 229.247 117.471C229.036 117.366 228.797 117.314 228.532 117.314C228.266 117.314 228.027 117.366 227.814 117.471C227.603 117.574 227.436 117.714 227.313 117.892C227.191 118.067 227.131 118.268 227.131 118.494C227.131 118.712 227.189 118.905 227.304 119.074C227.422 119.242 227.586 119.375 227.797 119.472C228.009 119.568 228.255 119.615 228.532 119.615ZM228.532 116.874C228.759 116.874 228.964 116.827 229.144 116.734C229.325 116.641 229.467 116.513 229.571 116.352C229.678 116.188 229.732 116.003 229.734 115.796C229.732 115.591 229.678 115.41 229.574 115.252C229.47 115.092 229.327 114.969 229.147 114.881C228.969 114.791 228.763 114.746 228.532 114.746C228.3 114.746 228.093 114.791 227.911 114.881C227.731 114.969 227.588 115.092 227.483 115.252C227.381 115.41 227.331 115.591 227.333 115.796C227.331 116.003 227.382 116.188 227.487 116.352C227.593 116.513 227.736 116.641 227.917 116.734C228.099 116.827 228.304 116.874 228.532 116.874ZM234.029 120H233.471L235.593 114.37H236.163L238.285 120H237.726L235.898 115.037H235.858L234.029 120ZM234.431 117.842H237.324V118.304H234.431V117.842ZM241.958 118.386V115.777H242.465V120H241.958V119.299H241.918C241.816 119.515 241.654 119.695 241.431 119.841C241.209 119.983 240.938 120.055 240.617 120.055C240.338 120.055 240.09 119.996 239.873 119.879C239.657 119.76 239.487 119.586 239.364 119.357C239.24 119.128 239.179 118.846 239.179 118.513V115.777H239.685V118.483C239.685 118.812 239.786 119.078 239.987 119.28C240.189 119.479 240.447 119.579 240.762 119.579C240.959 119.579 241.149 119.534 241.332 119.442C241.514 119.35 241.664 119.217 241.781 119.041C241.9 118.863 241.958 118.644 241.958 118.386ZM245.477 121.672C245.178 121.672 244.917 121.634 244.693 121.559C244.469 121.486 244.28 121.384 244.127 121.256C243.973 121.128 243.853 120.984 243.768 120.824L244.183 120.561C244.246 120.667 244.33 120.772 244.434 120.874C244.54 120.977 244.678 121.062 244.847 121.13C245.017 121.198 245.227 121.232 245.477 121.232C245.864 121.232 246.176 121.138 246.414 120.951C246.652 120.764 246.772 120.474 246.772 120.08V119.128H246.726C246.668 119.257 246.583 119.385 246.473 119.514C246.363 119.64 246.218 119.745 246.04 119.83C245.864 119.914 245.644 119.956 245.382 119.956C245.033 119.956 244.723 119.873 244.451 119.706C244.181 119.539 243.969 119.301 243.813 118.991C243.659 118.679 243.582 118.308 243.582 117.877C243.582 117.45 243.657 117.075 243.807 116.75C243.959 116.426 244.171 116.173 244.443 115.992C244.714 115.81 245.03 115.719 245.391 115.719C245.658 115.719 245.881 115.765 246.057 115.857C246.234 115.946 246.375 116.059 246.482 116.192C246.59 116.326 246.674 116.456 246.735 116.583H246.787V115.777H247.282V120.11C247.282 120.467 247.203 120.761 247.046 120.992C246.888 121.223 246.674 121.394 246.402 121.504C246.13 121.615 245.822 121.672 245.477 121.672ZM245.442 119.508C245.723 119.508 245.963 119.443 246.163 119.313C246.362 119.181 246.515 118.992 246.621 118.746C246.728 118.501 246.781 118.208 246.781 117.869C246.781 117.539 246.728 117.247 246.624 116.992C246.52 116.735 246.367 116.534 246.168 116.388C245.971 116.239 245.729 116.164 245.442 116.164C245.15 116.164 244.903 116.241 244.701 116.393C244.5 116.545 244.348 116.75 244.246 117.009C244.143 117.265 244.092 117.552 244.092 117.869C244.092 118.192 244.145 118.477 244.249 118.724C244.353 118.97 244.506 119.163 244.707 119.302C244.908 119.439 245.154 119.508 245.442 119.508Z" fill="#7C7C7C"/>
<path d="M257.547 114.839C257.662 114.839 257.771 114.883 257.853 114.961C257.934 115.04 257.979 115.146 257.98 115.257V120.828C257.98 120.939 257.934 121.045 257.853 121.124C257.772 121.202 257.662 121.246 257.547 121.246C257.433 121.246 257.322 121.202 257.241 121.124C257.16 121.045 257.114 120.939 257.114 120.828V116.266L252.024 121.178C251.942 121.252 251.834 121.292 251.722 121.29C251.609 121.288 251.502 121.244 251.424 121.168C251.344 121.092 251.299 120.988 251.297 120.88C251.295 120.772 251.336 120.667 251.413 120.588L256.502 115.674H251.775C251.66 115.674 251.55 115.63 251.469 115.552C251.388 115.474 251.342 115.367 251.342 115.257C251.342 115.146 251.388 115.039 251.469 114.961C251.55 114.883 251.66 114.839 251.775 114.839H257.547Z" fill="#7C7C7C"/>
<path d="M232.814 130.253L232.491 131.316H226.339L226.662 130.253H232.814ZM229.928 137.419L226.453 133.314L226.434 132.544H228.162C228.612 132.544 228.995 132.483 229.311 132.361C229.627 132.235 229.869 132.049 230.037 131.802C230.205 131.551 230.288 131.237 230.288 130.858C230.288 130.299 230.115 129.861 229.767 129.543C229.418 129.222 228.884 129.061 228.162 129.061H226.339L226.662 128.035H228.162C228.934 128.035 229.567 128.159 230.061 128.406C230.558 128.651 230.925 128.986 231.162 129.414C231.403 129.839 231.523 130.32 231.523 130.858C231.523 131.343 231.412 131.791 231.191 132.201C230.972 132.606 230.621 132.934 230.137 133.181C229.656 133.428 229.019 133.552 228.229 133.552H228.2L231.409 137.346V137.419H229.928ZM232.814 128.035L232.491 129.098L227.649 129.061L227.972 128.035H232.814ZM234.184 137.419V136.595L237.393 133.204C237.77 132.806 238.08 132.461 238.323 132.168C238.567 131.872 238.748 131.594 238.865 131.334C238.985 131.072 239.045 130.797 239.045 130.51C239.045 130.179 238.963 129.894 238.798 129.653C238.637 129.412 238.416 129.225 238.133 129.094C237.852 128.963 237.536 128.897 237.184 128.897C236.811 128.897 236.485 128.972 236.207 129.121C235.931 129.268 235.717 129.474 235.566 129.74C235.417 130.006 235.342 130.317 235.342 130.674H234.222C234.222 130.125 234.354 129.642 234.617 129.226C234.879 128.811 235.237 128.487 235.689 128.255C236.145 128.023 236.656 127.907 237.223 127.907C237.792 127.907 238.297 128.023 238.736 128.255C239.177 128.487 239.522 128.801 239.772 129.194C240.022 129.588 240.147 130.027 240.147 130.51C240.147 130.855 240.082 131.192 239.952 131.522C239.825 131.849 239.604 132.214 239.287 132.617C238.974 133.017 238.538 133.506 237.982 134.084L235.798 136.338V136.412H240.317V137.419H234.184ZM245.448 137.548C244.733 137.548 244.124 137.36 243.621 136.984C243.118 136.605 242.734 136.057 242.468 135.339C242.202 134.618 242.069 133.748 242.069 132.727C242.069 131.713 242.202 130.847 242.468 130.129C242.736 129.408 243.123 128.859 243.626 128.479C244.132 128.098 244.739 127.907 245.448 127.907C246.158 127.907 246.763 128.098 247.266 128.479C247.773 128.859 248.159 129.408 248.425 130.129C248.694 130.847 248.828 131.713 248.828 132.727C248.828 133.748 248.695 134.618 248.429 135.339C248.163 136.057 247.779 136.605 247.276 136.984C246.773 137.36 246.164 137.548 245.448 137.548ZM245.448 136.539C246.158 136.539 246.708 136.21 247.101 135.55C247.493 134.89 247.689 133.949 247.689 132.727C247.689 131.915 247.599 131.223 247.418 130.652C247.241 130.081 246.985 129.645 246.649 129.346C246.317 129.046 245.917 128.897 245.448 128.897C244.746 128.897 244.197 129.231 243.802 129.9C243.406 130.566 243.208 131.508 243.208 132.727C243.208 133.54 243.296 134.23 243.474 134.799C243.651 135.366 243.906 135.799 244.238 136.095C244.574 136.392 244.977 136.539 245.448 136.539ZM253.803 137.548C253.088 137.548 252.478 137.36 251.975 136.984C251.472 136.605 251.088 136.057 250.822 135.339C250.556 134.618 250.423 133.748 250.423 132.727C250.423 131.713 250.556 130.847 250.822 130.129C251.091 129.408 251.477 128.859 251.98 128.479C252.486 128.098 253.094 127.907 253.803 127.907C254.512 127.907 255.117 128.098 255.621 128.479C256.127 128.859 256.513 129.408 256.779 130.129C257.048 130.847 257.183 131.713 257.183 132.727C257.183 133.748 257.05 134.618 256.784 135.339C256.518 136.057 256.133 136.605 255.63 136.984C255.127 137.36 254.518 137.548 253.803 137.548ZM253.803 136.539C254.512 136.539 255.062 136.21 255.455 135.55C255.847 134.89 256.043 133.949 256.043 132.727C256.043 131.915 255.953 131.223 255.772 130.652C255.595 130.081 255.339 129.645 255.004 129.346C254.672 129.046 254.271 128.897 253.803 128.897C253.1 128.897 252.551 129.231 252.156 129.9C251.76 130.566 251.562 131.508 251.562 132.727C251.562 133.54 251.651 134.23 251.828 134.799C252.006 135.366 252.26 135.799 252.592 136.095C252.928 136.392 253.332 136.539 253.803 136.539Z" fill="black"/>
<path d="M259.317 154.839H6.68342C2.99227 154.839 0 157.727 0 161.29V193.548C0 197.111 2.99227 200 6.68342 200H259.317C263.008 200 266 197.111 266 193.548V161.29C266 157.727 263.008 154.839 259.317 154.839Z" fill="#F3F3F0"/>
<path d="M53.2698 176.129C53.1654 175.821 53.0278 175.544 52.8569 175.299C52.6892 175.052 52.4882 174.841 52.2541 174.667C52.023 174.493 51.7604 174.361 51.4661 174.268C51.1718 174.177 50.849 174.131 50.4978 174.131C49.9218 174.131 49.3981 174.275 48.9266 174.562C48.4551 174.849 48.0801 175.272 47.8016 175.831C47.5232 176.39 47.3839 177.076 47.3839 177.888C47.3839 178.701 47.5247 179.387 47.8063 179.946C48.088 180.505 48.4693 180.928 48.9503 181.215C49.4313 181.503 49.9724 181.646 50.5737 181.646C51.1307 181.646 51.6212 181.532 52.0452 181.302C52.4724 181.07 52.8047 180.743 53.042 180.322C53.2825 179.897 53.4028 179.397 53.4028 178.823L53.7635 178.897H50.8395V177.888H54.542V178.897C54.542 179.67 54.3711 180.341 54.0293 180.913C53.6908 181.484 53.2224 181.927 52.6243 182.241C52.0294 182.553 51.3459 182.709 50.5737 182.709C49.713 182.709 48.9566 182.514 48.3048 182.123C47.656 181.732 47.1497 181.175 46.7858 180.455C46.4251 179.734 46.2447 178.878 46.2447 177.888C46.2447 177.146 46.3475 176.479 46.5532 175.886C46.7621 175.29 47.0564 174.783 47.4361 174.365C47.8158 173.946 48.2652 173.626 48.7842 173.403C49.3032 173.18 49.8744 173.068 50.4978 173.068C51.0104 173.068 51.4882 173.143 51.9313 173.293C52.3775 173.439 52.7746 173.648 53.1227 173.921C53.4739 174.189 53.7667 174.512 54.0009 174.887C54.2351 175.26 54.3965 175.674 54.485 176.129H53.2698ZM59.4632 182.727C58.7607 182.727 58.1547 182.577 57.6452 182.278C57.1389 181.975 56.748 181.554 56.4727 181.014C56.2006 180.47 56.0645 179.837 56.0645 179.117C56.0645 178.395 56.2006 177.76 56.4727 177.21C56.748 176.657 57.131 176.227 57.6215 175.918C58.1151 175.606 58.691 175.451 59.3493 175.451C59.729 175.451 60.104 175.512 60.4742 175.634C60.8445 175.756 61.1815 175.955 61.4853 176.23C61.7891 176.502 62.0312 176.862 62.2116 177.311C62.3919 177.76 62.4821 178.313 62.4821 178.97V179.428H56.862V178.494H61.3429C61.3429 178.096 61.2606 177.742 61.096 177.43C60.9346 177.119 60.7037 176.873 60.403 176.693C60.1056 176.512 59.7543 176.423 59.3493 176.423C58.9031 176.423 58.517 176.529 58.191 176.743C57.8683 176.954 57.6199 177.229 57.4458 177.568C57.2718 177.907 57.1847 178.27 57.1847 178.658V179.281C57.1847 179.813 57.2797 180.264 57.4696 180.634C57.6626 181 57.93 181.279 58.2718 181.472C58.6135 181.661 59.0107 181.756 59.4632 181.756C59.7575 181.756 60.0233 181.716 60.2606 181.637C60.5012 181.554 60.7084 181.432 60.8824 181.27C61.0565 181.105 61.191 180.901 61.2859 180.656L62.3682 180.95C62.2543 181.304 62.0628 181.615 61.7939 181.884C61.5249 182.15 61.1926 182.357 60.797 182.507C60.4014 182.654 59.9569 182.727 59.4632 182.727ZM65.3064 178.347V182.581H64.1862V175.543H65.2684V176.642H65.3634C65.5342 176.284 65.7938 175.997 66.1418 175.781C66.49 175.561 66.9391 175.451 67.4898 175.451C67.9837 175.451 68.4155 175.548 68.7857 175.744C69.156 175.937 69.444 176.23 69.6499 176.624C69.8551 177.015 69.958 177.51 69.958 178.108V182.581H68.8378V178.182C68.8378 177.629 68.6895 177.198 68.3921 176.89C68.0947 176.578 67.6863 176.423 67.167 176.423C66.8096 176.423 66.49 176.497 66.2083 176.647C65.9298 176.797 65.7099 177.015 65.5485 177.302C65.3871 177.589 65.3064 177.937 65.3064 178.347ZM75.0621 182.727C74.3597 182.727 73.7535 182.577 73.2442 182.278C72.7376 181.975 72.3473 181.554 72.072 181.014C71.7993 180.47 71.6636 179.837 71.6636 179.117C71.6636 178.395 71.7993 177.76 72.072 177.21C72.3473 176.657 72.7296 176.227 73.2202 175.918C73.7141 175.606 74.2902 175.451 74.9485 175.451C75.3281 175.451 75.7031 175.512 76.0733 175.634C76.4436 175.756 76.7804 175.955 77.0845 176.23C77.3879 176.502 77.6299 176.862 77.8103 177.311C77.9908 177.76 78.081 178.313 78.081 178.97V179.428H72.4609V178.494H76.9422C76.9422 178.096 76.8593 177.742 76.6949 177.43C76.5338 177.119 76.3026 176.873 76.0018 176.693C75.7044 176.512 75.3535 176.423 74.9485 176.423C74.502 176.423 74.1157 176.529 73.7903 176.743C73.4674 176.954 73.2188 177.229 73.0451 177.568C72.8706 177.907 72.7837 178.27 72.7837 178.658V179.281C72.7837 179.813 72.8786 180.264 73.0685 180.634C73.2616 181 73.5289 181.279 73.8705 181.472C74.2127 181.661 74.6096 181.756 75.0621 181.756C75.3562 181.756 75.6222 181.716 75.8594 181.637C76.1 181.554 76.3072 181.432 76.4817 181.27C76.6554 181.105 76.7898 180.901 76.8847 180.656L77.9674 180.95C77.8531 181.304 77.662 181.615 77.3926 181.884C77.1239 182.15 76.7918 182.357 76.3961 182.507C76.0005 182.654 75.556 182.727 75.0621 182.727ZM79.7853 182.581V175.543H80.8673V176.606H80.9435C81.0765 176.257 81.3171 175.975 81.6647 175.758C82.0129 175.541 82.4052 175.432 82.8423 175.432C82.9245 175.432 83.0274 175.434 83.1504 175.437C83.274 175.44 83.3676 175.444 83.4304 175.451V176.55C83.393 176.541 83.3054 176.528 83.1698 176.509C83.0368 176.488 82.8957 176.477 82.7474 176.477C82.3925 176.477 82.0764 176.549 81.7977 176.693C81.5223 176.833 81.3044 177.028 81.1427 177.279C80.9843 177.526 80.9054 177.809 80.9054 178.127V182.581H79.7853ZM86.9038 182.746C86.442 182.746 86.0229 182.661 85.646 182.494C85.2697 182.323 84.9703 182.077 84.7491 181.756C84.5278 181.432 84.4169 181.041 84.4169 180.583C84.4169 180.179 84.4991 179.853 84.6635 179.603C84.8279 179.349 85.0478 179.15 85.3232 179.006C85.5985 178.863 85.9026 178.756 86.2348 178.686C86.5703 178.612 86.9071 178.554 87.246 178.512C87.6891 178.457 88.048 178.415 88.3233 178.388C88.602 178.357 88.8046 178.307 88.9309 178.237C89.0605 178.166 89.1254 178.044 89.1254 177.87V177.834C89.1254 177.381 88.9977 177.03 88.7411 176.78C88.4878 176.529 88.1035 176.404 87.5875 176.404C87.0528 176.404 86.6338 176.517 86.3297 176.743C86.0263 176.969 85.8124 177.21 85.6887 177.467L84.6254 177.101C84.8152 176.673 85.0685 176.34 85.3853 176.101C85.7048 175.86 86.053 175.692 86.4293 175.597C86.8089 175.5 87.1825 175.451 87.5494 175.451C87.784 175.451 88.0527 175.478 88.3568 175.534C88.6635 175.585 88.9596 175.694 89.2443 175.859C89.5324 176.024 89.771 176.273 89.9608 176.606C90.1506 176.939 90.2455 177.384 90.2455 177.943V182.581H89.1254V181.628H89.0686C88.9924 181.78 88.866 181.944 88.6889 182.118C88.5118 182.292 88.2759 182.44 87.9818 182.563C87.6871 182.684 87.3282 182.746 86.9038 182.746ZM87.0749 181.774C87.518 181.774 87.8916 181.69 88.195 181.522C88.5025 181.354 88.733 181.137 88.8881 180.872C89.0465 180.606 89.1254 180.326 89.1254 180.033V179.043C89.0779 179.098 88.9736 179.148 88.8126 179.194C88.6542 179.237 88.4704 179.275 88.2619 179.309C88.056 179.339 87.8548 179.367 87.659 179.392C87.4659 179.413 87.3095 179.431 87.1892 179.446C86.8978 179.483 86.6258 179.543 86.3725 179.625C86.1225 179.704 85.92 179.825 85.7649 179.987C85.6132 180.146 85.537 180.363 85.537 180.638C85.537 181.014 85.6807 181.297 85.9688 181.49C86.2602 181.679 86.6291 181.774 87.0749 181.774ZM93.4108 173.197V182.581H92.2906V173.197H93.4108ZM104.69 175.543C104.633 175.078 104.402 174.717 103.997 174.461C103.592 174.204 103.095 174.076 102.507 174.076C102.076 174.076 101.7 174.143 101.377 174.278C101.057 174.412 100.807 174.597 100.627 174.832C100.45 175.068 100.361 175.335 100.361 175.634C100.361 175.884 100.423 176.1 100.546 176.28C100.673 176.457 100.834 176.606 101.031 176.724C101.226 176.841 101.432 176.937 101.647 177.014C101.863 177.086 102.06 177.146 102.241 177.192L103.228 177.448C103.481 177.513 103.763 177.601 104.073 177.714C104.386 177.828 104.686 177.982 104.97 178.177C105.258 178.37 105.496 178.617 105.682 178.919C105.869 179.222 105.962 179.593 105.962 180.033C105.962 180.54 105.825 180.998 105.549 181.408C105.277 181.817 104.878 182.143 104.353 182.384C103.831 182.625 103.197 182.746 102.449 182.746C101.754 182.746 101.151 182.637 100.641 182.42C100.135 182.203 99.736 181.901 99.4452 181.513C99.1572 181.125 98.9941 180.674 98.956 180.161H100.171C100.203 180.515 100.326 180.809 100.541 181.041C100.76 181.27 101.035 181.441 101.367 181.554C101.703 181.664 102.064 181.719 102.449 181.719C102.899 181.719 103.302 181.649 103.66 181.508C104.018 181.365 104.301 181.166 104.51 180.913C104.718 180.656 104.823 180.357 104.823 180.015C104.823 179.703 104.733 179.45 104.553 179.254C104.372 179.059 104.135 178.9 103.84 178.777C103.546 178.655 103.228 178.548 102.887 178.457L101.69 178.127C100.931 177.916 100.329 177.615 99.8863 177.224C99.4432 176.833 99.222 176.321 99.222 175.689C99.222 175.164 99.369 174.706 99.6631 174.315C99.9605 173.921 100.36 173.615 100.859 173.398C101.363 173.178 101.924 173.068 102.544 173.068C103.171 173.068 103.728 173.177 104.215 173.394C104.703 173.607 105.089 173.901 105.373 174.274C105.661 174.646 105.814 175.069 105.829 175.543H104.69ZM110.917 175.543V176.459H107.139V175.543H110.917ZM108.239 173.856H109.36V180.564C109.36 180.87 109.406 181.099 109.498 181.252C109.593 181.401 109.712 181.503 109.858 181.554C110.007 181.603 110.163 181.628 110.328 181.628C110.451 181.628 110.553 181.621 110.632 181.609C110.711 181.594 110.774 181.582 110.822 181.573L111.05 182.544C110.973 182.572 110.868 182.599 110.732 182.626C110.596 182.657 110.423 182.672 110.214 182.672C109.897 182.672 109.587 182.606 109.284 182.475C108.983 182.344 108.733 182.144 108.534 181.875C108.338 181.606 108.239 181.267 108.239 180.858V173.856ZM115.485 182.727C114.827 182.727 114.25 182.576 113.753 182.274C113.259 181.971 112.873 181.548 112.595 181.004C112.319 180.461 112.182 179.825 112.182 179.098C112.182 178.365 112.319 177.725 112.595 177.178C112.873 176.632 113.259 176.207 113.753 175.904C114.25 175.602 114.827 175.451 115.485 175.451C116.144 175.451 116.72 175.602 117.213 175.904C117.71 176.207 118.096 176.632 118.371 177.178C118.65 177.725 118.789 178.365 118.789 179.098C118.789 179.825 118.65 180.461 118.371 181.004C118.096 181.548 117.71 181.971 117.213 182.274C116.72 182.576 116.144 182.727 115.485 182.727ZM115.485 181.756C115.985 181.756 116.397 181.632 116.72 181.384C117.043 181.137 117.281 180.812 117.436 180.409C117.591 180.006 117.669 179.568 117.669 179.098C117.669 178.628 117.591 178.19 117.436 177.783C117.281 177.377 117.043 177.048 116.72 176.798C116.397 176.548 115.985 176.423 115.485 176.423C114.986 176.423 114.574 176.548 114.251 176.798C113.928 177.048 113.69 177.377 113.535 177.783C113.379 178.19 113.302 178.628 113.302 179.098C113.302 179.568 113.379 180.006 113.535 180.409C113.69 180.812 113.928 181.137 114.251 181.384C114.574 181.632 114.986 181.756 115.485 181.756ZM120.499 182.581V175.543H121.581V176.606H121.658C121.791 176.257 122.03 175.975 122.379 175.758C122.727 175.541 123.119 175.432 123.556 175.432C123.639 175.432 123.741 175.434 123.864 175.437C123.988 175.44 124.082 175.444 124.144 175.451V176.55C124.107 176.541 124.019 176.528 123.884 176.509C123.751 176.488 123.61 176.477 123.461 176.477C123.107 176.477 122.79 176.549 122.512 176.693C122.236 176.833 122.018 177.028 121.857 177.279C121.698 177.526 121.619 177.809 121.619 178.127V182.581H120.499ZM128.308 182.727C127.605 182.727 126.999 182.577 126.49 182.278C125.983 181.975 125.593 181.554 125.317 181.014C125.045 180.47 124.909 179.837 124.909 179.117C124.909 178.395 125.045 177.76 125.317 177.21C125.593 176.657 125.975 176.227 126.466 175.918C126.96 175.606 127.536 175.451 128.194 175.451C128.574 175.451 128.949 175.512 129.319 175.634C129.689 175.756 130.026 175.955 130.33 176.23C130.633 176.502 130.875 176.862 131.056 177.311C131.236 177.76 131.326 178.313 131.326 178.97V179.428H125.706V178.494H130.188C130.188 178.096 130.105 177.742 129.94 177.43C129.779 177.119 129.548 176.873 129.247 176.693C128.95 176.512 128.599 176.423 128.194 176.423C127.747 176.423 127.361 176.529 127.036 176.743C126.713 176.954 126.464 177.229 126.291 177.568C126.116 177.907 126.029 178.27 126.029 178.658V179.281C126.029 179.813 126.124 180.264 126.314 180.634C126.507 181 126.774 181.279 127.116 181.472C127.458 181.661 127.855 181.756 128.308 181.756C128.602 181.756 128.868 181.716 129.105 181.637C129.345 181.554 129.553 181.432 129.727 181.27C129.901 181.105 130.035 180.901 130.13 180.656L131.213 180.95C131.099 181.304 130.907 181.615 130.638 181.884C130.369 182.15 130.037 182.357 129.642 182.507C129.246 182.654 128.801 182.727 128.308 182.727Z" fill="black"/>
<path d="M32.0804 162.581H14.7035C11.0124 162.581 8.02011 165.469 8.02011 169.032V185.806C8.02011 189.37 11.0124 192.258 14.7035 192.258H32.0804C35.7716 192.258 38.7638 189.37 38.7638 185.806V169.032C38.7638 165.469 35.7716 162.581 32.0804 162.581Z" fill="#CCFFE3"/>
<path d="M15.4203 169.677C15.2302 169.677 15.0479 169.75 14.9134 169.88C14.779 170.01 14.7035 170.186 14.7035 170.369C14.7035 170.553 14.779 170.729 14.9134 170.859C15.0479 170.988 15.2302 171.061 15.4203 171.061H16.6962C16.8003 171.061 16.9018 171.093 16.9863 171.152C17.0709 171.211 17.134 171.294 17.1671 171.389L19.5303 178.234C19.6356 178.539 19.6485 178.865 19.5682 179.177L19.374 179.929C19.088 181.032 19.9775 182.132 21.1545 182.132H29.7558C29.9459 182.132 30.1282 182.059 30.2626 181.929C30.397 181.799 30.4725 181.623 30.4725 181.44C30.4725 181.256 30.397 181.081 30.2626 180.951C30.1282 180.821 29.9459 180.748 29.7558 180.748H21.1545C20.8749 180.748 20.6957 180.526 20.7638 180.266L20.9107 179.7C20.9355 179.604 20.9927 179.519 21.0732 179.458C21.1537 179.397 21.2529 179.365 21.3552 179.365H29.039C29.1896 179.365 29.3365 179.319 29.4587 179.234C29.5809 179.149 29.6723 179.029 29.7199 178.891L31.6301 173.355C31.666 173.252 31.6758 173.141 31.6586 173.032C31.6414 172.924 31.5979 172.821 31.5314 172.732C31.465 172.643 31.3776 172.571 31.2765 172.521C31.1754 172.471 31.0635 172.445 30.9499 172.445H19.402C19.2976 172.445 19.196 172.414 19.1114 172.354C19.0268 172.295 18.9634 172.213 18.9303 172.117L18.2508 170.151C18.2033 170.013 18.112 169.893 17.9899 169.808C17.8678 169.723 17.7211 169.677 17.5706 169.677H15.4203ZM20.4377 182.824C20.0575 182.824 19.6929 182.97 19.424 183.229C19.1552 183.488 19.0042 183.841 19.0042 184.208C19.0042 184.575 19.1552 184.926 19.424 185.186C19.6929 185.446 20.0575 185.592 20.4377 185.592C20.8179 185.592 21.1826 185.446 21.4514 185.186C21.7202 184.926 21.8712 184.575 21.8712 184.208C21.8712 183.841 21.7202 183.488 21.4514 183.229C21.1826 182.97 20.8179 182.824 20.4377 182.824ZM29.039 182.824C28.6588 182.824 28.2942 182.97 28.0253 183.229C27.7564 183.488 27.6055 183.841 27.6055 184.208C27.6055 184.575 27.7564 184.926 28.0253 185.186C28.2942 185.446 28.6588 185.592 29.039 185.592C29.4192 185.592 29.7838 185.446 30.0527 185.186C30.3215 184.926 30.4725 184.575 30.4725 184.208C30.4725 183.841 30.3215 183.488 30.0527 183.229C29.7838 182.97 29.4192 182.824 29.039 182.824Z" fill="#4FD3A0"/>
<path d="M221.849 171.613V171.236L223.755 169.169C224.003 168.897 224.204 168.666 224.356 168.474C224.508 168.281 224.618 168.103 224.686 167.94C224.757 167.777 224.791 167.607 224.791 167.431C224.791 167.217 224.739 167.03 224.635 166.87C224.533 166.709 224.391 166.584 224.211 166.494C224.03 166.404 223.827 166.359 223.601 166.359C223.362 166.359 223.152 166.408 222.972 166.508C222.793 166.606 222.655 166.742 222.556 166.914C222.457 167.086 222.408 167.284 222.408 167.508H221.898C221.898 167.197 221.972 166.921 222.12 166.681C222.27 166.439 222.474 166.249 222.732 166.112C222.993 165.974 223.287 165.905 223.615 165.905C223.94 165.905 224.229 165.974 224.481 166.109C224.734 166.243 224.932 166.425 225.076 166.656C225.22 166.887 225.293 167.145 225.293 167.431C225.293 167.638 225.255 167.839 225.179 168.034C225.105 168.228 224.977 168.444 224.795 168.682C224.612 168.921 224.36 169.212 224.037 169.556L222.59 171.115V171.151H225.475V171.613H221.849ZM226.745 171.613V171.236L228.65 169.169C228.899 168.897 229.099 168.666 229.251 168.474C229.403 168.281 229.513 168.103 229.581 167.94C229.652 167.777 229.687 167.607 229.687 167.431C229.687 167.217 229.634 167.03 229.53 166.87C229.428 166.709 229.286 166.584 229.106 166.494C228.925 166.404 228.722 166.359 228.496 166.359C228.257 166.359 228.047 166.408 227.867 166.508C227.688 166.606 227.55 166.742 227.451 166.914C227.352 167.086 227.303 167.284 227.303 167.508H226.793C226.793 167.197 226.867 166.921 227.015 166.681C227.165 166.439 227.369 166.249 227.628 166.112C227.888 165.974 228.182 165.905 228.511 165.905C228.835 165.905 229.124 165.974 229.376 166.109C229.629 166.243 229.827 166.425 229.972 166.656C230.116 166.887 230.188 167.145 230.188 167.431C230.188 167.638 230.15 167.839 230.074 168.034C230 168.228 229.872 168.444 229.69 168.682C229.507 168.921 229.255 169.212 228.932 169.556L227.485 171.115V171.151H230.37V171.613H226.745ZM234.029 171.613H233.471L235.593 165.983H236.163L238.285 171.613H237.726L235.898 166.65H235.858L234.029 171.613ZM234.431 169.455H237.324V169.917H234.431V169.455ZM241.958 169.999V167.39H242.465V171.613H241.958V170.912H241.918C241.816 171.128 241.654 171.308 241.431 171.454C241.209 171.596 240.938 171.668 240.617 171.668C240.338 171.668 240.09 171.609 239.873 171.492C239.657 171.373 239.487 171.199 239.364 170.97C239.24 170.741 239.179 170.459 239.179 170.126V167.39H239.685V170.095C239.685 170.425 239.786 170.691 239.987 170.893C240.189 171.092 240.447 171.192 240.762 171.192C240.959 171.192 241.149 171.146 241.332 171.055C241.514 170.963 241.664 170.83 241.781 170.654C241.9 170.475 241.958 170.257 241.958 169.999ZM245.477 173.284C245.178 173.284 244.917 173.247 244.693 173.172C244.469 173.099 244.28 172.997 244.127 172.869C243.973 172.741 243.853 172.597 243.768 172.437L244.183 172.174C244.246 172.28 244.33 172.385 244.434 172.487C244.54 172.59 244.678 172.675 244.847 172.743C245.017 172.811 245.227 172.844 245.477 172.844C245.864 172.844 246.176 172.751 246.414 172.564C246.652 172.377 246.772 172.086 246.772 171.693V170.741H246.726C246.668 170.87 246.583 170.998 246.473 171.126C246.363 171.253 246.218 171.358 246.04 171.443C245.864 171.526 245.644 171.569 245.382 171.569C245.033 171.569 244.723 171.486 244.451 171.319C244.181 171.152 243.969 170.914 243.813 170.604C243.659 170.292 243.583 169.921 243.583 169.49C243.583 169.063 243.657 168.688 243.807 168.363C243.959 168.039 244.171 167.786 244.443 167.604C244.714 167.423 245.03 167.332 245.391 167.332C245.658 167.332 245.881 167.378 246.057 167.47C246.234 167.559 246.375 167.672 246.482 167.805C246.59 167.939 246.674 168.069 246.735 168.195H246.787V167.39H247.282V171.723C247.282 172.08 247.203 172.374 247.046 172.605C246.888 172.836 246.674 173.007 246.402 173.117C246.13 173.228 245.822 173.284 245.477 173.284ZM245.442 171.121C245.723 171.121 245.963 171.055 246.163 170.926C246.362 170.794 246.515 170.605 246.621 170.359C246.728 170.114 246.781 169.821 246.781 169.482C246.781 169.152 246.728 168.86 246.624 168.605C246.52 168.348 246.367 168.147 246.168 168.001C245.971 167.852 245.729 167.777 245.442 167.777C245.15 167.777 244.903 167.854 244.701 168.006C244.5 168.158 244.348 168.363 244.246 168.622C244.143 168.878 244.092 169.165 244.092 169.482C244.092 169.804 244.145 170.09 244.249 170.337C244.353 170.583 244.506 170.775 244.707 170.915C244.908 171.052 245.154 171.121 245.442 171.121Z" fill="#7C7C7C"/>
<path d="M257.547 166.452C257.662 166.452 257.771 166.496 257.853 166.574C257.934 166.653 257.979 166.759 257.98 166.87V172.441C257.98 172.552 257.934 172.658 257.853 172.737C257.772 172.815 257.662 172.859 257.547 172.859C257.433 172.859 257.322 172.815 257.241 172.737C257.16 172.658 257.114 172.552 257.114 172.441V167.879L252.024 172.791C251.942 172.865 251.834 172.905 251.722 172.903C251.609 172.901 251.502 172.857 251.424 172.781C251.344 172.705 251.299 172.601 251.297 172.493C251.295 172.385 251.336 172.28 251.413 172.201L256.502 167.287H251.775C251.66 167.287 251.55 167.243 251.469 167.165C251.388 167.086 251.342 166.98 251.342 166.87C251.342 166.759 251.388 166.652 251.469 166.574C251.55 166.495 251.66 166.452 251.775 166.452H257.547Z" fill="#7C7C7C"/>
<path d="M243.048 181.866L242.725 182.929H236.574L236.896 181.866H243.048ZM240.162 189.032L236.687 184.926L236.669 184.157H238.396C238.845 184.157 239.228 184.095 239.545 183.974C239.861 183.848 240.103 183.662 240.271 183.415C240.439 183.164 240.523 182.85 240.523 182.471C240.523 181.912 240.348 181.474 240 181.155C239.653 180.835 239.117 180.674 238.396 180.674H236.574L236.896 179.648H238.396C239.168 179.648 239.801 179.772 240.295 180.019C240.792 180.264 241.158 180.599 241.396 181.027C241.636 181.452 241.757 181.933 241.757 182.471C241.757 182.956 241.646 183.404 241.424 183.814C241.206 184.219 240.855 184.546 240.37 184.794C239.89 185.041 239.254 185.165 238.462 185.165H238.434L241.643 188.959V189.032H240.162ZM243.048 179.648L242.725 180.711L237.884 180.674L238.206 179.648H243.048ZM247.836 179.648V189.032H246.659V180.839H246.602L244.229 182.361V181.206L246.659 179.648H247.836ZM253.803 189.161C253.088 189.161 252.478 188.973 251.976 188.597C251.472 188.218 251.088 187.67 250.822 186.952C250.556 186.231 250.423 185.361 250.423 184.34C250.423 183.326 250.556 182.46 250.822 181.742C251.091 181.021 251.477 180.472 251.98 180.092C252.486 179.711 253.094 179.52 253.803 179.52C254.512 179.52 255.117 179.711 255.621 180.092C256.127 180.472 256.513 181.021 256.779 181.742C257.048 182.46 257.183 183.326 257.183 184.34C257.183 185.361 257.05 186.231 256.784 186.952C256.518 187.67 256.133 188.218 255.63 188.597C255.127 188.973 254.518 189.161 253.803 189.161ZM253.803 188.152C254.512 188.152 255.062 187.823 255.455 187.163C255.847 186.503 256.043 185.562 256.043 184.34C256.043 183.528 255.953 182.836 255.772 182.265C255.595 181.694 255.339 181.258 255.004 180.959C254.672 180.659 254.271 180.51 253.803 180.51C253.1 180.51 252.551 180.844 252.156 181.513C251.76 182.179 251.563 183.121 251.563 184.34C251.563 185.153 251.651 185.843 251.828 186.412C252.006 186.979 252.26 187.412 252.592 187.708C252.928 188.005 253.332 188.152 253.803 188.152Z" fill="black"/>
</g>
<defs>
<clipPath id="clip0_1232_8122">
<rect width="266" height="200" fill="white"/>
</clipPath>
</defs>
</svg>
