<svg width="177" height="70" viewBox="0 0 177 70" fill="none" xmlns="http://www.w3.org/2000/svg">
<path d="M1.32741 42.1846V26.9118H11.6186V29.5741H4.55646V33.2133H11.0891V35.8756H4.55646V39.5223H11.6484V42.1846H1.32741ZM16.781 30.73L18.884 34.7346L21.0392 30.73H24.298L20.9795 36.4573L24.3875 42.1846H21.1436L18.884 38.2247L16.6617 42.1846H13.3804L16.781 36.4573L13.4997 30.73H16.781ZM26.1847 46.48V30.73H29.3169V32.654H29.4585C29.5977 32.3458 29.7991 32.0326 30.0626 31.7144C30.3311 31.3912 30.6791 31.1228 31.1066 30.909C31.5392 30.6903 32.0761 30.5809 32.7174 30.5809C33.5526 30.5809 34.3232 30.7996 35.0292 31.2371C35.7352 31.6697 36.2994 32.3234 36.722 33.1984C37.1446 34.0684 37.3559 35.1597 37.3559 36.4722C37.3559 37.7499 37.1496 38.8287 36.7369 39.7087C36.3293 40.5837 35.7725 41.2474 35.0665 41.6998C34.3655 42.1473 33.58 42.371 32.71 42.371C32.0935 42.371 31.569 42.2691 31.1365 42.0653C30.7089 41.8614 30.3584 41.6054 30.085 41.2971C29.8115 40.9839 29.6027 40.6682 29.4585 40.3501H29.3616V46.48H26.1847ZM29.2945 36.4573C29.2945 37.1384 29.3889 37.7325 29.5779 38.2396C29.7668 38.7467 30.0402 39.142 30.3982 39.4253C30.7561 39.7037 31.1911 39.843 31.7032 39.843C32.2203 39.843 32.6578 39.7013 33.0157 39.4179C33.3737 39.1295 33.6446 38.7318 33.8286 38.2247C34.0175 37.7126 34.1119 37.1235 34.1119 36.4573C34.1119 35.7961 34.02 35.2144 33.836 34.7123C33.6521 34.2101 33.3811 33.8174 33.0232 33.534C32.6652 33.2506 32.2252 33.1089 31.7032 33.1089C31.1862 33.1089 30.7487 33.2456 30.3907 33.5191C30.0377 33.7925 29.7668 34.1803 29.5779 34.6824C29.3889 35.1846 29.2945 35.7762 29.2945 36.4573ZM42.7401 42.4008C42.0093 42.4008 41.358 42.2741 40.7863 42.0205C40.2146 41.762 39.7622 41.3817 39.4291 40.8795C39.1009 40.3724 38.9369 39.741 38.9369 38.9854C38.9369 38.349 39.0537 37.8145 39.2874 37.382C39.521 36.9495 39.8392 36.6015 40.2419 36.338C40.6446 36.0745 41.102 35.8756 41.6141 35.7414C42.1311 35.6072 42.673 35.5127 43.2398 35.458C43.906 35.3884 44.4429 35.3238 44.8506 35.2641C45.2583 35.1995 45.5541 35.105 45.738 34.9807C45.922 34.8564 46.0139 34.6725 46.0139 34.4289V34.3841C46.0139 33.9118 45.8648 33.5464 45.5665 33.2879C45.2732 33.0294 44.8556 32.9001 44.3137 32.9001C43.7419 32.9001 43.287 33.0269 42.949 33.2805C42.6109 33.529 42.3872 33.8422 42.2778 34.2201L39.3396 33.9814C39.4887 33.2854 39.782 32.6839 40.2195 32.1768C40.657 31.6647 41.2213 31.2719 41.9124 30.9985C42.6084 30.7201 43.4138 30.5809 44.3286 30.5809C44.9649 30.5809 45.574 30.6555 46.1556 30.8046C46.7423 30.9537 47.2618 31.1849 47.7142 31.4981C48.1716 31.8113 48.532 32.214 48.7955 32.7062C49.059 33.1934 49.1908 33.7776 49.1908 34.4587V42.1846H46.178V40.5961H46.0885C45.9046 40.9541 45.6585 41.2698 45.3502 41.5432C45.042 41.8117 44.6716 42.023 44.2391 42.1771C43.8066 42.3263 43.3069 42.4008 42.7401 42.4008ZM43.6499 40.2084C44.1173 40.2084 44.5299 40.1164 44.8879 39.9324C45.2458 39.7435 45.5267 39.49 45.7306 39.1718C45.9344 38.8536 46.0363 38.4932 46.0363 38.0905V36.8749C45.9369 36.9395 45.8002 36.9992 45.6262 37.0539C45.4571 37.1036 45.2657 37.1508 45.0519 37.1956C44.8382 37.2354 44.6244 37.2726 44.4106 37.3074C44.1968 37.3373 44.0029 37.3646 43.8289 37.3895C43.4561 37.4442 43.1304 37.5312 42.852 37.6505C42.5736 37.7698 42.3573 37.9314 42.2032 38.1352C42.0491 38.3341 41.972 38.5827 41.972 38.8809C41.972 39.3135 42.1286 39.6441 42.4419 39.8728C42.76 40.0965 43.1627 40.2084 43.6499 40.2084ZM54.8323 35.5624V42.1846H51.6555V30.73H54.6832V32.751H54.8174C55.0709 32.0848 55.496 31.5578 56.0926 31.17C56.6892 30.7773 57.4126 30.5809 58.2627 30.5809C59.0581 30.5809 59.7517 30.7549 60.3433 31.1029C60.9349 31.4509 61.3948 31.9481 61.7229 32.5944C62.051 33.2357 62.2151 34.0013 62.2151 34.8912V42.1846H59.0383V35.458C59.0432 34.757 58.8643 34.2101 58.5013 33.8174C58.1384 33.4197 57.6388 33.2208 57.0024 33.2208C56.5748 33.2208 56.197 33.3128 55.8689 33.4967C55.5457 33.6807 55.2922 33.9491 55.1082 34.3021C54.9292 34.6501 54.8373 35.0702 54.8323 35.5624ZM74.2495 33.9964L71.3411 34.1753C71.2914 33.9268 71.1845 33.703 71.0204 33.5042C70.8564 33.3003 70.6401 33.1388 70.3716 33.0194C70.1081 32.8952 69.7924 32.833 69.4245 32.833C68.9324 32.833 68.5172 32.9374 68.1792 33.1462C67.8411 33.3501 67.6721 33.6235 67.6721 33.9665C67.6721 34.24 67.7814 34.4711 68.0002 34.6601C68.2189 34.849 68.5943 35.0006 69.1262 35.115L71.1994 35.5326C72.313 35.7613 73.1433 36.1292 73.6902 36.6363C74.237 37.1434 74.5105 37.8096 74.5105 38.6349C74.5105 39.3856 74.2892 40.0443 73.8468 40.6111C73.4093 41.1778 72.8077 41.6203 72.0421 41.9385C71.2814 42.2517 70.4039 42.4083 69.4096 42.4083C67.8933 42.4083 66.6852 42.0926 65.7853 41.4612C64.8904 40.8248 64.3659 39.9598 64.2118 38.866L67.3365 38.702C67.4309 39.1643 67.6596 39.5173 68.0225 39.7609C68.3855 39.9996 68.8503 40.1189 69.4171 40.1189C69.9739 40.1189 70.4213 40.012 70.7594 39.7982C71.1025 39.5795 71.2765 39.2986 71.2814 38.9555C71.2765 38.6672 71.1547 38.431 70.916 38.2471C70.6774 38.0581 70.3095 37.914 69.8123 37.8145L67.8287 37.4193C66.71 37.1956 65.8773 36.8078 65.3304 36.2559C64.7885 35.7041 64.5176 35.0006 64.5176 34.1455C64.5176 33.4097 64.7164 32.7758 65.1142 32.2439C65.5169 31.7119 66.0811 31.3018 66.807 31.0134C67.5378 30.7251 68.3929 30.5809 69.3723 30.5809C70.8191 30.5809 71.9576 30.8866 72.7878 31.4981C73.623 32.1096 74.1103 32.9424 74.2495 33.9964ZM81.7311 42.4083C80.5528 42.4083 79.5386 42.1697 78.6885 41.6924C77.8433 41.2101 77.192 40.529 76.7346 39.6491C76.2773 38.7641 76.0486 37.7176 76.0486 36.5095C76.0486 35.3312 76.2773 34.2971 76.7346 33.4072C77.192 32.5173 77.8358 31.8238 78.6661 31.3266C79.5013 30.8295 80.4807 30.5809 81.6043 30.5809C82.36 30.5809 83.0635 30.7027 83.7148 30.9463C84.371 31.1849 84.9427 31.5454 85.43 32.0276C85.9221 32.5099 86.305 33.1164 86.5784 33.8472C86.8518 34.5731 86.9885 35.4232 86.9885 36.3976V37.2702H77.3163V35.3014H83.9981C83.9981 34.844 83.8987 34.4388 83.6998 34.0858C83.501 33.7329 83.2251 33.4569 82.8721 33.2581C82.5241 33.0542 82.1189 32.9523 81.6565 32.9523C81.1743 32.9523 80.7467 33.0642 80.3738 33.2879C80.0059 33.5067 79.7176 33.8025 79.5088 34.1753C79.3 34.5432 79.1931 34.9534 79.1881 35.4058V37.2776C79.1881 37.8444 79.2925 38.3341 79.5013 38.7467C79.7151 39.1594 80.0159 39.4775 80.4037 39.7013C80.7915 39.925 81.2513 40.0368 81.7833 40.0368C82.1363 40.0368 82.4594 39.9871 82.7528 39.8877C83.0461 39.7883 83.2971 39.6391 83.5059 39.4403C83.7148 39.2414 83.8738 38.9978 83.9832 38.7094L86.9214 38.9033C86.7723 39.6093 86.4665 40.2258 86.0042 40.7528C85.5468 41.2748 84.9552 41.6824 84.2293 41.9758C83.5084 42.2641 82.6757 42.4083 81.7311 42.4083ZM98.2604 29.5741V26.9118H110.804V29.5741H106.128V42.1846H102.936V29.5741H98.2604ZM111.62 42.1846V30.73H114.7V32.7286H114.82C115.028 32.0177 115.379 31.4807 115.871 31.1178C116.363 30.7499 116.93 30.566 117.571 30.566C117.73 30.566 117.902 30.5759 118.086 30.5958C118.27 30.6157 118.431 30.643 118.571 30.6778V33.4967C118.421 33.452 118.215 33.4122 117.952 33.3774C117.688 33.3426 117.447 33.3252 117.228 33.3252C116.761 33.3252 116.343 33.4271 115.975 33.6309C115.612 33.8298 115.324 34.1082 115.11 34.4662C114.902 34.8241 114.797 35.2368 114.797 35.7041V42.1846H111.62ZM123.151 42.4008C122.42 42.4008 121.769 42.2741 121.197 42.0205C120.626 41.762 120.173 41.3817 119.84 40.8795C119.512 40.3724 119.348 39.741 119.348 38.9854C119.348 38.349 119.465 37.8145 119.699 37.382C119.932 36.9495 120.25 36.6015 120.653 36.338C121.056 36.0745 121.513 35.8756 122.025 35.7414C122.542 35.6072 123.084 35.5127 123.651 35.458C124.317 35.3884 124.854 35.3238 125.262 35.2641C125.669 35.1995 125.965 35.105 126.149 34.9807C126.333 34.8564 126.425 34.6725 126.425 34.4289V34.3841C126.425 33.9118 126.276 33.5464 125.978 33.2879C125.684 33.0294 125.267 32.9001 124.725 32.9001C124.153 32.9001 123.698 33.0269 123.36 33.2805C123.022 33.529 122.798 33.8422 122.689 34.2201L119.751 33.9814C119.9 33.2854 120.193 32.6839 120.631 32.1768C121.068 31.6647 121.632 31.2719 122.324 30.9985C123.02 30.7201 123.825 30.5809 124.74 30.5809C125.376 30.5809 125.985 30.6555 126.567 30.8046C127.153 30.9537 127.673 31.1849 128.125 31.4981C128.583 31.8113 128.943 32.214 129.207 32.7062C129.47 33.1934 129.602 33.7776 129.602 34.4587V42.1846H126.589V40.5961H126.5C126.316 40.9541 126.07 41.2698 125.761 41.5432C125.453 41.8117 125.083 42.023 124.65 42.1771C124.218 42.3263 123.718 42.4008 123.151 42.4008ZM124.061 40.2084C124.528 40.2084 124.941 40.1164 125.299 39.9324C125.657 39.7435 125.938 39.49 126.142 39.1718C126.346 38.8536 126.447 38.4932 126.447 38.0905V36.8749C126.348 36.9395 126.211 36.9992 126.037 37.0539C125.868 37.1036 125.677 37.1508 125.463 37.1956C125.249 37.2354 125.036 37.2726 124.822 37.3074C124.608 37.3373 124.414 37.3646 124.24 37.3895C123.867 37.4442 123.542 37.5312 123.263 37.6505C122.985 37.7698 122.768 37.9314 122.614 38.1352C122.46 38.3341 122.383 38.5827 122.383 38.8809C122.383 39.3135 122.54 39.6441 122.853 39.8728C123.171 40.0965 123.574 40.2084 124.061 40.2084ZM137.242 42.4083C136.069 42.4083 135.059 42.1597 134.214 41.6626C133.374 41.1604 132.728 40.4644 132.275 39.5745C131.828 38.6846 131.604 37.6604 131.604 36.502C131.604 35.3287 131.83 34.2996 132.283 33.4147C132.74 32.5248 133.389 31.8312 134.229 31.3341C135.069 30.8319 136.069 30.5809 137.227 30.5809C138.226 30.5809 139.101 30.7623 139.852 31.1253C140.603 31.4882 141.197 31.9978 141.634 32.654C142.072 33.3103 142.313 34.0809 142.358 34.9658H139.36C139.275 34.3941 139.052 33.9342 138.689 33.5862C138.331 33.2332 137.861 33.0567 137.279 33.0567C136.787 33.0567 136.357 33.191 135.989 33.4594C135.626 33.7229 135.343 34.1082 135.139 34.6153C134.935 35.1224 134.833 35.7364 134.833 36.4573C134.833 37.1881 134.933 37.8096 135.132 38.3216C135.335 38.8337 135.621 39.224 135.989 39.4925C136.357 39.7609 136.787 39.8952 137.279 39.8952C137.642 39.8952 137.968 39.8206 138.256 39.6714C138.55 39.5223 138.791 39.306 138.98 39.0226C139.173 38.7343 139.3 38.3888 139.36 37.9861H142.358C142.308 38.8611 142.069 39.6317 141.642 40.2979C141.219 40.9591 140.635 41.4761 139.889 41.849C139.144 42.2219 138.261 42.4083 137.242 42.4083ZM147.27 38.8884L147.278 35.0777H147.74L151.409 30.73H155.056L150.127 36.4871H149.373L147.27 38.8884ZM144.392 42.1846V26.9118H147.569V42.1846H144.392ZM151.551 42.1846L148.18 37.1956L150.298 34.9509L155.272 42.1846H151.551ZM161.363 42.4083C160.185 42.4083 159.17 42.1697 158.32 41.6924C157.475 41.2101 156.824 40.529 156.366 39.6491C155.909 38.7641 155.68 37.7176 155.68 36.5095C155.68 35.3312 155.909 34.2971 156.366 33.4072C156.824 32.5173 157.468 31.8238 158.298 31.3266C159.133 30.8295 160.113 30.5809 161.236 30.5809C161.992 30.5809 162.695 30.7027 163.347 30.9463C164.003 31.1849 164.575 31.5454 165.062 32.0276C165.554 32.5099 165.937 33.1164 166.21 33.8472C166.484 34.5731 166.62 35.4232 166.62 36.3976V37.2702H156.948V35.3014H163.63C163.63 34.844 163.531 34.4388 163.332 34.0858C163.133 33.7329 162.857 33.4569 162.504 33.2581C162.156 33.0542 161.751 32.9523 161.288 32.9523C160.806 32.9523 160.379 33.0642 160.006 33.2879C159.638 33.5067 159.349 33.8025 159.141 34.1753C158.932 34.5432 158.825 34.9534 158.82 35.4058V37.2776C158.82 37.8444 158.924 38.3341 159.133 38.7467C159.347 39.1594 159.648 39.4775 160.036 39.7013C160.423 39.925 160.883 40.0368 161.415 40.0368C161.768 40.0368 162.091 39.9871 162.385 39.8877C162.678 39.7883 162.929 39.6391 163.138 39.4403C163.347 39.2414 163.506 38.9978 163.615 38.7094L166.553 38.9033C166.404 39.6093 166.098 40.2258 165.636 40.7528C165.179 41.2748 164.587 41.6824 163.861 41.9758C163.14 42.2641 162.308 42.4083 161.363 42.4083ZM168.694 42.1846V30.73H171.773V32.7286H171.893C172.102 32.0177 172.452 31.4807 172.944 31.1178C173.436 30.7499 174.003 30.566 174.645 30.566C174.804 30.566 174.975 30.5759 175.159 30.5958C175.343 30.6157 175.505 30.643 175.644 30.6778V33.4967C175.495 33.452 175.288 33.4122 175.025 33.3774C174.761 33.3426 174.52 33.3252 174.301 33.3252C173.834 33.3252 173.417 33.4271 173.049 33.6309C172.686 33.8298 172.397 34.1082 172.184 34.4662C171.975 34.8241 171.87 35.2368 171.87 35.7041V42.1846H168.694Z" fill="black"/>
<path d="M133.62 21.4634C134.428 20.8937 134.626 19.7722 134 19.0071C131.04 15.3896 127.117 12.6642 122.667 11.1578C117.651 9.45944 112.225 9.39799 107.172 10.9823C102.118 12.5666 97.6984 15.7148 94.5495 19.9729C91.4006 24.2311 89.6853 29.3792 89.6509 34.6751C89.6165 39.971 91.2648 45.141 94.3581 49.4397C97.4515 53.7384 101.83 56.9437 106.862 58.5935C111.895 60.2433 117.321 60.2523 122.359 58.6192C126.828 57.1707 130.786 54.4965 133.793 50.9177C134.428 50.1608 134.245 49.0368 133.445 48.4567V48.4567C132.644 47.8766 131.53 48.061 130.885 48.8103C128.331 51.7786 125.002 53.999 121.255 55.2137C116.939 56.6129 112.29 56.6051 107.978 55.1916C103.666 53.7781 99.9144 51.0318 97.264 47.3486C94.6136 43.6655 93.2014 39.2359 93.2308 34.6984C93.2603 30.1609 94.7299 25.7499 97.4279 22.1015C100.126 18.4531 103.913 15.7558 108.243 14.3984C112.572 13.0409 117.221 13.0936 121.519 14.5487C125.25 15.8119 128.55 18.0753 131.065 21.0766C131.701 21.8342 132.812 22.033 133.62 21.4634V21.4634Z" fill="#32917F"/>
</svg>
