<svg width="121" height="121" viewBox="0 0 121 121" fill="none" xmlns="http://www.w3.org/2000/svg">
<path d="M12.313 86.9624C12.3292 87.2959 12.2723 87.5887 12.1422 87.8571C12.0039 88.1255 11.8006 88.3289 11.524 88.4834L11.1499 87.7677C11.3776 87.6131 11.5322 87.4098 11.6054 87.1495C11.6786 86.8893 11.6298 86.5883 11.4508 86.2548C11.28 85.9376 11.0686 85.7262 10.8164 85.6204C10.5643 85.5147 10.304 85.531 10.0519 85.6692C9.85669 85.775 9.72655 85.9132 9.65335 86.084C9.58829 86.2548 9.56389 86.4419 9.58829 86.6371C9.61269 86.8323 9.65335 87.0845 9.72656 87.4017C9.81602 87.7839 9.87296 88.1093 9.88922 88.3614C9.90549 88.6135 9.85669 88.8575 9.74282 89.1015C9.62895 89.3455 9.40935 89.5489 9.09215 89.7197C8.80748 89.8661 8.52281 89.923 8.23001 89.8986C7.9372 89.8661 7.6688 89.7522 7.40853 89.557C7.15639 89.3618 6.93679 89.0934 6.76599 88.7599C6.51385 88.2801 6.42439 87.8165 6.50572 87.3854C6.58706 86.9543 6.81479 86.6127 7.19706 86.3606L7.58747 87.1007C7.4004 87.2308 7.28653 87.4261 7.22959 87.6863C7.17266 87.9466 7.2296 88.2313 7.38413 88.5322C7.53053 88.8169 7.72573 89.0039 7.9616 89.1097C8.19747 89.2154 8.44961 89.191 8.70988 89.0609C8.89695 88.9633 9.01895 88.8331 9.08401 88.6623C9.14908 88.4915 9.16535 88.3207 9.14908 88.1255C9.13282 87.9385 9.08402 87.6863 9.01895 87.361C8.93761 86.9706 8.88068 86.6534 8.86441 86.3931C8.84815 86.141 8.89695 85.8888 9.01081 85.6367C9.12468 85.3846 9.34428 85.1812 9.66962 85.0104C9.92176 84.8803 10.1902 84.8234 10.483 84.8396C10.7758 84.8559 11.0604 84.9616 11.3288 85.1487C11.6054 85.3358 11.8331 85.6123 12.0202 85.962C12.1991 86.3036 12.2967 86.6371 12.313 86.9706V86.9624Z" fill="white"/>
<path d="M6.46435 84.9452C5.95194 84.872 5.48834 84.685 5.0898 84.3678C4.69126 84.0506 4.39033 83.6439 4.18699 83.1396C3.95112 82.554 3.88606 81.9765 3.99992 81.4235C4.10566 80.8704 4.38219 80.3905 4.82953 79.9839L5.163 80.8297C4.8946 81.1063 4.73193 81.4235 4.66686 81.7813C4.6018 82.1311 4.6506 82.5052 4.80513 82.8956C4.95967 83.2698 5.17927 83.5788 5.47207 83.8066C5.76488 84.0343 6.11461 84.1726 6.50502 84.2132C6.89542 84.2539 7.31023 84.1888 7.7413 84.018C8.17237 83.8472 8.51397 83.6114 8.76611 83.3104C9.01824 83.0095 9.17278 82.676 9.22971 82.31C9.28665 81.944 9.23785 81.5699 9.09144 81.1876C8.93691 80.7972 8.71731 80.4963 8.43264 80.2767C8.14797 80.0652 7.8145 79.9513 7.42409 79.9269L7.09062 79.0811C7.68436 79.0811 8.21304 79.2356 8.66851 79.5609C9.12398 79.8863 9.47371 80.3417 9.70958 80.9355C9.91292 81.4397 9.96985 81.9359 9.90479 82.4402C9.83159 82.9444 9.63638 83.3999 9.31105 83.8066C8.98571 84.2132 8.56277 84.5223 8.0341 84.7256C7.50543 84.9371 6.98489 85.0022 6.47248 84.9371L6.46435 84.9452Z" fill="white"/>
<path d="M1.58594 74.77L7.18986 73.2246L7.3932 73.9566L4.85557 74.6561L5.64451 77.5109L8.19027 76.8114L8.39361 77.5435L2.78968 79.0888L2.58635 78.3568L5.05077 77.6817L4.26183 74.8269L1.79741 75.5101L1.59407 74.7781L1.58594 74.77Z" fill="white"/>
<path d="M1.71295 72.241L3.62431 71.8994L3.25017 69.8172L3.86831 69.7034L4.24245 71.7855L6.21073 71.4277L5.7878 69.0934L6.40593 68.9795L6.95901 72.0621L1.22495 73.095L0.671875 70.0124L1.29001 69.8986L1.71295 72.2329V72.241Z" fill="white"/>
<path d="M0.503353 65.0106C0.698555 64.5308 1.00762 64.1404 1.42243 63.8557C1.83723 63.571 2.34151 63.4002 2.93525 63.3514C3.52898 63.3026 4.04952 63.3758 4.51313 63.5873C4.9686 63.7988 5.3346 64.1241 5.60301 64.5633C5.87141 65.0025 6.03408 65.5393 6.09101 66.1737L6.24555 67.9793L0.454552 68.4836L0.300017 66.678C0.243084 66.0436 0.316284 65.4905 0.511486 65.0025L0.503353 65.0106ZM4.7246 64.5714C4.29353 64.2136 3.72419 64.0672 3.00845 64.1241C2.28457 64.1892 1.73963 64.4332 1.37363 64.8642C1.00762 65.2953 0.85309 65.8809 0.918157 66.6292L1.00762 67.6784L5.56234 67.2799L5.47287 66.2307C5.4078 65.4824 5.1638 64.9293 4.73273 64.5714H4.7246Z" fill="white"/>
<path d="M0.00813342 61.4071L3.68444 61.4641C4.20498 61.4722 4.58725 61.3502 4.83938 61.1062C5.09152 60.8541 5.22166 60.5043 5.22979 60.057C5.22979 59.6097 5.11592 59.2599 4.87192 59.0078C4.62792 58.7475 4.24565 58.6174 3.72511 58.6092L0.0488005 58.5523L0.0650674 57.7959L3.73324 57.8528C4.22124 57.8528 4.61978 57.9667 4.95325 58.1619C5.27859 58.3652 5.52259 58.6255 5.67713 58.959C5.83166 59.2924 5.90486 59.6666 5.90486 60.0733C5.90486 60.4881 5.81539 60.8541 5.64459 61.1794C5.48192 61.5047 5.22979 61.765 4.89632 61.9521C4.56285 62.1391 4.15618 62.2286 3.66817 62.2205L0 62.1635L0.0162668 61.4071H0.00813342Z" fill="white"/>
<path d="M5.44137 55.9334L5.63657 53.9082L6.25471 53.9651L5.98631 56.7468L0.195312 56.1856L0.268513 55.4292L5.44137 55.9334Z" fill="white"/>
<path d="M1.3492 51.6392L3.26868 51.9646L3.62655 49.8743L4.24469 49.98L3.88682 52.0703L5.86324 52.4038L6.26178 50.0695L6.87992 50.1752L6.35938 53.2578L0.617188 52.2818L1.13773 49.1992L1.75587 49.305L1.35733 51.6392H1.3492Z" fill="white"/>
<path d="M7.34527 43.3921L6.60513 45.8159L7.70314 46.6455L7.46727 47.41L2.55469 43.7093L2.81496 42.8716L8.95569 42.5625L8.71982 43.327L7.34527 43.3921ZM6.6946 43.4165L3.5795 43.5629L6.07646 45.4255L6.6946 43.4165Z" fill="white"/>
<path d="M7.3833 31.9971L12.5724 34.5266L12.239 35.2098L8.36745 33.3228L11.4012 36.9341L11.1653 37.4139L6.43983 37.2594L10.3195 39.1463L9.986 39.8296L4.79688 37.3001L5.15475 36.5681L10.3845 36.7389L7.02543 32.7291L7.3833 31.9971Z" fill="white"/>
<path d="M9.17753 30.1751L10.8286 31.1999L11.951 29.4024L12.4797 29.7359L11.3573 31.5334L13.0572 32.5907L14.3097 30.5818L14.8384 30.9153L13.1873 33.5749L8.24219 30.5004L9.89327 27.8408L10.4219 28.1743L9.1694 30.1832L9.17753 30.1751Z" fill="white"/>
<path d="M11.6941 26.3438L13.2639 27.4906L14.5164 25.7826L15.0207 26.1567L13.7681 27.8647L15.3786 29.0522L16.7775 27.1408L17.2818 27.515L15.4274 30.0363L10.7344 26.5878L12.5888 24.0664L13.0931 24.4405L11.6941 26.3519V26.3438Z" fill="white"/>
<path d="M15.8667 20.1953L16.3385 20.602L15.3055 21.8057L19.2421 25.1974L18.7459 25.7748L14.8094 22.3832L13.7683 23.5869L13.3047 23.1803L15.8748 20.1953H15.8667Z" fill="white"/>
<path d="M17.2318 18.8037L21.4042 22.8542L20.8756 23.3991L16.7031 19.3487L17.2318 18.8037Z" fill="white"/>
<path d="M25.6163 18.9429L25.047 19.4471L19.6789 18.0319L22.7696 21.4805L22.2003 21.9848L18.3125 17.6415L18.8818 17.1372L24.2418 18.5443L21.1592 15.1039L21.7285 14.5996L25.6163 18.9347V18.9429Z" fill="white"/>
<path d="M27.6982 12.2892C27.3728 12.1102 27.0231 12.0289 26.6734 12.0533C26.3155 12.0777 25.9739 12.2078 25.6404 12.4437C25.3069 12.6796 25.0629 12.9642 24.9084 13.3058C24.7539 13.6474 24.6969 14.0135 24.7457 14.4039C24.7945 14.7943 24.9572 15.1765 25.2175 15.5507C25.4777 15.9248 25.7868 16.1932 26.1447 16.364C26.4944 16.5348 26.8604 16.608 27.2346 16.5673C27.6087 16.5267 27.9584 16.3965 28.2919 16.1607C28.7555 15.8353 29.032 15.4205 29.1378 14.9325C29.2435 14.4445 29.1459 13.9484 28.8612 13.436L26.9743 14.7861L26.6164 14.2819L29.1622 12.4681L29.5038 12.9398C29.7478 13.3546 29.8779 13.802 29.9023 14.2737C29.9267 14.7455 29.8373 15.2009 29.6258 15.6239C29.4224 16.0549 29.1052 16.4209 28.6904 16.7137C28.2512 17.031 27.7795 17.2099 27.2671 17.2587C26.7547 17.3075 26.2667 17.2262 25.7949 17.0147C25.3232 16.7951 24.9247 16.4616 24.5912 15.998C24.2577 15.5344 24.0707 15.0464 24.0137 14.5259C23.9649 14.0053 24.0463 13.5173 24.2577 13.0537C24.4692 12.5901 24.8027 12.1997 25.2419 11.8906C25.7461 11.5328 26.2748 11.3376 26.8442 11.3132C27.4054 11.2888 27.9422 11.4352 28.4383 11.7605L27.6982 12.2892Z" fill="white"/>
<path d="M37.6554 11.4267L36.9803 11.7684L32.1653 9.01926L34.2556 13.151L33.5805 13.4926L30.9453 8.29538L31.6204 7.95378L36.4354 10.6947L34.3451 6.5711L35.0202 6.22949L37.6554 11.4267Z" fill="white"/>
<path d="M39.655 10.2567C39.1507 10.1754 38.6952 9.96392 38.2967 9.63045C37.8981 9.29698 37.5972 8.8659 37.402 8.3291C37.2068 7.80043 37.1499 7.27175 37.2312 6.75935C37.3125 6.24694 37.524 5.79147 37.8493 5.40107C38.1747 5.01066 38.5976 4.71786 39.1019 4.53079C39.6143 4.34372 40.1186 4.28679 40.6228 4.36812C41.1271 4.44946 41.5826 4.66093 41.9811 4.98626C42.3797 5.31973 42.6806 5.7508 42.8758 6.28761C43.0791 6.82442 43.1361 7.34496 43.0547 7.85736C42.9734 8.36977 42.7701 8.8171 42.4366 9.21564C42.1112 9.60605 41.6883 9.89885 41.1759 10.0941C40.6716 10.2811 40.1674 10.3381 39.6631 10.2567H39.655ZM41.8672 8.83337C42.1031 8.54057 42.2495 8.19896 42.3064 7.80856C42.3552 7.41816 42.3065 7.00335 42.1438 6.57228C41.9811 6.13308 41.7534 5.78334 41.4524 5.52307C41.1596 5.2628 40.8262 5.10013 40.452 5.03506C40.086 4.97 39.7038 5.01066 39.3215 5.15707C38.9392 5.30347 38.622 5.51494 38.3861 5.80774C38.1503 6.10054 38.0039 6.43401 37.9551 6.83255C37.8981 7.22295 37.9551 7.63776 38.1177 8.07696C38.2804 8.50803 38.5081 8.85777 38.8091 9.11804C39.1019 9.37831 39.4435 9.54098 39.8095 9.60605C40.1755 9.67111 40.5578 9.63045 40.94 9.49218C41.3223 9.35391 41.6314 9.13431 41.8672 8.8415V8.83337Z" fill="white"/>
<path d="M50.5094 1.45605L50.1597 7.49919L49.33 7.68625L46.9714 3.42434L46.646 8.29626L45.8245 8.49146L42.9453 3.17221L43.7343 2.99327L46.0685 7.52359L46.3369 2.40766L47.1666 2.2206L49.5578 6.71838L49.7123 1.64312L50.5094 1.46419V1.45605Z" fill="white"/>
<path d="M59.9725 7.51528L59.2161 7.53155L59.0859 0.0162668L59.8423 0L59.9643 7.51528H59.9725Z" fill="white"/>
<path d="M68.6315 7.14899C68.3549 6.96192 68.1597 6.73419 68.0296 6.46578C67.8995 6.19738 67.8588 5.90458 67.9157 5.59551L68.7128 5.73378C68.6965 6.01031 68.7616 6.25431 68.9243 6.47392C69.0869 6.69352 69.3554 6.83179 69.7295 6.89685C70.0874 6.96192 70.3802 6.92126 70.616 6.77485C70.8519 6.63659 70.9983 6.42512 71.0471 6.14045C71.0878 5.92084 71.0552 5.73378 70.9576 5.57111C70.86 5.41657 70.7299 5.28644 70.5591 5.1807C70.3883 5.07497 70.1606 4.9611 69.8678 4.82283C69.5099 4.66016 69.2252 4.50563 69.0137 4.36736C68.8023 4.22909 68.6396 4.04203 68.5095 3.79802C68.3875 3.56215 68.3549 3.26122 68.42 2.90335C68.4769 2.59428 68.6071 2.32587 68.8023 2.1144C69.0056 1.90294 69.2578 1.75653 69.5668 1.6752C69.8759 1.59387 70.2175 1.58573 70.5916 1.6508C71.1284 1.7484 71.5432 1.95987 71.8442 2.28521C72.137 2.61054 72.2671 3.00095 72.2346 3.45642L71.4131 3.31002C71.4212 3.08228 71.3399 2.87081 71.1691 2.66748C70.9983 2.46414 70.7462 2.33401 70.4046 2.27707C70.0955 2.22014 69.8271 2.26081 69.5994 2.38281C69.3716 2.51294 69.2334 2.71628 69.1846 3.00908C69.152 3.22055 69.1846 3.39949 69.274 3.54589C69.3716 3.70042 69.4936 3.82242 69.6563 3.92002C69.819 4.01762 70.0467 4.13963 70.3395 4.28603C70.6974 4.45683 70.982 4.61136 71.1935 4.75777C71.405 4.89603 71.5758 5.09124 71.7059 5.32711C71.836 5.56297 71.8686 5.86391 71.8035 6.22991C71.7547 6.50645 71.6327 6.75859 71.4456 6.97819C71.2586 7.19779 70.9983 7.36046 70.6811 7.46619C70.3639 7.57193 70.006 7.5882 69.6156 7.51499C69.2415 7.44993 68.908 7.31979 68.6396 7.13272L68.6315 7.14899Z" fill="white"/>
<path d="M73.7932 3.74112C74.1673 3.37512 74.5984 3.13111 75.0945 3.00098C75.5906 2.87898 76.0949 2.88711 76.6155 3.03351C77.2255 3.20431 77.7135 3.50525 78.0876 3.92819C78.4617 4.35113 78.6732 4.86353 78.7301 5.4654L77.8517 5.21327C77.7948 4.831 77.6403 4.50566 77.4044 4.24539C77.1604 3.97699 76.8432 3.78992 76.4365 3.67605C76.0461 3.56218 75.672 3.55405 75.306 3.65165C74.94 3.74925 74.6309 3.93632 74.3544 4.22099C74.0778 4.50566 73.8826 4.87166 73.7525 5.319C73.6224 5.76634 73.6061 6.18114 73.6874 6.56342C73.7688 6.94569 73.9396 7.27916 74.1998 7.54756C74.4601 7.81596 74.7854 8.01116 75.1758 8.1169C75.5825 8.23077 75.9566 8.2389 76.2982 8.14943C76.6399 8.05997 76.9408 7.85663 77.1848 7.56383L78.0632 7.81596C77.7053 8.2877 77.2499 8.61304 76.7131 8.77571C76.1763 8.93837 75.5988 8.93024 74.9888 8.75944C74.4682 8.61304 74.029 8.35277 73.6793 7.9949C73.3214 7.62889 73.0856 7.19782 72.9635 6.69355C72.8415 6.18928 72.8578 5.66874 73.0123 5.11567C73.1669 4.57073 73.4272 4.11526 73.8013 3.74925L73.7932 3.74112Z" fill="white"/>
<path d="M84.8516 6.09214L82.6555 11.4765L81.9561 11.1918L82.9483 8.75177L80.2074 7.62936L79.2151 10.0694L78.5156 9.78471L80.7116 4.40039L81.4111 4.68506L80.4432 7.05189L83.1842 8.1743L84.1439 5.80747L84.8516 6.09214Z" fill="white"/>
<path d="M86.7691 7.72637L85.8744 9.45066L87.7532 10.4267L87.4686 10.9797L85.5898 10.0037L84.6707 11.7849L86.7772 12.8748L86.4926 13.4279L83.7109 11.9883L86.3868 6.81543L89.1685 8.25504L88.8838 8.80812L86.7772 7.71824L86.7691 7.72637Z" fill="white"/>
<path d="M93.2314 11.1837C93.4917 11.631 93.6137 12.1109 93.5811 12.6152C93.5486 13.1194 93.3778 13.6237 93.0606 14.1198C92.7434 14.6241 92.353 14.9901 91.9138 15.226C91.4746 15.4619 90.9866 15.5513 90.4742 15.4944C89.9617 15.4375 89.4331 15.2423 88.8963 14.9006L87.3672 13.9246L90.5067 9.02832L92.0358 10.0043C92.5726 10.3459 92.9711 10.7445 93.2314 11.1918V11.1837ZM91.0028 14.7949C91.5478 14.6729 92.0195 14.3069 92.4018 13.705C92.7922 13.095 92.9304 12.5094 92.8084 11.9564C92.6946 11.4033 92.3204 10.9234 91.6942 10.5167L90.8076 9.9474L88.3432 13.8026L89.2297 14.372C89.8641 14.7786 90.4498 14.9169 91.0028 14.7949Z" fill="white"/>
<path d="M96.3767 12.9808L94.0831 15.8601C93.7577 16.2668 93.6195 16.6409 93.6601 16.9988C93.7008 17.3566 93.896 17.6657 94.2539 17.9504C94.6036 18.2269 94.9533 18.3489 95.3031 18.3082C95.6528 18.2676 95.9944 18.048 96.3198 17.6413L98.6134 14.7621L99.2071 15.2338L96.9216 18.1049C96.6207 18.4872 96.2872 18.7393 95.9294 18.8776C95.5715 19.0158 95.2136 19.0402 94.8557 18.967C94.4979 18.8857 94.1563 18.7149 93.8309 18.4628C93.5056 18.2025 93.2697 17.9097 93.1071 17.5762C92.9444 17.2428 92.8956 16.8849 92.9525 16.5108C93.0095 16.1366 93.1884 15.7543 93.4893 15.3721L95.7748 12.501L96.3686 12.9727L96.3767 12.9808Z" fill="white"/>
<path d="M97.4135 20.6424L98.8938 22.0414L98.4709 22.4887L96.4375 20.5774L100.423 16.3398L100.976 16.8604L97.4135 20.6506V20.6424Z" fill="white"/>
<path d="M103.304 20.0323L101.873 21.3499L103.312 22.9034L102.849 23.3264L101.409 21.7729L99.9369 23.1311L101.547 24.8717L101.084 25.2946L98.9609 22.9929L103.239 19.04L105.362 21.3418L104.898 21.7647L103.288 20.0242L103.304 20.0323Z" fill="white"/>
<path d="M106.176 29.8086L104.703 27.7427L103.378 28.1087L102.914 27.4581L108.843 25.8232L109.348 26.539L105.842 31.598L105.378 30.9473L106.159 29.8168L106.176 29.8086ZM106.55 29.2718L108.339 26.7098L105.338 27.5557L106.558 29.2718H106.55Z" fill="white"/>
<path d="M115.183 36.7955L110.018 39.3738L109.676 38.6906L113.532 36.7711L108.822 36.9744L108.587 36.4946L111.588 32.8427L107.724 34.7703L107.383 34.0871L112.548 31.5088L112.914 32.2408L109.595 36.2831L114.817 36.0635L115.175 36.7874L115.183 36.7955Z" fill="white"/>
<path d="M115.547 39.3413L113.725 40.0245L114.473 42.009L113.887 42.2286L113.139 40.2441L111.26 40.9436L112.09 43.164L111.504 43.3836L110.406 40.4556L115.864 38.4141L116.962 41.3421L116.376 41.5617L115.547 39.3413Z" fill="white"/>
<path d="M117.034 43.6515L115.163 44.1883L115.749 46.2217L115.147 46.3925L114.561 44.3591L112.634 44.9122L113.292 47.1895L112.691 47.3603L111.82 44.351L117.416 42.7324L118.286 45.7418L117.685 45.9126L117.026 43.6352L117.034 43.6515Z" fill="white"/>
<path d="M119.36 50.7273L118.759 50.8493L118.441 49.2958L113.35 50.3369L113.195 49.5968L118.287 48.5557L117.97 46.9941L118.572 46.8721L119.36 50.7273Z" fill="white"/>
<path d="M119.63 52.6477L113.871 53.4773L113.766 52.729L119.524 51.8994L119.63 52.6477Z" fill="white"/>
<path d="M114.396 59.2189L114.339 58.4625L118.739 55.0871L114.119 55.4206L114.062 54.6641L119.87 54.2412L119.927 54.9976L115.535 58.373L120.146 58.0395L120.203 58.7959L114.396 59.2189Z" fill="white"/>
<path d="M118.392 64.912C118.733 64.7656 119.01 64.5379 119.205 64.237C119.4 63.936 119.506 63.5863 119.522 63.1796C119.539 62.7729 119.457 62.4069 119.286 62.0735C119.116 61.74 118.855 61.4716 118.514 61.2764C118.172 61.0731 117.774 60.9673 117.318 60.9511C116.863 60.9348 116.456 61.0161 116.106 61.1869C115.757 61.3577 115.48 61.6099 115.285 61.9271C115.09 62.2443 114.976 62.6103 114.968 63.0169C114.943 63.5863 115.098 64.058 115.423 64.4403C115.748 64.8226 116.196 65.0503 116.773 65.1316L116.863 62.8136L117.481 62.838L117.367 65.9612L116.781 65.9368C116.301 65.8718 115.87 65.7091 115.488 65.4407C115.098 65.1723 114.797 64.8226 114.585 64.3996C114.374 63.9767 114.268 63.5049 114.293 62.9925C114.317 62.4557 114.455 61.9677 114.724 61.5285C114.992 61.0893 115.358 60.7559 115.822 60.5119C116.285 60.2679 116.798 60.1621 117.359 60.1784C117.92 60.1946 118.432 60.3492 118.872 60.6257C119.311 60.9023 119.652 61.2683 119.888 61.7237C120.124 62.1792 120.23 62.6753 120.214 63.2121C120.189 63.8303 120.018 64.3671 119.693 64.8307C119.368 65.2943 118.929 65.6278 118.359 65.823L118.392 64.912Z" fill="white"/>
<path d="M113 73.3142L113.138 72.5659L118.254 70.4268L113.708 69.5647L113.846 68.8164L119.572 69.8982L119.434 70.6464L114.326 72.7855L118.864 73.6477L118.726 74.3959L113 73.3142Z" fill="white"/>
<path d="M112.704 75.6247C113.078 75.275 113.517 75.0391 114.03 74.9252C114.542 74.8114 115.063 74.8358 115.607 75.0066C116.152 75.1774 116.6 75.4458 116.958 75.8281C117.315 76.2103 117.551 76.6495 117.657 77.1457C117.763 77.6418 117.747 78.1542 117.584 78.6666C117.421 79.1872 117.153 79.6264 116.779 79.9761C116.405 80.3258 115.965 80.5536 115.461 80.6674C114.957 80.7813 114.428 80.7488 113.883 80.578C113.338 80.4072 112.883 80.1388 112.533 79.7565C112.175 79.3824 111.947 78.9432 111.834 78.4389C111.72 77.9346 111.752 77.4303 111.907 76.9098C112.069 76.3974 112.33 75.9582 112.704 75.6084V75.6247ZM112.484 78.2518C112.566 78.6178 112.753 78.9432 113.029 79.2278C113.306 79.5125 113.672 79.7158 114.111 79.8541C114.558 79.9924 114.973 80.0249 115.363 79.9517C115.754 79.8785 116.079 79.7158 116.356 79.4556C116.632 79.2034 116.827 78.8781 116.949 78.4877C117.071 78.0973 117.088 77.715 117.006 77.349C116.925 76.983 116.738 76.6658 116.461 76.3811C116.185 76.0965 115.819 75.8931 115.38 75.7548C114.941 75.6166 114.526 75.584 114.135 75.6654C113.745 75.7467 113.411 75.9012 113.135 76.1615C112.858 76.4218 112.663 76.739 112.541 77.1294C112.419 77.5198 112.403 77.8939 112.492 78.2599L112.484 78.2518Z" fill="white"/>
<path d="M113.055 89.5899L108.484 85.6208L108.842 84.8481L113.657 85.5801L109.997 82.343L110.339 81.5703L116.309 82.5382L115.967 83.2702L110.957 82.3511L114.845 85.694L114.487 86.4666L109.469 85.6208L113.397 88.8416L113.055 89.5817V89.5899Z" fill="white"/>
<path d="M102.492 93.3707L102.948 92.7607L108.942 97.2992L108.487 97.9011L102.492 93.3707Z" fill="white"/>
<path d="M97.4675 100.471C97.7847 100.366 98.0856 100.349 98.3784 100.415C98.6712 100.48 98.9233 100.626 99.1429 100.854L98.5411 101.399C98.3377 101.22 98.1019 101.122 97.8253 101.114C97.5569 101.114 97.2804 101.236 96.9957 101.488C96.7273 101.732 96.5809 101.992 96.5484 102.269C96.5158 102.545 96.5972 102.781 96.7842 102.993C96.9306 103.155 97.1014 103.253 97.2885 103.269C97.4756 103.286 97.6545 103.269 97.8416 103.196C98.0287 103.123 98.2645 103.017 98.5492 102.871C98.8989 102.684 99.1917 102.554 99.4357 102.472C99.6716 102.391 99.9237 102.375 100.192 102.423C100.461 102.472 100.713 102.627 100.957 102.895C101.168 103.131 101.298 103.391 101.347 103.684C101.396 103.977 101.347 104.27 101.225 104.563C101.103 104.855 100.9 105.132 100.615 105.384C100.208 105.75 99.7936 105.953 99.3463 105.986C98.9071 106.018 98.5167 105.88 98.1832 105.579L98.8013 105.018C98.9721 105.164 99.1917 105.229 99.4601 105.213C99.7285 105.197 99.9888 105.075 100.233 104.847C100.469 104.636 100.607 104.4 100.639 104.14C100.68 103.887 100.599 103.643 100.395 103.432C100.249 103.277 100.095 103.188 99.9156 103.172C99.7367 103.155 99.5577 103.172 99.3869 103.245C99.2161 103.318 98.9721 103.416 98.6793 103.57C98.3215 103.749 98.0287 103.879 97.7847 103.961C97.5407 104.042 97.2885 104.058 97.0201 104.018C96.7517 103.969 96.4914 103.814 96.2474 103.538C96.0522 103.326 95.9302 103.082 95.8733 102.798C95.8164 102.513 95.8408 102.212 95.9546 101.895C96.0685 101.578 96.2718 101.293 96.5646 101.016C96.8493 100.756 97.1502 100.577 97.4675 100.471Z" fill="white"/>
<path d="M97.0132 106.629C97.0783 107.142 97.0132 107.638 96.8017 108.11C96.5984 108.581 96.2812 108.972 95.8501 109.297C95.3377 109.671 94.8009 109.883 94.2397 109.915C93.6785 109.948 93.1417 109.81 92.6374 109.484L93.3694 108.939C93.711 109.126 94.0526 109.208 94.4105 109.175C94.7684 109.143 95.1181 109.004 95.4516 108.752C95.7769 108.508 96.0128 108.215 96.1592 107.874C96.3056 107.532 96.3463 107.166 96.2893 106.776C96.2324 106.385 96.0616 106.003 95.785 105.629C95.5085 105.255 95.1913 104.986 94.8416 104.816C94.4918 104.645 94.1258 104.58 93.7517 104.62C93.3776 104.661 93.0278 104.799 92.7025 105.043C92.3609 105.295 92.125 105.588 91.9949 105.914C91.8647 106.247 91.8322 106.597 91.9135 106.971L91.1815 107.516C91.027 106.938 91.0433 106.385 91.2466 105.865C91.4499 105.344 91.7997 104.889 92.3121 104.515C92.7431 104.189 93.2149 104.002 93.7192 103.945C94.2234 103.888 94.7114 103.962 95.1913 104.173C95.6712 104.385 96.0697 104.718 96.4113 105.173C96.7529 105.629 96.9481 106.117 97.0132 106.629Z" fill="white"/>
<path d="M88.3968 113.965L85.4688 108.939L86.1276 108.556L87.4533 110.834L90.0153 109.345L88.6896 107.068L89.3484 106.686L92.2764 111.712L91.6176 112.094L90.3325 109.89L87.7705 111.379L89.0556 113.583L88.3968 113.965Z" fill="white"/>
<path d="M85.9451 114.477L85.1237 112.712L83.2042 113.607L82.9358 113.038L84.8552 112.143L84.0094 110.329L81.8622 111.33L81.5938 110.76L84.4242 109.435L86.8967 114.713L84.0582 116.039L83.7898 115.47L85.937 114.461L85.9451 114.477Z" fill="white"/>
<path d="M79.2557 117.503C78.7351 117.438 78.2878 117.243 77.9055 116.909C77.5233 116.576 77.2304 116.137 77.0271 115.575C76.8238 115.014 76.7668 114.485 76.8482 113.989C76.9295 113.493 77.1572 113.062 77.5151 112.688C77.873 112.314 78.3529 112.021 78.9466 111.801L80.6465 111.191L82.6148 116.665L80.9149 117.275C80.3211 117.487 79.7599 117.568 79.2475 117.503H79.2557ZM77.751 113.542C77.5151 114.046 77.5151 114.64 77.7591 115.315C78.0031 115.998 78.3854 116.462 78.8978 116.706C79.4102 116.95 80.0202 116.95 80.7197 116.706L81.712 116.348L80.1585 112.045L79.1662 112.403C78.4586 112.655 77.9869 113.038 77.751 113.55V113.542Z" fill="white"/>
<path d="M75.9191 118.903L75.0407 115.332C74.9187 114.828 74.6991 114.486 74.3982 114.307C74.0891 114.128 73.7231 114.088 73.2839 114.193C72.8528 114.299 72.5438 114.503 72.3567 114.812C72.1696 115.113 72.1371 115.519 72.2672 116.024L73.1456 119.594L72.4055 119.773L71.5271 116.211C71.4132 115.739 71.4051 115.324 71.5189 114.958C71.6247 114.592 71.828 114.291 72.1046 114.055C72.3811 113.819 72.7308 113.649 73.1294 113.551C73.5279 113.453 73.9102 113.445 74.268 113.518C74.6259 113.6 74.9431 113.771 75.2034 114.047C75.4718 114.324 75.6589 114.698 75.7727 115.161L76.6511 118.724L75.911 118.903H75.9191Z" fill="white"/>
<path d="M69.2159 115.039L67.207 115.356L67.1094 114.746L69.8666 114.307L70.7857 120.049L70.0374 120.171L69.2159 115.039Z" fill="white"/>
<path d="M66.0876 120.073L65.9168 118.137L63.8021 118.325L63.7452 117.698L65.8599 117.511L65.6891 115.518L63.3304 115.722L63.2734 115.096L66.3885 114.827L66.8928 120.626L63.7777 120.895L63.7208 120.268L66.0795 120.065L66.0876 120.073Z" fill="white"/>
<path d="M56.6025 116.373L59.1401 116.47L59.6607 115.193L60.4577 115.226L58.1316 120.919L57.2532 120.887L55.3906 115.022L56.1877 115.055L56.6025 116.364V116.373ZM56.7977 116.999L57.733 119.976L58.8961 117.08L56.7977 116.999Z" fill="white"/>
<path d="M45.5706 119.252L46.6849 113.583L47.4332 113.729L46.6036 117.959L49.3201 114.104L49.8407 114.209L50.898 118.813L51.7276 114.583L52.4759 114.73L51.3616 120.399L50.5564 120.244L49.3771 115.153L46.3596 119.423L45.5625 119.268L45.5706 119.252Z" fill="white"/>
<path d="M43.3388 117.983L43.9081 116.12L41.8829 115.502L42.07 114.9L44.0952 115.518L44.6808 113.607L42.4116 112.908L42.5986 112.306L45.5917 113.225L43.8837 118.796L40.8906 117.877L41.0777 117.275L43.3469 117.975L43.3388 117.983Z" fill="white"/>
<path d="M39.0256 116.527L39.7414 114.721L37.765 113.949L37.9927 113.363L39.9691 114.136L40.7011 112.273L38.497 111.403L38.7247 110.817L41.6365 111.964L39.5055 117.381L36.5938 116.234L36.8215 115.649L39.0256 116.519V116.527Z" fill="white"/>
<path d="M32 114.054L32.2684 113.501L33.6918 114.201L35.9772 109.532L36.6605 109.866L34.375 114.534L35.8064 115.234L35.538 115.787L32 114.063V114.054Z" fill="white"/>
<path d="M30.2969 113.087L33.1517 108.02L33.8105 108.394L30.9557 113.461L30.2969 113.087Z" fill="white"/>
<path d="M28.3065 104.938L28.9409 105.36V110.907L31.4866 107.044L32.121 107.467L28.9083 112.323L28.2739 111.9V106.361L25.7282 110.216L25.0938 109.801L28.3065 104.946V104.938Z" fill="white"/>
<path d="M21.3531 104.628C21.2636 104.994 21.2718 105.344 21.3856 105.685C21.4995 106.027 21.7191 106.328 22.0282 106.58C22.3372 106.84 22.6788 107.003 23.053 107.068C23.4271 107.133 23.7931 107.092 24.1591 106.946C24.5251 106.8 24.8505 106.547 25.1433 106.198C25.4361 105.848 25.6231 105.482 25.6963 105.092C25.7777 104.709 25.7451 104.343 25.615 103.985C25.4849 103.636 25.2653 103.327 24.9481 103.066C24.5089 102.7 24.0453 102.538 23.5491 102.562C23.053 102.586 22.5894 102.806 22.1746 103.205L23.9558 104.693L23.5573 105.165L21.1498 103.164L21.5239 102.717C21.8655 102.375 22.264 102.139 22.7114 101.993C23.1587 101.854 23.6223 101.822 24.0941 101.911C24.5658 102.001 24.9969 102.212 25.3873 102.538C25.8021 102.879 26.103 103.294 26.2819 103.774C26.4609 104.254 26.5097 104.75 26.4202 105.262C26.3307 105.775 26.103 106.246 25.737 106.686C25.371 107.125 24.9481 107.434 24.4601 107.613C23.9721 107.792 23.4759 107.841 22.9716 107.751C22.4674 107.662 22.0119 107.442 21.5971 107.1C21.1254 106.702 20.8 106.238 20.6292 105.702C20.4584 105.165 20.4666 104.612 20.6618 104.042L21.3612 104.628H21.3531Z" fill="white"/>
<path d="M18.2467 94.0381L18.7184 94.6318L12.8624 99.3411L12.3906 98.7473L18.2467 94.0381Z" fill="white"/>
</svg>
