<svg width="331" height="35" viewBox="0 0 331 35" fill="none" xmlns="http://www.w3.org/2000/svg">
<g clip-path="url(#clip0_1231_6854)">
<path d="M19.9841 2.92136C20.1382 2.52605 19.9167 2.08187 19.5059 1.9951C18.4703 1.77636 17.3971 1.66138 16.2974 1.66138C7.66119 1.66138 0.660162 8.75257 0.660162 17.5C0.660162 22.7509 3.18286 27.405 7.06763 30.2867C7.20365 30.3876 7.34137 30.4864 7.4807 30.5829C8.19254 31.076 9.14321 30.723 9.46002 29.9106L10.0559 28.3824L10.6922 26.7507C11.0155 25.9214 10.7042 24.9902 10.0559 24.3871C8.21896 22.6783 7.06763 20.2254 7.06763 17.5C7.06763 12.3369 11.2 8.15136 16.2974 8.15136C17.2298 8.15136 18.1363 7.66014 18.4787 6.78185L19.9841 2.92136Z" fill="url(#paint0_linear_1231_6854)"/>
<path d="M25.3419 4.57803C24.6312 4.06675 23.6652 4.41619 23.3449 5.23738L22.7546 6.7513L22.1296 8.3541C21.7952 9.2119 22.1041 10.175 22.7546 10.8203C24.4652 12.5172 25.5266 14.8829 25.5266 17.4997C25.5266 22.6628 21.3943 26.8483 16.2968 26.8483C15.5085 26.8483 14.7516 27.2751 14.4621 28.0178L12.8669 32.1085C12.7069 32.5188 12.9412 32.9791 13.3691 33.0612C14.3175 33.2431 15.2962 33.3383 16.2968 33.3383C24.9331 33.3383 31.9341 26.2471 31.9341 17.4997C31.9341 12.2488 29.4114 7.59468 25.5266 4.71298C25.4654 4.66755 25.4038 4.62257 25.3419 4.57803Z" fill="url(#paint1_linear_1231_6854)"/>
<path d="M51.2066 26.7501C54.3441 26.7501 56.8644 25.547 58.5359 23.4024L55.7586 20.9962C54.4469 22.487 53.161 23.167 51.2066 23.167C48.1205 23.167 45.9862 20.9177 45.9862 17.4392C45.9862 14.0392 48.1722 11.7638 51.2066 11.7638C52.0161 11.7638 52.8134 11.9416 53.5345 12.2675C54.5206 12.7134 55.915 12.4627 56.3111 11.4419L56.8687 10.0061C55.296 8.82175 53.3372 8.18066 51.2066 8.18066C45.909 8.18066 42 11.9992 42 17.4392C42 22.9054 45.909 26.7501 51.2066 26.7501Z" fill="#616161"/>
<path d="M151.863 26.7843C155 26.7843 157.521 25.5812 159.192 23.4365L156.415 21.0304C155.103 22.5212 153.817 23.2012 151.863 23.2012C148.777 23.2012 146.642 20.9519 146.642 17.4734C146.642 14.0734 148.828 11.7979 151.863 11.7979C152.672 11.7979 153.47 11.9758 154.191 12.3017C155.177 12.7475 156.571 12.4969 156.967 11.476L157.525 10.0403C155.952 8.85593 153.993 8.21484 151.863 8.21484C146.565 8.21484 142.656 12.0333 142.656 17.4734C142.656 22.9396 146.565 26.7843 151.863 26.7843Z" fill="#616161"/>
<path d="M64.2998 26.3857V8.29688H60.5469V26.3857H64.2998Z" fill="#616161"/>
<path d="M69.3118 11.8888C70.5024 11.8888 71.3306 11.0237 71.3306 9.87017C71.3306 8.71668 70.5024 7.85156 69.3118 7.85156C68.1212 7.85156 67.293 8.71668 67.293 9.87017C67.293 11.0237 68.1212 11.8888 69.3118 11.8888ZM71.1753 26.3861V13.3569H67.4224V26.3861H71.1753Z" fill="#616161"/>
<path d="M90.0851 13.0943C88.2992 13.0943 86.6687 13.9069 85.7369 15.6634C85.0381 14.0642 83.5628 13.068 81.6734 13.0943C80.0169 13.1205 78.7228 13.8807 77.9204 15.2177V13.3564H74.2969V26.3856H78.0498V19.019C78.0498 17.3936 79.0075 16.2926 80.431 16.2926C81.8545 16.2926 82.7345 17.3412 82.7345 18.9928V26.3856H86.4875V19.019C86.4875 17.3936 87.4192 16.2926 88.8428 16.2926C90.3181 16.2926 91.1463 17.3412 91.1463 18.9928V26.3856H94.8992V18.4947C94.8992 15.2702 92.984 13.0943 90.0851 13.0943Z" fill="#616161"/>
<path d="M101.01 26.621C102.926 26.621 104.427 25.8084 105.255 24.3403C105.307 25.284 105.436 25.7297 105.85 26.3851H109.448C108.827 25.3103 108.646 24.4714 108.646 22.846V18.1272C108.646 14.8764 106.679 13.0938 102.874 13.0938C100.57 13.0938 98.5256 13.854 97.0762 15.3221L98.7844 17.6815C99.8197 16.6067 101.295 16.0037 102.667 16.0037C104.142 16.0037 104.97 16.5804 104.97 17.4718C104.97 18.1796 104.556 18.4155 103.391 18.6253L101.295 19.0185C98.2409 19.569 96.7656 20.6701 96.7656 22.9508C96.7656 25.1792 98.4221 26.621 101.01 26.621ZM102.175 23.9733C101.01 23.9733 100.363 23.5276 100.363 22.5838C100.363 21.7449 100.933 21.3255 102.201 21.1157L103.443 20.906C104.272 20.7225 104.582 20.6177 104.944 20.3555V21.2993C104.944 22.8722 103.78 23.9733 102.175 23.9733Z" fill="#616161"/>
<path d="M116.543 26.6477C117.967 26.6477 119.183 26.2545 120.141 25.4418L119.054 22.6629C118.485 23.161 117.941 23.3708 117.242 23.3708C116.259 23.3708 115.767 22.8202 115.767 21.693V16.345H119.649V13.3564H115.482C115.689 13.1204 115.767 12.8583 115.767 12.3077V10.1318H112.014V12.334C112.014 13.0942 111.807 13.3564 111.134 13.3564H110.125V16.345H112.014V22.2697C112.014 25.101 113.593 26.6477 116.543 26.6477Z" fill="#616161"/>
<path d="M134.068 19.6739C134.068 15.6891 131.635 13.0938 127.727 13.0938C123.715 13.0938 121.023 15.9775 121.023 19.8574C121.023 23.9733 123.845 26.6473 128.219 26.6473C130.393 26.6473 132.308 25.9657 133.706 24.6811L132.075 22.3217C131.066 23.2654 129.798 23.7373 128.426 23.7373C126.459 23.7373 125.165 22.6625 124.828 20.6963H134.042C134.068 20.4079 134.068 20.1458 134.068 19.6739ZM124.88 18.4155C125.242 16.8426 126.278 15.8726 127.753 15.8726C129.306 15.8726 130.289 16.8426 130.393 18.4155H124.88Z" fill="#616161"/>
<path d="M167.048 26.3855C171.112 26.3855 174.037 23.4494 174.037 19.5957C174.037 15.7682 171.112 12.832 167.048 12.832C163.011 12.832 160.086 15.7682 160.086 19.5957C160.086 23.4494 163.011 26.3855 167.048 26.3855ZM167.048 23.2397C165.185 23.2397 163.839 21.7454 163.839 19.5957C163.839 17.4722 165.185 15.9779 167.048 15.9779C168.938 15.9779 170.284 17.4722 170.284 19.5957C170.284 21.7454 168.938 23.2397 167.048 23.2397Z" fill="#616161"/>
<path d="M180.089 26.1234V18.7568C180.089 17.1052 181.124 16.0303 182.703 16.0303C184.256 16.0303 185.084 17.0003 185.084 18.7306V26.1234H188.811V18.2325C188.811 14.9817 186.896 12.832 183.945 12.832C182.263 12.832 180.814 13.5923 179.959 14.9293V13.0942H176.336V26.1234H180.089Z" fill="#616161"/>
<path d="M195.503 26.1234V18.7568C195.503 17.1052 196.538 16.0303 198.117 16.0303C199.67 16.0303 200.498 17.0003 200.498 18.7306V26.1234H204.225V18.2325C204.225 14.9817 202.31 12.832 199.359 12.832C197.677 12.832 196.228 13.5923 195.374 14.9293V13.0942H191.75V26.1234H195.503Z" fill="#616161"/>
<path d="M219.283 19.4122C219.283 15.4274 216.85 12.832 212.942 12.832C208.93 12.832 206.238 15.7158 206.238 19.5957C206.238 23.7115 209.059 26.3855 213.434 26.3855C215.608 26.3855 217.523 25.7039 218.921 24.4194L217.29 22.06C216.281 23.0037 215.012 23.4756 213.641 23.4756C211.674 23.4756 210.379 22.4008 210.043 20.4346H219.257C219.283 20.1462 219.283 19.8841 219.283 19.4122ZM210.095 18.1538C210.457 16.5809 211.492 15.6109 212.968 15.6109C214.521 15.6109 215.504 16.5809 215.608 18.1538H210.095Z" fill="#616161"/>
<path d="M227.684 26.3855C229.599 26.3855 231.463 25.6515 232.731 24.3407L230.479 21.9289C229.651 22.8726 228.849 23.2397 227.684 23.2397C225.846 23.2397 224.526 21.7191 224.526 19.5957C224.526 17.4984 225.846 15.9779 227.684 15.9779C228.823 15.9779 229.625 16.3449 230.428 17.2625L232.705 14.8506C231.463 13.5661 229.599 12.832 227.684 12.832C223.672 12.832 220.773 15.6895 220.773 19.5957C220.773 23.528 223.672 26.3855 227.684 26.3855Z" fill="#616161"/>
<path d="M240.313 26.386C241.737 26.386 242.953 25.9928 243.911 25.1801L242.824 22.4012C242.255 22.8993 241.711 23.109 241.012 23.109C240.029 23.109 239.537 22.5585 239.537 21.4312V16.0832H243.419V13.0946H239.252C239.459 12.8587 239.537 12.5965 239.537 12.046V9.87012H235.784V12.0722C235.784 12.8325 235.577 13.0946 234.904 13.0946H233.895V16.0832H235.784V22.008C235.784 24.8393 237.363 26.386 240.313 26.386Z" fill="#616161"/>
<path d="M259.122 26.3857C264.48 26.3857 268.828 23.0563 268.828 17.3151C268.828 11.5738 264.506 8.29688 259.122 8.29688H252.289V26.3857H259.122ZM256.146 11.8884H258.915C262.28 11.8884 264.816 13.6449 264.816 17.3151C264.816 21.0115 262.254 22.7941 258.915 22.7941H256.146V11.8884Z" fill="#816CFF"/>
<path d="M273.077 11.8888C274.268 11.8888 275.096 11.0237 275.096 9.87017C275.096 8.71668 274.268 7.85156 273.077 7.85156C271.887 7.85156 271.059 8.71668 271.059 9.87017C271.059 11.0237 271.887 11.8888 273.077 11.8888ZM274.941 26.3861V13.3569H271.188V26.3861H274.941Z" fill="#816CFF"/>
<path d="M283.754 31.6282C287.921 31.6282 291.027 29.6096 291.027 25.1792V13.3559H287.43V15.1386C286.446 13.8016 284.997 13.0938 283.237 13.0938C279.768 13.0938 277.258 15.8202 277.258 19.5952C277.258 23.3965 279.768 26.1229 283.237 26.1229C284.971 26.1229 286.343 25.4151 287.3 24.1306V25.3103C287.3 27.5648 285.851 28.6397 283.754 28.6397C282.046 28.6397 280.364 28.0891 279.199 27.0405L277.827 29.7669C279.121 30.9466 281.503 31.6282 283.754 31.6282ZM284.168 22.9771C282.279 22.9771 280.959 21.5876 280.959 19.5952C280.959 17.6291 282.279 16.2396 284.168 16.2396C286.058 16.2396 287.378 17.6291 287.378 19.5952C287.378 21.5876 286.058 22.9771 284.168 22.9771Z" fill="#816CFF"/>
<path d="M296.05 11.8888C297.241 11.8888 298.069 11.0237 298.069 9.87017C298.069 8.71668 297.241 7.85156 296.05 7.85156C294.859 7.85156 294.031 8.71668 294.031 9.87017C294.031 11.0237 294.859 11.8888 296.05 11.8888ZM297.914 26.3861V13.3569H294.161V26.3861H297.914Z" fill="#816CFF"/>
<path d="M306.29 26.6477C307.713 26.6477 308.93 26.2545 309.888 25.4418L308.8 22.6629C308.231 23.161 307.688 23.3708 306.989 23.3708C306.005 23.3708 305.513 22.8202 305.513 21.693V16.345H309.396V13.3564H305.229C305.436 13.1204 305.513 12.8583 305.513 12.3077V10.1318H301.76V12.334C301.76 13.0942 301.553 13.3564 300.88 13.3564H299.871V16.345H301.76V22.2697C301.76 25.101 303.339 26.6477 306.29 26.6477Z" fill="#816CFF"/>
<path d="M315.948 26.621C317.863 26.621 319.364 25.8084 320.193 24.3403C320.244 25.284 320.374 25.7297 320.788 26.3851H324.385C323.764 25.3103 323.583 24.4714 323.583 22.846V18.1272C323.583 14.8764 321.616 13.0938 317.811 13.0938C315.508 13.0938 313.463 13.854 312.014 15.3221L313.722 17.6815C314.757 16.6067 316.233 16.0037 317.604 16.0037C319.08 16.0037 319.908 16.5804 319.908 17.4718C319.908 18.1796 319.494 18.4155 318.329 18.6253L316.233 19.0185C313.178 19.569 311.703 20.6701 311.703 22.9508C311.703 25.1792 313.36 26.621 315.948 26.621ZM317.113 23.9733C315.948 23.9733 315.301 23.5276 315.301 22.5838C315.301 21.7449 315.87 21.3255 317.138 21.1157L318.381 20.906C319.209 20.7225 319.52 20.6177 319.882 20.3555V21.2993C319.882 22.8722 318.717 23.9733 317.113 23.9733Z" fill="#816CFF"/>
<path d="M330.362 26.3857V8.29688H326.609V26.3857H330.362Z" fill="#816CFF"/>
</g>
<defs>
<linearGradient id="paint0_linear_1231_6854" x1="22.6286" y1="1.66138" x2="9.60776" y2="33.2222" gradientUnits="userSpaceOnUse">
<stop stop-color="#0085FF"/>
<stop offset="1" stop-color="#9E00FF"/>
</linearGradient>
<linearGradient id="paint1_linear_1231_6854" x1="22.628" y1="1.66102" x2="9.60718" y2="33.2219" gradientUnits="userSpaceOnUse">
<stop stop-color="#0085FF"/>
<stop offset="1" stop-color="#9E00FF"/>
</linearGradient>
<clipPath id="clip0_1231_6854">
<rect width="330" height="35" fill="white" transform="translate(0.660156)"/>
</clipPath>
</defs>
</svg>
