<svg width="216" height="50" viewBox="0 0 216 50" fill="none" xmlns="http://www.w3.org/2000/svg">
<path d="M117.501 0C117.859 0.0347806 118.217 0.0840531 118.575 0.102893C126.555 0.543447 134.545 0.849226 142.513 1.44774C154.197 2.32595 165.795 3.9418 177.321 6.06631C188.8 8.18213 200.145 10.8356 211.28 14.3615C212.448 14.731 213.607 15.131 214.726 15.6672C213.739 15.4035 212.752 15.1368 211.765 14.8759C200.877 11.9906 189.839 9.84581 178.718 8.09663C168.312 6.46049 157.858 5.24317 147.363 4.3838C128.663 2.85346 109.933 2.38537 91.188 3.17083C82.6493 3.52878 74.1107 4.05629 65.5996 4.80987C46.2123 6.52716 27.0221 9.51974 8.14351 14.3412C6.3697 14.7948 4.60748 15.2919 2.80469 15.6672C3.64377 15.373 4.47705 15.0658 5.32048 14.7875C16.1575 11.2008 27.2308 8.54008 38.4331 6.39673C51.3468 3.92441 64.3634 2.18248 77.4743 1.22891C84.6014 0.710104 91.7488 0.473886 98.8861 0.10724C99.3426 0.0840531 99.7962 0.0362298 100.251 0.00144919C106 0.00144919 111.749 0.00144919 117.498 0.00144919L117.501 0Z" fill="#0A1D56"/>
<path d="M86.9194 49.9969C87.0151 48.4651 87.1064 46.9319 87.2209 45.4015C87.2295 45.2943 87.4788 45.0972 87.5194 45.1204C87.6629 45.1987 87.8382 45.3378 87.8701 45.4827C88.0599 46.3261 88.2135 47.1783 88.5048 48.0463C88.657 47.2739 88.7874 46.4957 88.9758 45.732C89.0323 45.5015 89.2526 45.3117 89.3975 45.1016C89.5106 45.3305 89.6946 45.5508 89.7236 45.7885C89.8642 46.9841 89.9714 48.1825 90.0685 49.3825C90.0845 49.5825 90.0004 49.7911 89.9613 49.9969H89.5265C89.4483 49.1999 89.3715 48.4028 89.2932 47.6072C89.257 47.6014 89.2207 47.5971 89.1845 47.5913C89.0092 48.3927 88.8324 49.1955 88.657 49.9969H88.3672C88.1454 49.1057 87.9252 48.2144 87.686 47.258C87.5687 48.2173 87.46 49.1071 87.3527 49.9969H86.918H86.9194Z" fill="#0A1D56"/>
<path d="M143.15 49.9972C143.097 49.8668 143.002 49.7363 143.002 49.6059C142.99 48.3031 142.992 47.0003 142.993 45.6974C142.993 45.5308 143.011 45.3641 143.021 45.1844C143.44 44.9989 143.644 45.1221 143.761 45.5453C143.98 46.3307 144.241 47.1032 144.58 47.8741C144.58 47.1061 144.564 46.338 144.593 45.5714C144.599 45.4119 144.776 45.2583 144.873 45.1018C144.992 45.2627 145.21 45.4235 145.212 45.5859C145.222 47.0553 145.194 48.5263 145.179 49.9972H144.744C144.392 49.0146 144.041 48.0306 143.689 47.0481C143.654 47.0524 143.619 47.0582 143.584 47.0626V49.9972H143.15Z" fill="#0A1D56"/>
<path d="M72.7164 49.9977C72.6744 49.476 72.6048 48.9557 72.5961 48.4326C72.5773 47.3529 72.5903 46.2718 72.5903 45.1458C73.27 45.1038 73.912 44.9183 74.3714 45.5211C74.7337 45.9965 74.6091 46.8225 74.1758 47.4775C74.0816 47.621 74.0598 47.8717 74.1105 48.0413C74.2453 48.5021 74.4569 48.9412 74.5975 49.4021C74.6525 49.5832 74.6033 49.7977 74.6004 49.9962H74.1656C73.9149 49.3673 73.6642 48.7383 73.3512 47.9529C73.2729 48.7528 73.212 49.3745 73.1512 49.9962H72.7164V49.9977ZM73.3019 47.2529C73.9134 47.0283 73.9163 46.6095 73.8439 46.2196C73.8062 46.0153 73.5961 45.8429 73.4642 45.6559C73.4106 45.6936 73.3555 45.7298 73.3019 45.7675V47.2529Z" fill="#0A1D56"/>
<path d="M121.41 49.9969C121.19 49.5694 120.823 49.1564 120.779 48.7129C120.681 47.684 120.726 46.6406 120.752 45.6044C120.756 45.4334 120.966 45.2697 121.081 45.1016C121.191 45.2697 121.391 45.4349 121.397 45.6073C121.429 46.4739 121.387 47.3449 121.423 48.2115C121.44 48.6159 121.187 49.2926 121.878 49.2926C122.533 49.2926 122.275 48.6318 122.29 48.2521C122.326 47.2435 122.303 46.2319 122.303 45.203C122.729 45.0291 122.984 45.0392 122.979 45.5639C122.971 46.6493 122.969 47.7347 122.972 48.8202C122.972 49.352 122.743 49.7419 122.281 49.9984H121.411L121.41 49.9969Z" fill="#0A1D56"/>
<path d="M115.903 49.9971C115.015 49.145 114.738 46.5886 115.422 45.5467C115.883 44.8438 116.838 44.8714 117.271 45.6003C117.913 46.677 117.635 49.1218 116.772 49.9971H115.903ZM115.738 47.5234C115.791 47.977 115.813 48.4378 115.916 48.8813C115.955 49.0494 116.177 49.2827 116.323 49.287C116.464 49.2914 116.73 49.045 116.736 48.9001C116.778 47.99 116.787 47.077 116.748 46.1669C116.741 46.0017 116.457 45.8496 116.301 45.6916C116.167 45.8452 115.951 45.98 115.912 46.1553C115.812 46.5988 115.791 47.0596 115.739 47.5248L115.738 47.5234Z" fill="#0A1D56"/>
<path d="M109.819 49.9969C109.767 49.7462 109.674 49.4955 109.671 49.2433C109.655 48.1115 109.645 46.9797 109.678 45.8493C109.686 45.5972 109.862 45.1407 109.973 45.1378C110.536 45.1204 110.277 45.603 110.312 45.8841C110.352 46.2116 110.322 46.5493 110.322 46.9232H111.254C111.254 46.4537 111.228 46.0015 111.268 45.5537C111.283 45.3957 111.462 45.2523 111.565 45.1016C111.681 45.2421 111.896 45.3827 111.897 45.5233C111.901 47.0145 111.871 48.5043 111.849 49.9955H111.414C111.33 49.1999 111.248 48.4043 111.162 47.5913H110.37C110.33 48.4188 110.293 49.2071 110.257 49.9955H109.822L109.819 49.9969Z" fill="#0A1D56"/>
<path d="M82.2841 49.9969C82.2203 49.7998 82.103 49.6027 82.1001 49.4028C82.0827 48.1478 82.0783 46.8913 82.1044 45.6363C82.1088 45.4566 82.2986 45.2798 82.4029 45.1016C82.5218 45.2885 82.7145 45.4668 82.7421 45.6667C82.7957 46.0653 82.758 46.4754 82.758 46.9217H83.6855C83.6855 46.4087 83.6623 45.9291 83.7014 45.4552C83.7116 45.3291 83.9159 45.2189 84.0318 45.1016C84.1347 45.2059 84.3289 45.3088 84.3289 45.4131C84.3347 46.8841 84.3159 48.3535 84.2941 49.8245C84.2941 49.8824 84.2115 49.939 84.1681 49.9969H83.8782C83.7768 49.2071 83.6768 48.4188 83.5695 47.5898H82.758C82.758 47.9275 82.7797 48.2362 82.7536 48.5405C82.7102 49.0274 82.6363 49.5129 82.5739 49.9984H82.2841V49.9969Z" fill="#0A1D56"/>
<path d="M67.2078 49.9969C67.2063 49.7665 67.1629 49.5259 67.2078 49.3057C67.4715 48.0304 67.7483 46.7565 68.0454 45.4885C68.0802 45.3421 68.2628 45.2305 68.3773 45.1016C68.486 45.2059 68.6628 45.2958 68.6903 45.4175C69.0149 46.8522 69.3207 48.2912 69.6192 49.7317C69.6352 49.81 69.5584 49.9071 69.5236 49.9969H69.0888C69.0251 49.7955 69.0048 49.5622 68.886 49.4013C68.7599 49.2289 68.5396 49.0187 68.3613 49.0187C68.1802 49.0187 67.9585 49.2245 67.8324 49.3984C67.715 49.5593 67.7005 49.7955 67.6397 49.9969H67.2049H67.2078ZM68.6831 48.3738C68.5961 47.7985 68.5135 47.2522 68.4309 46.7058C68.3773 46.7058 68.3237 46.7058 68.27 46.7058C68.1918 47.2522 68.1121 47.7985 68.028 48.3753C68.1845 48.4057 68.2744 48.4376 68.3628 48.4376C68.4526 48.4376 68.541 48.4043 68.6816 48.3738H68.6831Z" fill="#0A1D56"/>
<path d="M131.125 49.9972V45.0975C131.518 45.0975 131.944 45.0729 132.363 45.112C132.5 45.125 132.623 45.3004 132.752 45.4018C132.618 45.496 132.494 45.6279 132.344 45.6757C132.17 45.7308 131.974 45.712 131.744 45.7293V46.9626C132.07 47.1481 132.363 47.3133 132.654 47.48C132.384 47.6162 132.116 47.751 131.755 47.9336V49.0741C131.952 49.6175 133.163 48.8364 132.574 50.0001H131.125V49.9972Z" fill="#0A1D56"/>
<path d="M126.486 49.9969C126.342 49.7882 126.197 49.5781 126.095 49.4274C126.563 49.252 127.052 49.2201 127.209 48.9752C127.519 48.4897 127.139 48.0651 126.773 47.7289C126.25 47.2478 125.873 46.7159 126.021 45.9551C126.145 45.3073 126.641 44.9291 127.281 45.0783C127.49 45.1262 127.651 45.387 127.806 45.5247C127.339 45.7334 126.793 45.8392 126.767 46.0203C126.719 46.3536 126.935 46.7551 127.119 47.084C127.292 47.3942 127.609 47.6231 127.786 47.9333C128.207 48.6709 127.989 49.3882 127.21 49.9984H126.486V49.9969Z" fill="#0A1D56"/>
<path d="M148.95 49.997C148.263 49.6811 147.913 49.1057 147.907 48.3884C147.901 47.5783 147.942 46.7523 148.094 45.9595C148.215 45.332 148.721 44.9784 149.392 45.0741C149.582 45.1002 149.74 45.3451 150.052 45.603C148.892 45.7248 148.684 45.9248 148.584 46.887C148.542 47.2928 148.54 47.7087 148.582 48.113C148.682 49.0811 148.875 49.2666 149.876 49.413C149.805 49.6187 149.739 49.8086 149.673 49.997H148.949H148.95Z" fill="#0A1D56"/>
<path d="M78.0795 49.9971C77.0346 49.0986 76.6853 46.7988 77.5041 45.6539C77.7259 45.3438 78.236 45.2003 78.6417 45.0815C78.7693 45.0438 78.9939 45.3322 79.3142 45.5814C77.9954 45.7698 77.7809 46.1104 77.7983 47.6306C77.8128 48.9291 78.0577 49.2769 79.1214 49.4001C79.062 49.6073 79.0055 49.8029 78.949 49.9971H78.0795Z" fill="#0A1D56"/>
<path d="M97.2125 49.9967C97.1792 48.4577 97.1343 46.9186 97.1328 45.3796C97.1328 45.2666 97.4531 45.1535 97.7676 44.9463V49.2721C98.1168 49.3113 98.4182 49.3446 98.8066 49.3881V49.9967H97.2125Z" fill="#0A1D56"/>
<path d="M101.846 49.9974C101.811 48.4642 101.772 46.9309 101.758 45.3977C101.758 45.2991 101.959 45.2006 102.068 45.1006C102.182 45.2412 102.391 45.3803 102.395 45.5238C102.424 46.5092 102.411 47.4961 102.411 48.483C102.411 48.7424 102.411 49.0033 102.411 49.2786C102.788 49.3192 103.091 49.3525 103.506 49.3974C103.423 49.6322 103.359 49.8148 103.295 49.996H101.846V49.9974Z" fill="#0A1D56"/>
<path d="M93.2942 49.9969C93.2479 49.4086 93.1768 48.8202 93.1624 48.2304C93.1406 47.3188 93.145 46.4073 93.1711 45.4972C93.1754 45.3624 93.3551 45.2334 93.4536 45.1016C93.5797 45.2045 93.8174 45.3102 93.8159 45.4117C93.8058 46.9406 93.7638 48.4695 93.729 49.9969H93.2942Z" fill="#0A1D56"/>
<path d="M139.095 49.9969C139.082 48.5101 139.059 47.0246 139.069 45.5378C139.069 45.3914 139.272 45.2479 139.379 45.1016C139.486 45.2465 139.686 45.39 139.688 45.5363C139.701 47.0232 139.683 48.5086 139.673 49.9955H139.094L139.095 49.9969Z" fill="#0A1D56"/>
<path d="M146.981 18.9922C148.573 24.5426 150.109 29.8959 151.676 35.3521C150.834 35.3521 150.089 35.3956 149.356 35.3231C149.16 35.3043 148.911 34.9521 148.838 34.7072C147.965 31.719 147.12 28.7206 146.265 25.7266C146.199 25.4991 146.126 25.2759 146.012 24.9107C143.507 28.6395 141.074 32.2581 138.558 36.0028C136.08 32.303 133.649 28.6757 131.119 24.8991C130.753 26.1715 130.432 27.2743 130.118 28.3786C129.516 30.4915 128.906 32.6015 128.329 34.7217C128.202 35.1927 128.015 35.4101 127.492 35.3666C126.851 35.3144 126.203 35.3536 125.469 35.3536C127.034 29.9002 128.57 24.5469 130.164 18.9922C133 23.3687 135.742 27.6033 138.556 31.948C141.366 27.625 144.118 23.3919 146.979 18.9922H146.981Z" fill="#0A1D56"/>
<path d="M111.5 35.3184H108.98V27.8609H97.2008V35.3025H94.6328V19.8946C95.3647 19.8946 96.0849 19.8613 96.7965 19.9236C96.9385 19.9367 97.153 20.312 97.1573 20.5236C97.1877 22.1163 97.1747 23.7104 97.1747 25.3045C97.1747 25.5624 97.1747 25.8218 97.1747 26.1088H108.958V19.9454H111.5V35.3198V35.3184Z" fill="#0A1D56"/>
<path d="M36.5008 35.3258H33.9531V19.9035C35.3429 19.9035 36.7414 19.802 38.1196 19.9296C39.7658 20.0817 41.4295 20.2991 43.0207 20.7281C44.6018 21.1527 45.651 22.2613 45.7061 24.0177C45.7611 25.7437 44.8351 26.919 43.3395 27.5871C42.3468 28.0305 41.2541 28.2508 40.1267 28.5957C42.4439 30.7797 44.7844 32.9868 47.2784 35.3388C46.1234 35.3388 45.1525 35.362 44.1844 35.3185C43.9917 35.3098 43.7946 35.0591 43.625 34.8954C41.6295 32.9665 39.6383 31.0318 37.6471 29.1001C37.5428 28.9986 37.4558 28.8609 37.3326 28.8044C37.1269 28.7102 36.8906 28.6088 36.6834 28.6349C36.6022 28.645 36.5109 28.9885 36.5095 29.1812C36.4965 30.9434 36.5023 32.7042 36.5023 34.4664C36.5023 34.7273 36.5023 34.9896 36.5023 35.3272L36.5008 35.3258ZM36.5327 27.1364C37.9341 27.0045 39.2514 26.9132 40.5571 26.7379C41.0455 26.6727 41.5338 26.4553 41.9744 26.2191C42.7686 25.7944 43.1352 25.0872 43.1033 24.1844C43.0714 23.2888 42.6802 22.5917 41.8672 22.2033C40.1702 21.3918 38.3587 21.5932 36.5327 21.5237V27.1378V27.1364Z" fill="#0A1D56"/>
<path d="M21.7127 35.3515C20.7519 35.3515 19.9578 35.3863 19.1709 35.3298C18.9462 35.3138 18.6738 35.0776 18.5376 34.8675C17.7999 33.7357 17.1174 32.5676 16.3667 31.4445C16.2145 31.217 15.8508 31.0054 15.5812 31.0025C12.6611 30.9706 9.74098 30.9692 6.82086 31.0025C6.53247 31.0054 6.14554 31.2344 5.97888 31.4764C5.21371 32.5893 4.49491 33.7357 3.7935 34.8892C3.57612 35.2472 3.32541 35.3761 2.91674 35.3588C2.22113 35.3283 1.52262 35.3501 0.632812 35.3501C4.21521 29.9112 7.71936 24.5913 11.309 19.1394C14.7856 24.5565 18.2014 29.8765 21.7142 35.3486L21.7127 35.3515ZM7.36865 29.2982H15.0407C13.7552 27.2389 12.5292 25.2738 11.2481 23.2218C9.92648 25.2912 8.68597 27.2375 7.3701 29.2982H7.36865Z" fill="#0A1D56"/>
<path d="M79.203 32.1071C79.2175 32.1477 79.2335 32.1709 79.2335 32.1941C79.2407 34.5244 79.6972 34.0896 77.4828 34.7896C72.7585 36.2822 68.1718 35.904 63.8952 33.2839C62.0692 32.1651 60.6983 30.6217 60.3809 28.387C60.123 26.5625 60.7621 25.0046 61.9533 23.6656C63.888 21.4889 66.4269 20.4266 69.2181 19.9194C72.3454 19.3513 75.4148 19.5702 78.4045 20.7397C79.0697 20.9991 79.3842 21.344 79.2711 22.0686C79.2175 22.4135 79.2624 22.7743 79.2624 23.2685C78.9204 23.0801 78.7016 22.9497 78.4755 22.8337C74.5975 20.8498 70.647 20.6237 66.7211 22.5801C65.6574 23.1105 64.6749 23.9757 63.9126 24.9003C62.517 26.593 62.5938 28.6943 63.9445 30.4463C65.4415 32.3868 67.5356 33.3331 69.876 33.7607C73.0077 34.3331 75.9786 33.8346 78.7538 32.252C78.8581 32.1926 78.9682 32.1419 79.0769 32.0912C79.0943 32.0825 79.1219 32.0955 79.2045 32.1057L79.203 32.1071Z" fill="#0A1D56"/>
<path d="M185.078 19.8899V33.7282H191.389V35.2904H182.504C182.489 35.0557 182.466 34.8441 182.466 34.6325C182.465 29.9734 182.473 25.3157 182.453 20.6565C182.45 20.0696 182.592 19.8247 183.213 19.8783C183.804 19.929 184.402 19.8899 185.079 19.8899H185.078Z" fill="#0A1D56"/>
<path d="M208.84 19.8907V33.7159H215.161V35.3101H206.277C206.264 35.0535 206.244 34.8188 206.244 34.584C206.243 29.948 206.256 25.3121 206.227 20.6776C206.222 20.0254 206.409 19.8225 207.043 19.8805C207.611 19.9327 208.187 19.8921 208.84 19.8921V19.8907Z" fill="#0A1D56"/>
<path d="M165.086 35.3136V19.958H167.625V35.3136H165.086Z" fill="#0A1D56"/>
</svg>
