<svg width="82" height="30" viewBox="0 0 82 30" fill="none" xmlns="http://www.w3.org/2000/svg">
<path d="M81.6348 1.03518C81.6366 0.238048 81.4912 -0.00373441 80.6299 4.34507e-05C67.4735 0.0340442 54.319 0.0227106 41.1626 0.0227106C28.0062 0.0227106 14.8517 0.0321552 1.69532 0.00193238C0.864193 0.00193238 0.65828 0.194603 0.660169 1.02951C0.692281 10.3627 0.692281 19.6978 0.660169 29.0329C0.65828 29.83 0.864185 30 1.64053 30C27.9835 29.9773 54.3265 29.9773 80.6676 30C81.4496 30 81.6366 29.8243 81.6348 29.0385C81.6026 19.7053 81.6045 10.3703 81.6348 1.03518ZM75.8565 25.629C52.6907 25.6064 29.523 25.6064 6.35718 25.6309C5.53172 25.6309 5.31639 25.4477 5.32205 24.6052C5.36172 18.2244 5.3655 11.8436 5.32016 5.46282C5.31261 4.54669 5.61483 4.40691 6.42707 4.4088C18.01 4.43147 29.5929 4.42391 41.1777 4.42391C52.7606 4.42391 64.3435 4.43336 75.9283 4.40125C76.7745 4.39936 76.9521 4.61658 76.9483 5.43449C76.9124 11.8153 76.9086 18.1961 76.9521 24.5769C76.9578 25.4666 76.6877 25.6309 75.8603 25.629H75.8565Z" fill="#0A1D56"/>
<path d="M47.2408 14.6617C45.758 13.925 44.1392 13.6775 42.5355 13.3848C40.809 13.0693 39.0429 12.9333 37.3749 12.3383C36.897 12.1683 36.4078 11.9303 36.4418 11.3088C36.472 10.744 36.9443 10.5306 37.3901 10.3833C38.8823 9.88646 40.4123 9.87702 41.9537 10.1188C42.9699 10.2794 43.8238 10.6893 44.211 11.7168C44.3262 12.0247 44.5113 12.0738 44.7833 12.0625C45.9771 12.0191 47.1709 11.9624 48.3647 11.9473C48.9937 11.9397 48.9805 11.6639 48.8351 11.1766C48.3024 9.39345 46.8876 8.61333 45.2877 8.12787C42.7811 7.36852 40.2027 7.3893 37.6243 7.67075C36.115 7.83509 34.6473 8.17887 33.3988 9.11011C31.4928 10.5325 31.506 12.6443 33.4101 14.0572C34.687 15.0055 36.1925 15.3341 37.7017 15.6345C39.6096 16.0123 41.5344 16.3069 43.4384 16.7036C44.1298 16.8472 44.9269 17.0814 44.9552 17.9956C44.9835 18.8664 44.2695 19.231 43.5971 19.4973C42.1596 20.0678 40.6579 20.081 39.143 19.8751C37.6224 19.6673 36.3606 19.0723 35.7656 17.5498C35.6371 17.2193 35.4501 17.2249 35.1932 17.2419C34.0334 17.3194 32.8736 17.4044 31.7119 17.4648C31.251 17.4875 31.149 17.6046 31.2983 18.0863C31.9405 20.1622 33.4819 21.2351 35.4275 21.8528C37.0916 22.3817 38.8143 22.5064 40.1177 22.4724C42.8887 22.4686 45.2197 22.3742 47.3334 21.2219C48.6292 20.5155 49.6133 19.5068 49.5925 17.8993C49.5718 16.2918 48.5914 15.3304 47.2408 14.6598V14.6617Z" fill="#0A1D56"/>
<path d="M67.8608 14.721C66.6556 14.0807 65.3259 13.8276 64.0036 13.5612C61.9749 13.1532 59.8914 13.021 57.9137 12.3637C57.4301 12.2031 56.9145 11.9443 56.9163 11.3663C56.9163 10.7902 57.4207 10.5295 57.9156 10.3765C59.6383 9.84572 61.3761 9.82683 63.1177 10.2764C63.5805 10.3973 64.1339 10.607 64.2662 11.0301C64.6591 12.2938 65.6281 12.0444 66.5272 12.0312C67.2186 12.0199 67.9099 11.9594 68.5994 11.9783C69.4343 12.001 69.5174 11.6156 69.2662 10.9489C68.7354 9.53216 67.6058 8.77281 66.2703 8.29869C63.6353 7.36367 60.9058 7.392 58.1706 7.66968C56.6613 7.82268 55.1936 8.16458 53.9375 9.0826C51.9881 10.5106 51.9957 12.6602 53.9432 14.0901C54.9519 14.8306 56.1268 15.1649 57.3206 15.4558C59.5476 15.998 61.854 16.1189 64.064 16.746C64.7044 16.9273 65.392 17.1445 65.4449 17.9549C65.4977 18.786 64.8706 19.1732 64.2189 19.4377C62.4056 20.1725 60.545 20.1612 58.6787 19.6663C57.5888 19.3773 56.7501 18.7482 56.3289 17.6772C56.1872 17.3164 56.0115 17.2125 55.6375 17.2428C54.542 17.3315 53.4445 17.4109 52.347 17.4411C51.6972 17.46 51.6651 17.7377 51.8427 18.2515C52.4415 19.9893 53.7127 21.0357 55.3674 21.6629C57.2167 22.3636 59.1566 22.5034 61.1154 22.4657C61.429 22.4657 61.7444 22.477 62.058 22.4657C64.1396 22.3901 66.2099 22.2031 68.044 21.1C69.2511 20.3746 70.137 19.3754 70.0935 17.8472C70.0501 16.3172 69.1188 15.3878 67.8627 14.721H67.8608Z" fill="#0A1D56"/>
<path d="M28.0638 9.23686C26.9607 8.38685 25.6838 7.99773 24.3086 7.89761C20.5081 7.61994 16.7 7.82772 12.8976 7.74083C12.2535 7.72572 12.1912 7.99773 12.1949 8.51718C12.2138 10.6838 12.2025 12.8523 12.2044 15.0208C12.2044 17.1571 12.2044 19.2935 12.2044 21.4299C12.2044 21.462 12.2082 21.4941 12.2044 21.5243C12.1137 22.0872 12.3139 22.2931 12.9165 22.2648C14.0158 22.2119 15.119 22.2251 16.2184 22.261C16.7151 22.278 16.8549 22.1288 16.8436 21.6339C16.8115 20.221 16.853 18.8062 16.8209 17.3933C16.8096 16.8984 16.9531 16.7624 17.448 16.768C19.2085 16.7888 20.9728 16.7982 22.7314 16.7397C24.6298 16.6774 26.4998 16.4167 28.0676 15.2059C30.1322 13.6097 30.1228 10.8255 28.0638 9.24064V9.23686ZM22.6029 14.1273C20.8576 14.3823 19.099 14.269 17.346 14.303C16.9135 14.3124 16.819 14.1386 16.8266 13.7533C16.8455 12.7522 16.8568 11.7472 16.8228 10.7461C16.8058 10.2512 17.0325 10.187 17.4424 10.2002C18.2244 10.2248 19.0083 10.2078 19.7922 10.2078C19.7922 10.2531 19.7922 10.2966 19.7922 10.3419C20.5742 10.3419 21.3581 10.3381 22.1401 10.3438C22.3271 10.3438 22.5179 10.3627 22.7012 10.3986C24.0215 10.6592 24.8243 11.3921 24.7979 12.3026C24.7714 13.1866 23.8912 13.9365 22.6048 14.1254L22.6029 14.1273Z" fill="#0A1D56"/>
</svg>
