<svg width="100" height="100" viewBox="0 0 100 100" fill="none" xmlns="http://www.w3.org/2000/svg">
<g opacity="0.27">
<mask id="mask0_367_2933" style="mask-type:luminance" maskUnits="userSpaceOnUse" x="5" y="2" width="94" height="95">
<path d="M97.7828 60.2574C103.585 34.8548 87.8822 9.51531 62.7092 3.66001C37.5362 -2.19529 12.4257 13.6509 6.62335 39.0534C0.820954 64.456 16.5239 89.7955 41.6969 95.6508C66.8699 101.506 91.9804 85.6599 97.7828 60.2574Z" fill="white"/>
</mask>
<g mask="url(#mask0_367_2933)">
<path d="M40.1633 0.237305C27.2262 14.0945 13.3353 26.9968 0.390625 40.9074" stroke="white" stroke-width="0.73" stroke-miterlimit="10"/>
<path d="M46.0821 0.191406C31.6688 15.775 15.5523 30.9155 0.359375 46.3081" stroke="white" stroke-width="0.73" stroke-miterlimit="10"/>
<path d="M51.5593 0.199219C34.4512 17.4634 17.2219 34.8421 0.25 51.9841" stroke="white" stroke-width="0.73" stroke-miterlimit="10"/>
<path d="M56.9885 0.329102C38.3436 19.144 19.4489 38.211 0.296875 57.5224" stroke="white" stroke-width="0.73" stroke-miterlimit="10"/>
<path d="M63.629 0.275391C42.7813 20.8243 21.6686 41.5719 0.351562 62.9382" stroke="white" stroke-width="0.73" stroke-miterlimit="10"/>
<path d="M67.994 0.351562C46.1243 23.07 24.4515 44.3752 2.21844 67.3686C1.66583 67.9263 0.553042 67.9263 0.257812 68.6978" stroke="white" stroke-width="0.73" stroke-miterlimit="10"/>
<path d="M74.0329 0.25293C60.5734 14.6601 46.1223 27.5548 31.6712 42.1376C21.1111 53.3517 10.551 62.8852 0.4375 74.084" stroke="white" stroke-width="0.73" stroke-miterlimit="10"/>
<path d="M77.7776 1.36816C52.2289 27.5547 25.5598 52.7864 0.359375 79.6833" stroke="white" stroke-width="0.73" stroke-miterlimit="10"/>
<path d="M77.7275 6.9209C52.2318 32.6033 26.1154 58.9578 0.453125 84.9992" stroke="white" stroke-width="0.73" stroke-miterlimit="10"/>
<path d="M80.5289 9.93848C53.8977 37.0875 26.6685 63.4421 0.46875 90.6446" stroke="white" stroke-width="0.73" stroke-miterlimit="10"/>
<path d="M86.0626 9.9082C57.2361 38.7684 29.4467 68.4918 0.226562 96.4506" stroke="white" stroke-width="0.73" stroke-miterlimit="10"/>
<path d="M91.1912 10.1064C61.6758 39.891 32.7812 69.0491 3.27344 98.8259" stroke="white" stroke-width="0.73" stroke-miterlimit="10"/>
<path d="M96.5911 10.1143C67.2347 39.3335 38.3401 69.0492 8.71875 98.8796" stroke="white" stroke-width="0.73" stroke-miterlimit="10"/>
<path d="M99.5012 12.6357C71.1289 41.0147 43.3471 70.1728 14.1875 98.9031" stroke="white" stroke-width="0.73" stroke-miterlimit="10"/>
<path d="M99.6641 17.9219C72.7907 44.9411 47.2344 72.9762 19.6797 98.9031" stroke="white" stroke-width="0.73" stroke-miterlimit="10"/>
<path d="M99.4647 23.9873C74.4686 48.8599 50.0175 74.0992 25.2031 98.8725" stroke="white" stroke-width="0.73" stroke-miterlimit="10"/>
<path d="M99.6212 29.1279C76.6842 52.2283 53.8985 75.787 30.7344 98.8263" stroke="white" stroke-width="0.73" stroke-miterlimit="10"/>
<path d="M99.5626 34.7812C78.3516 56.1552 57.2389 77.4681 36.1641 98.8955" stroke="white" stroke-width="0.73" stroke-miterlimit="10"/>
<path d="M99.6298 40.3193C80.5762 60.0738 61.1289 79.7061 41.7422 98.8036" stroke="white" stroke-width="0.73" stroke-miterlimit="10"/>
<path d="M99.5566 45.9795C82.2441 63.4499 64.4622 81.3939 47.1875 98.8491" stroke="white" stroke-width="0.73" stroke-miterlimit="10"/>
<path d="M99.4085 51.7168C83.9051 67.3691 68.3488 83.0673 52.6562 98.8724" stroke="white" stroke-width="0.73" stroke-miterlimit="10"/>
<path d="M99.5863 56.9189C88.799 67.7587 78.027 78.6137 67.3154 89.5222C64.2496 92.639 61.1913 95.7633 58.1406 98.8953" stroke="white" stroke-width="0.73" stroke-miterlimit="10"/>
<path d="M99.5443 63.1289C87.8033 75.2215 75.5778 87.5585 63.6172 98.9024" stroke="white" stroke-width="0.73" stroke-miterlimit="10"/>
</g>
</g>
</svg>
