<svg width="100" height="100" viewBox="0 0 100 100" fill="none" xmlns="http://www.w3.org/2000/svg">
<g opacity="0.5" clip-path="url(#clip0_371_4037)">
<g opacity="0.27">
<mask id="mask0_371_4037" style="mask-type:luminance" maskUnits="userSpaceOnUse" x="2" y="3" width="94" height="95">
<path d="M94.7828 61.2574C100.585 35.8548 84.8822 10.5153 59.7092 4.66001C34.5362 -1.19529 9.42574 14.6509 3.62335 40.0534C-2.17905 65.456 13.5239 90.7955 38.6969 96.6508C63.8699 102.506 88.9804 86.6599 94.7828 61.2574Z" fill="white"/>
</mask>
<g mask="url(#mask0_371_4037)">
<path d="M37.1633 1.2373C24.2262 15.0945 10.3353 27.9968 -2.60938 41.9074Z" fill="white"/>
<path d="M37.1633 1.2373C24.2262 15.0945 10.3353 27.9968 -2.60938 41.9074" stroke="white" stroke-width="0.73" stroke-miterlimit="10"/>
<path d="M43.0821 1.19141C28.6688 16.775 12.5523 31.9155 -2.64062 47.3081Z" fill="white"/>
<path d="M43.0821 1.19141C28.6688 16.775 12.5523 31.9155 -2.64062 47.3081" stroke="white" stroke-width="0.73" stroke-miterlimit="10"/>
<path d="M48.5593 1.19922C31.4512 18.4634 14.2219 35.8421 -2.75 52.9841Z" fill="white"/>
<path d="M48.5593 1.19922C31.4512 18.4634 14.2219 35.8421 -2.75 52.9841" stroke="white" stroke-width="0.73" stroke-miterlimit="10"/>
<path d="M53.9885 1.3291C35.3436 20.144 16.4489 39.211 -2.70312 58.5224Z" fill="white"/>
<path d="M53.9885 1.3291C35.3436 20.144 16.4489 39.211 -2.70312 58.5224" stroke="white" stroke-width="0.73" stroke-miterlimit="10"/>
<path d="M60.629 1.27539C39.7813 21.8243 18.6686 42.5719 -2.64844 63.9382Z" fill="white"/>
<path d="M60.629 1.27539C39.7813 21.8243 18.6686 42.5719 -2.64844 63.9382" stroke="white" stroke-width="0.73" stroke-miterlimit="10"/>
<path d="M64.994 1.35156C43.1243 24.07 21.4515 45.3752 -0.781563 68.3686C-1.33417 68.9263 -2.44696 68.9263 -2.74219 69.6978" fill="white"/>
<path d="M64.994 1.35156C43.1243 24.07 21.4515 45.3752 -0.781563 68.3686C-1.33417 68.9263 -2.44696 68.9263 -2.74219 69.6978" stroke="white" stroke-width="0.73" stroke-miterlimit="10"/>
<path d="M71.0329 1.25293C57.5734 15.6601 43.1223 28.5548 28.6712 43.1376C18.1111 54.3517 7.551 63.8852 -2.5625 75.084" fill="white"/>
<path d="M71.0329 1.25293C57.5734 15.6601 43.1223 28.5548 28.6712 43.1376C18.1111 54.3517 7.551 63.8852 -2.5625 75.084" stroke="white" stroke-width="0.73" stroke-miterlimit="10"/>
<path d="M74.7776 2.36816C49.2289 28.5547 22.5598 53.7864 -2.64062 80.6833Z" fill="white"/>
<path d="M74.7776 2.36816C49.2289 28.5547 22.5598 53.7864 -2.64062 80.6833" stroke="white" stroke-width="0.73" stroke-miterlimit="10"/>
<path d="M74.7275 7.9209C49.2318 33.6033 23.1154 59.9578 -2.54688 85.9992Z" fill="white"/>
<path d="M74.7275 7.9209C49.2318 33.6033 23.1154 59.9578 -2.54688 85.9992" stroke="white" stroke-width="0.73" stroke-miterlimit="10"/>
<path d="M77.5289 10.9385C50.8977 38.0875 23.6685 64.4421 -2.53125 91.6446Z" fill="white"/>
<path d="M77.5289 10.9385C50.8977 38.0875 23.6685 64.4421 -2.53125 91.6446" stroke="white" stroke-width="0.73" stroke-miterlimit="10"/>
<path d="M83.0626 10.9082C54.2361 39.7684 26.4467 69.4918 -2.77344 97.4506Z" fill="white"/>
<path d="M83.0626 10.9082C54.2361 39.7684 26.4467 69.4918 -2.77344 97.4506" stroke="white" stroke-width="0.73" stroke-miterlimit="10"/>
<path d="M88.1912 11.1064C58.6758 40.891 29.7812 70.0491 0.273438 99.8259Z" fill="white"/>
<path d="M88.1912 11.1064C58.6758 40.891 29.7812 70.0491 0.273438 99.8259" stroke="white" stroke-width="0.73" stroke-miterlimit="10"/>
<path d="M93.5911 11.1143C64.2347 40.3335 35.3401 70.0492 5.71875 99.8796Z" fill="white"/>
<path d="M93.5911 11.1143C64.2347 40.3335 35.3401 70.0492 5.71875 99.8796" stroke="white" stroke-width="0.73" stroke-miterlimit="10"/>
<path d="M96.5012 13.6357C68.1289 42.0147 40.3471 71.1728 11.1875 99.9031Z" fill="white"/>
<path d="M96.5012 13.6357C68.1289 42.0147 40.3471 71.1728 11.1875 99.9031" stroke="white" stroke-width="0.73" stroke-miterlimit="10"/>
<path d="M96.6641 18.9219C69.7907 45.9411 44.2344 73.9762 16.6797 99.9031Z" fill="white"/>
<path d="M96.6641 18.9219C69.7907 45.9411 44.2344 73.9762 16.6797 99.9031" stroke="white" stroke-width="0.73" stroke-miterlimit="10"/>
<path d="M96.4647 24.9873C71.4686 49.8599 47.0175 75.0992 22.2031 99.8725Z" fill="white"/>
<path d="M96.4647 24.9873C71.4686 49.8599 47.0175 75.0992 22.2031 99.8725" stroke="white" stroke-width="0.73" stroke-miterlimit="10"/>
<path d="M96.6212 30.1279C73.6842 53.2283 50.8985 76.787 27.7344 99.8263Z" fill="white"/>
<path d="M96.6212 30.1279C73.6842 53.2283 50.8985 76.787 27.7344 99.8263" stroke="white" stroke-width="0.73" stroke-miterlimit="10"/>
<path d="M96.5626 35.7812C75.3516 57.1552 54.2389 78.4681 33.1641 99.8955Z" fill="white"/>
<path d="M96.5626 35.7812C75.3516 57.1552 54.2389 78.4681 33.1641 99.8955" stroke="white" stroke-width="0.73" stroke-miterlimit="10"/>
<path d="M96.6298 41.3193C77.5762 61.0738 58.1289 80.7061 38.7422 99.8036Z" fill="white"/>
<path d="M96.6298 41.3193C77.5762 61.0738 58.1289 80.7061 38.7422 99.8036" stroke="white" stroke-width="0.73" stroke-miterlimit="10"/>
<path d="M96.5566 46.9795C79.2441 64.4499 61.4622 82.3939 44.1875 99.8491Z" fill="white"/>
<path d="M96.5566 46.9795C79.2441 64.4499 61.4622 82.3939 44.1875 99.8491" stroke="white" stroke-width="0.73" stroke-miterlimit="10"/>
<path d="M96.4085 52.7168C80.9051 68.3691 65.3488 84.0673 49.6562 99.8724Z" fill="white"/>
<path d="M96.4085 52.7168C80.9051 68.3691 65.3488 84.0673 49.6562 99.8724" stroke="white" stroke-width="0.73" stroke-miterlimit="10"/>
<path d="M96.5863 57.9189C85.799 68.7587 75.027 79.6137 64.3154 90.5222C61.2496 93.639 58.1913 96.7633 55.1406 99.8953" fill="white"/>
<path d="M96.5863 57.9189C85.799 68.7587 75.027 79.6137 64.3154 90.5222C61.2496 93.639 58.1913 96.7633 55.1406 99.8953" stroke="white" stroke-width="0.73" stroke-miterlimit="10"/>
<path d="M96.5443 64.1289C84.8033 76.2215 72.5778 88.5585 60.6172 99.9024Z" fill="white"/>
<path d="M96.5443 64.1289C84.8033 76.2215 72.5778 88.5585 60.6172 99.9024" stroke="white" stroke-width="0.73" stroke-miterlimit="10"/>
</g>
</g>
</g>
<defs>
<clipPath id="clip0_371_4037">
<rect width="99.8632" height="99.1009" fill="white"/>
</clipPath>
</defs>
</svg>
