<svg width="29" height="25" viewBox="0 0 29 25" fill="none" xmlns="http://www.w3.org/2000/svg">
<g opacity="0.5">
<path d="M28.7432 1.02161C28.8834 0.368891 28.2435 -0.181474 27.6193 0.056716L0.541957 10.3933C0.216074 10.5177 0.000523122 10.8301 -0.000151002 11.1789C-0.000825126 11.5277 0.21349 11.8409 0.538924 11.9666L8.14546 14.9044V24.1574C8.14546 24.5478 8.41348 24.8869 8.79323 24.9772C9.17046 25.0669 9.56381 24.8875 9.74066 24.5366L12.8866 18.2938L20.564 23.9914C21.031 24.338 21.7023 24.1176 21.8722 23.5606C29.0403 0.0585706 28.7304 1.08065 28.7432 1.02161ZM22.0592 3.98315L8.86868 13.377L3.19323 11.1851L22.0592 3.98315ZM9.83077 14.7608L21.3284 6.57263C11.4348 17.0098 11.9516 16.4604 11.9084 16.5185C11.8443 16.6047 12.0199 16.2686 9.83077 20.6128V14.7608ZM20.6088 21.926L13.8509 16.9107L26.07 4.02023L20.6088 21.926Z" fill="white"/>
</g>
</svg>
