<svg width="25" height="25" viewBox="0 0 25 25" fill="none" xmlns="http://www.w3.org/2000/svg">
<g opacity="0.5">
<path d="M12.5 25.0001C19.4036 25.0001 25 19.4037 25 12.5001C25 5.59656 19.4036 0.00012207 12.5 0.00012207C5.59644 0.00012207 0 5.59656 0 12.5001C0 19.4037 5.59644 25.0001 12.5 25.0001Z" fill="#0052B4"/>
<path d="M12.4993 4.89075L12.904 6.1363H14.2136L13.1541 6.90608L13.5588 8.15164L12.4993 7.38181L11.4397 8.15164L11.8445 6.90608L10.7849 6.1363H12.0946L12.4993 4.89075Z" fill="#FFDA44"/>
<path d="M7.12046 7.11965L8.28745 7.71418L9.21348 6.78821L9.00854 8.08167L10.1755 8.67624L8.88198 8.88113L8.6771 10.1747L8.08252 9.00774L6.78906 9.21267L7.71509 8.28665L7.12046 7.11965Z" fill="#FFDA44"/>
<path d="M4.89062 12.4994L6.13618 12.0947V10.785L6.90591 11.8446L8.15151 11.4399L7.38164 12.4994L8.15151 13.5589L6.90591 13.1542L6.13618 14.2137V12.9041L4.89062 12.4994Z" fill="#FFDA44"/>
<path d="M7.12046 17.8793L7.71504 16.7123L6.78906 15.7863L8.08257 15.9913L8.67705 14.8243L8.88198 16.1178L10.1754 16.3227L9.00864 16.9173L9.21348 18.2108L8.28745 17.2847L7.12046 17.8793Z" fill="#FFDA44"/>
<path d="M12.4995 20.1086L12.0947 18.863H10.7852L11.8447 18.0932L11.4399 16.8478L12.4995 17.6175L13.559 16.8478L13.1543 18.0932L14.2138 18.863H12.9042L12.4995 20.1086Z" fill="#FFDA44"/>
<path d="M17.8792 17.8793L16.7122 17.2848L15.7861 18.2108L15.9911 16.9173L14.8242 16.3227L16.1177 16.1178L16.3226 14.8243L16.9171 15.9913L18.2105 15.7863L17.2845 16.7124L17.8792 17.8793Z" fill="#FFDA44"/>
<path d="M20.1084 12.4996L18.8629 12.9044V14.214L18.0931 13.1544L16.8477 13.5592L17.6174 12.4996L16.8477 11.4401L18.0932 11.8448L18.8629 10.7853V12.0949L20.1084 12.4996Z" fill="#FFDA44"/>
<path d="M17.8792 7.1196L17.2846 8.2866L18.2106 9.21262L16.917 9.00764L16.3226 10.1746L16.1177 8.88108L14.8242 8.67615L15.9911 8.08162L15.7861 6.78821L16.7123 7.71418L17.8792 7.1196Z" fill="#FFDA44"/>
</g>
</svg>
