<svg width="62" height="62" viewBox="0 0 62 62" fill="none" xmlns="http://www.w3.org/2000/svg">
<rect width="62" height="62" rx="31" fill="#DFE2FF"/>
<mask id="path-2-inside-1_1233_8418" fill="white">
<path d="M33.0048 46.8444H28.6132C28.0954 46.8461 27.5926 46.6702 27.1887 46.3461C26.7848 46.022 26.5042 45.5692 26.3937 45.0633L25.8365 42.5902C24.9182 42.1992 24.0516 41.6963 23.2565 41.0929L20.8508 41.8521C19.8182 42.1703 18.6959 41.7333 18.1783 40.8117L15.9892 37.0248C15.7341 36.5752 15.6374 36.053 15.7145 35.5419C15.7916 35.0307 16.038 34.5603 16.4143 34.2059L18.2787 32.492C18.1664 31.5005 18.1659 30.4996 18.2774 29.508L16.4223 27.8021C16.0444 27.4501 15.7957 26.9814 15.716 26.4712C15.6363 25.961 15.7301 25.4388 15.9826 24.9884L18.1849 21.1791C18.6973 20.268 19.8182 19.827 20.8481 20.1479L23.2565 20.9071C24.0518 20.304 24.9183 19.8011 25.8365 19.4098L26.3937 16.9354C26.5045 16.4297 26.7852 15.9773 27.189 15.6534C27.5929 15.3295 28.0955 15.1538 28.6132 15.1556H33.0048C34.0769 15.1556 34.9893 15.8884 35.2243 16.9367L35.7815 19.4098C36.6998 19.8008 37.5664 20.3037 38.3615 20.9071L40.7672 20.1479C41.7971 19.8257 42.9207 20.2667 43.4396 21.1883L45.6288 24.9752C46.153 25.9126 45.9761 27.0679 45.2037 27.7941L43.3393 29.508C43.4512 30.4995 43.4512 31.5005 43.3393 32.492L45.1957 34.1979L45.2037 34.2059C45.9761 34.9321 46.1543 36.0861 45.6354 37.0116L43.433 40.8209C42.9194 41.732 41.7984 42.173 40.7699 41.8521L38.3602 41.0916C37.5649 41.6947 36.6984 42.1976 35.7802 42.5889L35.223 45.0633C35.113 45.5692 34.8327 46.0221 34.429 46.3463C34.0253 46.6704 33.5225 46.8463 33.0048 46.8444ZM23.4598 39.0001C23.6869 39.0001 23.9101 39.078 24.091 39.2259C24.9954 39.9719 25.9857 40.5463 27.0327 40.9331C27.1876 40.9906 27.3257 41.0857 27.4345 41.21C27.5434 41.3343 27.6195 41.4837 27.656 41.6448L28.328 44.6289C28.3426 44.6947 28.3789 44.7537 28.4311 44.7964C28.4834 44.839 28.5484 44.8628 28.6159 44.8639H33.0074C33.0746 44.8626 33.1394 44.8389 33.1916 44.7966C33.2437 44.7542 33.2802 44.6957 33.2953 44.6302L33.9673 41.6461C34.0036 41.4849 34.0796 41.3354 34.1885 41.2111C34.2973 41.0868 34.4355 40.9917 34.5905 40.9345C35.6599 40.5342 36.6543 39.9571 37.5323 39.2272C37.6595 39.1217 37.8111 39.0499 37.9733 39.0183C38.1355 38.9867 38.303 38.9963 38.4605 39.0463L41.3667 39.964C41.504 40.0062 41.6519 39.9587 41.7166 39.8412L43.9189 36.0332C43.9512 35.9713 43.9623 35.9005 43.9506 35.8316C43.9389 35.7627 43.9051 35.6996 43.8542 35.6517L41.6255 33.6024C41.506 33.4929 41.4154 33.3556 41.3618 33.2026C41.3081 33.0497 41.293 32.8859 41.3178 32.7257C41.405 32.1448 41.4499 31.5638 41.4499 31C41.4499 30.4362 41.4063 29.8566 41.3178 29.2743C41.2935 29.1141 41.3088 28.9504 41.3624 28.7976C41.4161 28.6447 41.5064 28.5074 41.6255 28.3976L43.8595 26.3431C43.91 26.2933 43.9425 26.2282 43.9521 26.158C43.9616 26.0877 43.9476 26.0163 43.9123 25.9549L41.7232 22.1694C41.6519 22.0439 41.5093 21.9951 41.364 22.0373L38.4619 22.9537C38.3044 23.0037 38.1368 23.0133 37.9747 22.9817C37.8125 22.9501 37.6608 22.8783 37.5336 22.7728C36.6559 22.0424 35.6614 21.4653 34.5919 21.0655C34.437 21.0081 34.2989 20.913 34.19 20.7887C34.0812 20.6644 34.0051 20.515 33.9686 20.3539L33.2966 17.3698C33.2801 17.3043 33.2427 17.246 33.19 17.2038C33.1373 17.1616 33.0723 17.1378 33.0048 17.1361H28.6132C28.546 17.1374 28.4812 17.1611 28.4291 17.2034C28.3769 17.2458 28.3404 17.3043 28.3254 17.3698L27.6533 20.3552C27.6172 20.5162 27.5414 20.6657 27.4327 20.79C27.3241 20.9143 27.1862 21.0095 27.0314 21.0669C25.9619 21.4666 24.9673 22.0438 24.0896 22.7741C23.9623 22.8793 23.8106 22.9509 23.6485 22.9825C23.4864 23.0141 23.3189 23.0046 23.1614 22.955L20.2553 22.0373C20.118 21.9951 19.9701 22.0439 19.9054 22.1601L17.703 25.9668C17.6705 26.0293 17.6594 26.1008 17.6716 26.1703C17.6838 26.2397 17.7185 26.3032 17.7704 26.351L19.9978 28.3976C20.1173 28.5071 20.2078 28.6444 20.2615 28.7974C20.3152 28.9503 20.3303 29.1141 20.3055 29.2743C20.2183 29.8552 20.1734 30.4362 20.1734 31C20.1734 31.5638 20.217 32.1434 20.3055 32.7257C20.3298 32.8859 20.3145 33.0496 20.2608 33.2024C20.2072 33.3553 20.1169 33.4926 19.9978 33.6024L17.7638 35.6569C17.7133 35.7067 17.6808 35.7718 17.6712 35.842C17.6617 35.9123 17.6756 35.9837 17.7109 36.0451L19.9001 39.8306C19.9348 39.8914 19.9899 39.938 20.0556 39.9622C20.1213 39.9863 20.1934 39.9865 20.2592 39.9627L23.1614 39.0463C23.2578 39.0153 23.3585 38.9997 23.4598 39.0001Z"/>
</mask>
<path d="M33.0048 46.8444H28.6132C28.0954 46.8461 27.5926 46.6702 27.1887 46.3461C26.7848 46.022 26.5042 45.5692 26.3937 45.0633L25.8365 42.5902C24.9182 42.1992 24.0516 41.6963 23.2565 41.0929L20.8508 41.8521C19.8182 42.1703 18.6959 41.7333 18.1783 40.8117L15.9892 37.0248C15.7341 36.5752 15.6374 36.053 15.7145 35.5419C15.7916 35.0307 16.038 34.5603 16.4143 34.2059L18.2787 32.492C18.1664 31.5005 18.1659 30.4996 18.2774 29.508L16.4223 27.8021C16.0444 27.4501 15.7957 26.9814 15.716 26.4712C15.6363 25.961 15.7301 25.4388 15.9826 24.9884L18.1849 21.1791C18.6973 20.268 19.8182 19.827 20.8481 20.1479L23.2565 20.9071C24.0518 20.304 24.9183 19.8011 25.8365 19.4098L26.3937 16.9354C26.5045 16.4297 26.7852 15.9773 27.189 15.6534C27.5929 15.3295 28.0955 15.1538 28.6132 15.1556H33.0048C34.0769 15.1556 34.9893 15.8884 35.2243 16.9367L35.7815 19.4098C36.6998 19.8008 37.5664 20.3037 38.3615 20.9071L40.7672 20.1479C41.7971 19.8257 42.9207 20.2667 43.4396 21.1883L45.6288 24.9752C46.153 25.9126 45.9761 27.0679 45.2037 27.7941L43.3393 29.508C43.4512 30.4995 43.4512 31.5005 43.3393 32.492L45.1957 34.1979L45.2037 34.2059C45.9761 34.9321 46.1543 36.0861 45.6354 37.0116L43.433 40.8209C42.9194 41.732 41.7984 42.173 40.7699 41.8521L38.3602 41.0916C37.5649 41.6947 36.6984 42.1976 35.7802 42.5889L35.223 45.0633C35.113 45.5692 34.8327 46.0221 34.429 46.3463C34.0253 46.6704 33.5225 46.8463 33.0048 46.8444ZM23.4598 39.0001C23.6869 39.0001 23.9101 39.078 24.091 39.2259C24.9954 39.9719 25.9857 40.5463 27.0327 40.9331C27.1876 40.9906 27.3257 41.0857 27.4345 41.21C27.5434 41.3343 27.6195 41.4837 27.656 41.6448L28.328 44.6289C28.3426 44.6947 28.3789 44.7537 28.4311 44.7964C28.4834 44.839 28.5484 44.8628 28.6159 44.8639H33.0074C33.0746 44.8626 33.1394 44.8389 33.1916 44.7966C33.2437 44.7542 33.2802 44.6957 33.2953 44.6302L33.9673 41.6461C34.0036 41.4849 34.0796 41.3354 34.1885 41.2111C34.2973 41.0868 34.4355 40.9917 34.5905 40.9345C35.6599 40.5342 36.6543 39.9571 37.5323 39.2272C37.6595 39.1217 37.8111 39.0499 37.9733 39.0183C38.1355 38.9867 38.303 38.9963 38.4605 39.0463L41.3667 39.964C41.504 40.0062 41.6519 39.9587 41.7166 39.8412L43.9189 36.0332C43.9512 35.9713 43.9623 35.9005 43.9506 35.8316C43.9389 35.7627 43.9051 35.6996 43.8542 35.6517L41.6255 33.6024C41.506 33.4929 41.4154 33.3556 41.3618 33.2026C41.3081 33.0497 41.293 32.8859 41.3178 32.7257C41.405 32.1448 41.4499 31.5638 41.4499 31C41.4499 30.4362 41.4063 29.8566 41.3178 29.2743C41.2935 29.1141 41.3088 28.9504 41.3624 28.7976C41.4161 28.6447 41.5064 28.5074 41.6255 28.3976L43.8595 26.3431C43.91 26.2933 43.9425 26.2282 43.9521 26.158C43.9616 26.0877 43.9476 26.0163 43.9123 25.9549L41.7232 22.1694C41.6519 22.0439 41.5093 21.9951 41.364 22.0373L38.4619 22.9537C38.3044 23.0037 38.1368 23.0133 37.9747 22.9817C37.8125 22.9501 37.6608 22.8783 37.5336 22.7728C36.6559 22.0424 35.6614 21.4653 34.5919 21.0655C34.437 21.0081 34.2989 20.913 34.19 20.7887C34.0812 20.6644 34.0051 20.515 33.9686 20.3539L33.2966 17.3698C33.2801 17.3043 33.2427 17.246 33.19 17.2038C33.1373 17.1616 33.0723 17.1378 33.0048 17.1361H28.6132C28.546 17.1374 28.4812 17.1611 28.4291 17.2034C28.3769 17.2458 28.3404 17.3043 28.3254 17.3698L27.6533 20.3552C27.6172 20.5162 27.5414 20.6657 27.4327 20.79C27.3241 20.9143 27.1862 21.0095 27.0314 21.0669C25.9619 21.4666 24.9673 22.0438 24.0896 22.7741C23.9623 22.8793 23.8106 22.9509 23.6485 22.9825C23.4864 23.0141 23.3189 23.0046 23.1614 22.955L20.2553 22.0373C20.118 21.9951 19.9701 22.0439 19.9054 22.1601L17.703 25.9668C17.6705 26.0293 17.6594 26.1008 17.6716 26.1703C17.6838 26.2397 17.7185 26.3032 17.7704 26.351L19.9978 28.3976C20.1173 28.5071 20.2078 28.6444 20.2615 28.7974C20.3152 28.9503 20.3303 29.1141 20.3055 29.2743C20.2183 29.8552 20.1734 30.4362 20.1734 31C20.1734 31.5638 20.217 32.1434 20.3055 32.7257C20.3298 32.8859 20.3145 33.0496 20.2608 33.2024C20.2072 33.3553 20.1169 33.4926 19.9978 33.6024L17.7638 35.6569C17.7133 35.7067 17.6808 35.7718 17.6712 35.842C17.6617 35.9123 17.6756 35.9837 17.7109 36.0451L19.9001 39.8306C19.9348 39.8914 19.9899 39.938 20.0556 39.9622C20.1213 39.9863 20.1934 39.9865 20.2592 39.9627L23.1614 39.0463C23.2578 39.0153 23.3585 38.9997 23.4598 39.0001Z" fill="black" stroke="#F1FAF7" stroke-width="0.6" mask="url(#path-2-inside-1_1233_8418)"/>
<path d="M30.6364 35.4796L30.6364 35.4793L32.6164 26.8996C32.6572 26.6864 32.614 26.4657 32.4957 26.2837C32.3769 26.1009 32.1918 25.9715 31.9794 25.9226C31.7671 25.8738 31.544 25.9094 31.3574 26.0219C31.1714 26.134 31.0361 26.3137 30.9797 26.5233L28.9997 35.103L30.6364 35.4796ZM30.6364 35.4796C30.5941 35.6646 30.4903 35.8298 30.342 35.9482M30.6364 35.4796L30.342 35.9482M29.4546 36.0486C29.5685 36.1033 29.6934 36.1317 29.8198 36.1315L29.4546 36.0486ZM29.4546 36.0486C29.3406 35.9938 29.2405 35.914 29.1617 35.8151M29.4546 36.0486L29.1617 35.8151M29.1617 35.8151C29.0828 35.7163 29.0273 35.6009 28.9993 35.4776M29.1617 35.8151L28.9993 35.4776M28.9993 35.4776C28.9713 35.3543 28.9714 35.2263 28.9997 35.1032L28.9993 35.4776ZM30.342 35.9482C30.1937 36.0666 30.0096 36.1312 29.8198 36.1315L30.342 35.9482ZM35.1005 34.8112L35.0995 34.8112C34.9292 34.812 34.7626 34.7609 34.622 34.6647C34.4814 34.5685 34.3734 34.4319 34.3123 34.2728C34.2513 34.1138 34.2401 33.9399 34.2803 33.7744C34.3205 33.6088 34.4101 33.4594 34.5372 33.3461L34.5377 33.3456L37.0213 31.1116L37.1453 31L37.0213 30.8885L34.5377 28.6545C34.4556 28.5806 34.3888 28.4913 34.3412 28.3916C34.2937 28.2919 34.2662 28.1839 34.2603 28.0736C34.2486 27.8508 34.3258 27.6325 34.475 27.4667C34.5488 27.3846 34.6381 27.3178 34.7378 27.2703C34.8375 27.2227 34.9455 27.1952 35.0558 27.1893C35.2786 27.1776 35.4969 27.2548 35.6627 27.404L38.9632 30.3744C38.9633 30.3745 38.9634 30.3746 38.9636 30.3747C39.0507 30.4538 39.1204 30.5503 39.1681 30.6579C39.2159 30.7656 39.2406 30.8822 39.2406 31C39.2406 31.1179 39.2159 31.2345 39.1681 31.3422C39.1204 31.4498 39.0507 31.5463 38.9636 31.6254C38.9634 31.6255 38.9633 31.6256 38.9632 31.6257L35.6627 34.5961C35.5084 34.7349 35.308 34.8115 35.1005 34.8112ZM26.518 34.8112L26.5176 34.8112C26.31 34.8115 26.1097 34.7349 25.9553 34.5961C25.9553 34.5961 25.9553 34.5961 25.9553 34.5961L22.6548 31.6257C22.6547 31.6256 22.6547 31.6256 22.6546 31.6255C22.5673 31.5464 22.4976 31.4499 22.4499 31.3422C22.4021 31.2345 22.3774 31.1179 22.3774 31C22.3774 30.8822 22.4021 30.7656 22.4499 30.6579C22.4976 30.5502 22.5673 30.4537 22.6546 30.3746C22.6547 30.3745 22.6547 30.3745 22.6548 30.3744L25.9534 27.4057C26.1202 27.2662 26.3346 27.1968 26.5516 27.2119C26.7694 27.227 26.9728 27.3263 27.1188 27.4886C27.2648 27.6509 27.342 27.8636 27.3342 28.0817C27.3263 28.2991 27.2346 28.505 27.0784 28.6562L24.5967 30.8885L24.4727 31L24.5967 31.1116L27.0803 33.3456L27.0804 33.3457C27.207 33.4594 27.2961 33.6088 27.3359 33.7742C27.3757 33.9396 27.3644 34.1131 27.3034 34.272C27.2425 34.4308 27.1348 34.5674 26.9945 34.6636C26.8543 34.7599 26.6881 34.8114 26.518 34.8112Z" fill="black" stroke="#F1FAF7" stroke-width="0.3"/>
</svg>
