<svg width="25" height="25" viewBox="0 0 25 25" fill="none" xmlns="http://www.w3.org/2000/svg">
<g opacity="0.5">
<mask id="mask0_1233_8599" style="mask-type:luminance" maskUnits="userSpaceOnUse" x="0" y="0" width="25" height="26">
<path d="M12.5 25.0001C19.4036 25.0001 25 19.4037 25 12.5001C25 5.59656 19.4036 0.00012207 12.5 0.00012207C5.59644 0.00012207 0 5.59656 0 12.5001C0 19.4037 5.59644 25.0001 12.5 25.0001Z" fill="white"/>
</mask>
<g mask="url(#mask0_1233_8599)">
<path d="M-6.28906 0.00012207H31.2859V25.0501H-6.28906V0.00012207Z" fill="#F89939"/>
</g>
<mask id="mask1_1233_8599" style="mask-type:luminance" maskUnits="userSpaceOnUse" x="0" y="0" width="25" height="26">
<path d="M12.5 25.0001C19.4036 25.0001 25 19.4037 25 12.5001C25 5.59656 19.4036 0.00012207 12.5 0.00012207C5.59644 0.00012207 0 5.59656 0 12.5001C0 19.4037 5.59644 25.0001 12.5 25.0001Z" fill="white"/>
</mask>
<g mask="url(#mask1_1233_8599)">
<path d="M-6.28906 8.34973H31.2859V16.6997H-6.28906V8.34973Z" fill="white"/>
</g>
<mask id="mask2_1233_8599" style="mask-type:luminance" maskUnits="userSpaceOnUse" x="0" y="0" width="25" height="26">
<path d="M12.5 25.0001C19.4036 25.0001 25 19.4037 25 12.5001C25 5.59656 19.4036 0.00012207 12.5 0.00012207C5.59644 0.00012207 0 5.59656 0 12.5001C0 19.4037 5.59644 25.0001 12.5 25.0001Z" fill="white"/>
</mask>
<g mask="url(#mask2_1233_8599)">
<path d="M-6.28906 16.7003H31.2859V25.0503H-6.28906V16.7003Z" fill="#1E8943"/>
</g>
<mask id="mask3_1233_8599" style="mask-type:luminance" maskUnits="userSpaceOnUse" x="0" y="0" width="25" height="26">
<path d="M12.5 25.0001C19.4036 25.0001 25 19.4037 25 12.5001C25 5.59656 19.4036 0.00012207 12.5 0.00012207C5.59644 0.00012207 0 5.59656 0 12.5001C0 19.4037 5.59644 25.0001 12.5 25.0001Z" fill="white"/>
</mask>
<g mask="url(#mask3_1233_8599)">
<path d="M12.5002 15.8647C14.3448 15.8647 15.8402 14.3693 15.8402 12.5247C15.8402 10.6801 14.3448 9.18469 12.5002 9.18469C10.6555 9.18469 9.16016 10.6801 9.16016 12.5247C9.16016 14.3693 10.6555 15.8647 12.5002 15.8647Z" fill="#2A2C7A"/>
</g>
<mask id="mask4_1233_8599" style="mask-type:luminance" maskUnits="userSpaceOnUse" x="0" y="0" width="25" height="26">
<path d="M12.5 25.0001C19.4036 25.0001 25 19.4037 25 12.5001C25 5.59656 19.4036 0.00012207 12.5 0.00012207C5.59644 0.00012207 0 5.59656 0 12.5001C0 19.4037 5.59644 25.0001 12.5 25.0001Z" fill="white"/>
</mask>
<g mask="url(#mask4_1233_8599)">
<path d="M14.7266 10.6345C14.6755 10.5744 14.6224 10.5159 14.5666 10.4601L13.3976 11.7708L12.9336 12.1354C12.9543 12.1584 12.9735 12.1829 12.9904 12.209L13.4625 11.8553L15.0307 11.0655C14.9912 10.997 14.9491 10.9303 14.9042 10.8655C14.8404 10.9118 14.7511 10.8994 14.7027 10.8365C14.6546 10.7737 14.6657 10.6843 14.7266 10.6345Z" fill="white"/>
<path d="M12.1378 9.77354C12.0591 9.78384 11.9872 9.72949 11.9747 9.65166C11.8177 9.68019 11.6649 9.72084 11.5177 9.77341C11.5462 9.84726 11.5111 9.93069 11.4376 9.96106C11.3642 9.99149 11.2803 9.95741 11.2483 9.88499C11.1768 9.91891 11.1072 9.95609 11.0391 9.99551L12.0024 11.4637L12.2343 12.006C12.2618 11.992 12.2904 11.9798 12.3202 11.9702L12.1008 11.4229L11.7437 9.70324L12.2943 11.3711L12.378 11.9546C12.4079 11.9482 12.4388 11.9447 12.4702 11.9431L12.3999 11.3571L12.5001 9.60364C12.4204 9.60364 12.3417 9.60774 12.2636 9.61399C12.2716 9.69216 12.2162 9.76311 12.1378 9.77354Z" fill="white"/>
<path d="M14.1928 10.3232C14.1299 10.2749 14.1175 10.1856 14.1638 10.1218C14.099 10.0769 14.0322 10.0348 13.9638 9.99524L13.174 11.5635L12.8203 12.0356C12.8464 12.0526 12.8709 12.0717 12.8939 12.0924L13.2585 11.6284L14.5692 10.4594C14.5135 10.4036 14.4549 10.3505 14.3948 10.2994C14.345 10.3603 14.2557 10.3714 14.1928 10.3232Z" fill="white"/>
<path d="M13.2585 13.4232L12.8939 12.9591C12.8709 12.9799 12.8464 12.999 12.8203 13.0159L13.174 13.488L13.9638 15.0563C14.0322 15.0167 14.099 14.9746 14.1638 14.9297C14.1175 14.8659 14.1299 14.7766 14.1928 14.7282C14.2557 14.6801 14.345 14.6912 14.3948 14.7521C14.4549 14.7009 14.5134 14.6479 14.5692 14.5921L13.2585 13.4232Z" fill="white"/>
<path d="M13.6684 12.6266L13.0824 12.5563C13.0809 12.5878 13.0773 12.6186 13.071 12.6486L13.6545 12.7322L15.3223 13.2829L13.6027 12.9257L13.0554 12.7064C13.0458 12.7362 13.0336 12.7648 13.0195 12.7922L13.5619 13.0241L15.0301 13.9875C15.0695 13.9193 15.1066 13.8498 15.1406 13.7783C15.0682 13.7462 15.0341 13.6623 15.0645 13.589C15.0949 13.5155 15.1783 13.4803 15.2522 13.5089C15.3047 13.3617 15.3454 13.2089 15.3739 13.0519C15.2961 13.0393 15.2417 12.9674 15.252 12.8888C15.2624 12.8104 15.3334 12.755 15.4115 12.763C15.4178 12.6849 15.4219 12.6062 15.4219 12.5265L13.6684 12.6266Z" fill="white"/>
<path d="M15.252 12.1643C15.2417 12.0856 15.296 12.0137 15.3738 12.0012C15.3453 11.8442 15.3046 11.6914 15.2521 11.5442C15.1783 11.5727 15.0949 11.5376 15.0644 11.4641C15.034 11.3907 15.0681 11.3068 15.1406 11.2748C15.1066 11.2033 15.0694 11.1337 15.03 11.0656L13.5619 12.0289L13.0195 12.2608C13.0336 12.2883 13.0458 12.3169 13.0554 12.3467L13.6027 12.1273L15.3223 11.7702L13.6545 12.3208L13.071 12.4045C13.0773 12.4344 13.0809 12.4653 13.0824 12.4967L13.6684 12.4264L15.4219 12.5266C15.4219 12.4469 15.4178 12.3682 15.4115 12.2901C15.3333 12.2981 15.2624 12.2427 15.252 12.1643Z" fill="white"/>
<path d="M13.4625 13.1975L12.9904 12.8439C12.9734 12.87 12.9543 12.8944 12.9336 12.9174L13.3976 13.282L14.5666 14.5928C14.6224 14.537 14.6754 14.4784 14.7266 14.4183C14.6657 14.3685 14.6546 14.2792 14.7027 14.2164C14.7511 14.1534 14.8404 14.141 14.9042 14.1873C14.9491 14.1225 14.9912 14.0558 15.0308 13.9873L13.4625 13.1975Z" fill="white"/>
<path d="M12.5298 11.9431C12.5613 11.9447 12.5921 11.9482 12.6221 11.9546L12.7057 11.3711L13.2564 9.70321L12.8993 11.4228L12.6799 11.9701C12.7097 11.9798 12.7383 11.9919 12.7658 12.006L12.9976 11.4636L13.961 9.99549C13.8928 9.95606 13.8233 9.91894 13.7518 9.88499C13.7197 9.95741 13.6358 9.99149 13.5625 9.96106C13.489 9.93069 13.4538 9.84726 13.4824 9.77341C13.3352 9.72084 13.1824 9.68019 13.0254 9.65166C13.0129 9.72949 12.941 9.78381 12.8623 9.77354C12.7839 9.76314 12.7285 9.69219 12.7365 9.61399C12.6584 9.60774 12.5797 9.60364 12.5 9.60364L12.6002 11.3571L12.5298 11.9431Z" fill="white"/>
<path d="M11.7443 11.6284L12.109 12.0925C12.1319 12.0717 12.1564 12.0526 12.1825 12.0356L11.8289 11.5635L11.039 9.99524C10.9706 10.0348 10.9038 10.0769 10.839 10.1218C10.8853 10.1856 10.8729 10.2749 10.81 10.3233C10.7472 10.3715 10.6578 10.3604 10.608 10.2994C10.5479 10.3506 10.4894 10.4036 10.4336 10.4594L11.7443 11.6284Z" fill="white"/>
<path d="M11.537 11.8553L12.0091 12.209C12.0261 12.1829 12.0452 12.1584 12.066 12.1354L11.6019 11.7708L10.4329 10.4601C10.3771 10.5159 10.324 10.5744 10.2729 10.6345C10.3339 10.6843 10.345 10.7737 10.2968 10.8365C10.2484 10.8994 10.1591 10.9118 10.0953 10.8655C10.0505 10.9303 10.0084 10.9971 9.96875 11.0655L11.537 11.8553Z" fill="white"/>
<path d="M12.4702 13.1089C12.4388 13.1073 12.4079 13.1038 12.378 13.0974L12.2943 13.6809L11.7437 15.3488L12.1008 13.6292L12.3202 13.0819C12.2904 13.0722 12.2618 13.0601 12.2343 13.046L12.0024 13.5884L11.0391 15.0565C11.1072 15.0959 11.1768 15.1331 11.2483 15.1671C11.2803 15.0946 11.3642 15.0605 11.4376 15.0909C11.5111 15.1214 11.5462 15.2048 11.5177 15.2786C11.6649 15.3312 11.8177 15.3718 11.9747 15.4003C11.9872 15.3225 12.0591 15.2682 12.1378 15.2785C12.2162 15.2889 12.2716 15.3598 12.2636 15.438C12.3417 15.4443 12.4204 15.4484 12.5001 15.4484L12.3999 13.6949L12.4702 13.1089Z" fill="white"/>
<path d="M11.039 15.0563L11.8289 13.488L12.1825 13.0159C12.1564 12.999 12.132 12.9799 12.109 12.9591L11.7443 13.4231L10.4336 14.5921C10.4894 14.6479 10.5479 14.701 10.608 14.7521C10.6578 14.6912 10.7472 14.6801 10.81 14.7282C10.8729 14.7766 10.8853 14.8659 10.839 14.9297C10.9038 14.9746 10.9706 15.0167 11.039 15.0563Z" fill="white"/>
<path d="M12.8623 15.2785C12.941 15.2682 13.0128 15.3225 13.0254 15.4003C13.1824 15.3718 13.3352 15.3311 13.4824 15.2786C13.4539 15.2048 13.489 15.1213 13.5625 15.0909C13.6359 15.0605 13.7197 15.0946 13.7518 15.167C13.8233 15.1331 13.8929 15.0959 13.961 15.0565L12.9977 13.5884L12.7658 13.046C12.7383 13.0601 12.7097 13.0722 12.6799 13.0819L12.8993 13.6292L13.2564 15.3488L12.7058 13.6809L12.6221 13.0974C12.5922 13.1038 12.5613 13.1073 12.5299 13.1089L12.6002 13.6949L12.5 15.4484C12.5797 15.4484 12.6584 15.4443 12.7365 15.438C12.7285 15.3598 12.7839 15.2889 12.8623 15.2785Z" fill="white"/>
<path d="M9.85947 13.7773C9.89342 13.8488 9.93055 13.9184 9.96997 13.9865L11.4381 13.0232L11.9805 12.7913C11.9664 12.7638 11.9543 12.7353 11.9446 12.7055L11.3973 12.9248L9.6777 13.2819L11.3455 12.7313L11.9291 12.6476C11.9227 12.6177 11.9192 12.5868 11.9176 12.5554L11.3315 12.6257L9.57812 12.5255C9.57812 12.6052 9.58223 12.6839 9.58848 12.762C9.66665 12.754 9.73762 12.8094 9.74802 12.8878C9.75832 12.9665 9.70397 13.0384 9.62615 13.0509C9.65467 13.2079 9.69532 13.3607 9.7479 13.5079C9.82175 13.4794 9.90517 13.5145 9.93555 13.588C9.96597 13.6614 9.93187 13.7453 9.85947 13.7773Z" fill="white"/>
<path d="M12.0659 12.9174C12.0451 12.8944 12.026 12.87 12.0091 12.8439L11.537 13.1975L9.96875 13.9874C10.0083 14.0558 10.0504 14.1226 10.0953 14.1873C10.1591 14.1411 10.2484 14.1535 10.2967 14.2164C10.3449 14.2792 10.3338 14.3685 10.2729 14.4183C10.324 14.4785 10.3771 14.537 10.4328 14.5928L11.6019 13.282L12.0659 12.9174Z" fill="white"/>
<path d="M11.9176 12.4967C11.9192 12.4653 11.9227 12.4344 11.9291 12.4045L11.3456 12.3208L9.67773 11.7702L11.3974 12.1273L11.9447 12.3467C11.9543 12.3169 11.9664 12.2883 11.9805 12.2608L11.4382 12.0289L9.97 11.0656C9.93057 11.1337 9.89342 11.2033 9.85947 11.2748C9.9319 11.3068 9.966 11.3907 9.93555 11.4641C9.90517 11.5376 9.82175 11.5727 9.7479 11.5442C9.69533 11.6914 9.65467 11.8442 9.62615 12.0012C9.70397 12.0137 9.7583 12.0856 9.74802 12.1643C9.73762 12.2427 9.66668 12.2981 9.58848 12.2901C9.58223 12.3682 9.57812 12.4469 9.57812 12.5266L11.3315 12.4265L11.9176 12.4967Z" fill="white"/>
</g>
</g>
</svg>
