<svg width="31" height="36" viewBox="0 0 31 36" fill="none" xmlns="http://www.w3.org/2000/svg">
<path d="M2.09139 15.1585C10.2579 10.1894 15.7034 6.91347 18.4282 5.3307C26.2078 0.811589 27.8243 0.0265715 28.8779 0.000373376C29.1097 -0.00505144 29.6278 0.0751564 29.9635 0.455511C30.2469 0.776674 30.3248 1.21052 30.3622 1.51502C30.3995 1.81952 30.4459 2.51317 30.409 3.05517C29.9874 9.2415 28.1632 24.2541 27.2352 31.1829C26.8425 34.1147 26.0693 35.0977 25.3208 35.1939C23.694 35.403 22.4587 33.6925 20.883 32.25C18.4175 29.9928 17.0246 28.5877 14.6314 26.3851C11.8656 23.8397 13.6585 22.4407 15.2348 20.1543C15.6473 19.5559 22.8149 10.4507 22.9537 9.62474C22.971 9.52144 22.9871 9.13637 22.8233 8.93305C22.6595 8.72972 22.4178 8.79925 22.2433 8.85455C21.996 8.93293 18.0573 12.5688 10.4271 19.7621C9.30912 20.8342 8.29647 21.3566 7.38917 21.3292C6.38895 21.2991 4.46493 20.5394 3.03461 19.8901C1.28027 19.0937 -0.114043 18.6726 0.00737014 17.32C0.0706097 16.6155 0.765283 15.895 2.09139 15.1585Z" fill="white"/>
</svg>
