<svg width="36" height="36" viewBox="0 0 36 36" fill="none" xmlns="http://www.w3.org/2000/svg">
<g clip-path="url(#clip0_1233_8585)">
<path d="M21.1303 17.6063C21.1303 19.4674 19.6216 20.9761 17.7605 20.9761C15.8993 20.9761 14.3906 19.4674 14.3906 17.6063C14.3906 15.7451 15.8993 14.2365 17.7605 14.2365C19.6216 14.2365 21.1303 15.7451 21.1303 17.6063Z" fill="white"/>
<path d="M25.6455 11.6441C25.4835 11.2051 25.2251 10.8078 24.8893 10.4817C24.5631 10.1459 24.1661 9.88746 23.7269 9.72547C23.3706 9.58712 22.8355 9.42245 21.8499 9.37758C20.7836 9.32896 20.464 9.31848 17.7647 9.31848C15.0651 9.31848 14.7454 9.32869 13.6794 9.37731C12.6938 9.42245 12.1584 9.58712 11.8025 9.72547C11.3632 9.88746 10.9659 10.1459 10.64 10.4817C10.3042 10.8078 10.0458 11.2049 9.88355 11.6441C9.7452 12.0003 9.58053 12.5357 9.53566 13.5214C9.48704 14.5873 9.47656 14.907 9.47656 17.6066C9.47656 20.3059 9.48704 20.6256 9.53566 21.6918C9.58053 22.6774 9.7452 23.2126 9.88355 23.5688C10.0458 24.008 10.304 24.4051 10.6398 24.7312C10.9659 25.067 11.363 25.3254 11.8022 25.4874C12.1584 25.626 12.6938 25.7907 13.6794 25.8356C14.7454 25.8842 15.0648 25.8944 17.7644 25.8944C20.4642 25.8944 20.7839 25.8842 21.8496 25.8356C22.8352 25.7907 23.3706 25.626 23.7269 25.4874C24.6085 25.1473 25.3054 24.4505 25.6455 23.5688C25.7838 23.2126 25.9485 22.6774 25.9937 21.6918C26.0423 20.6256 26.0525 20.3059 26.0525 17.6066C26.0525 14.907 26.0423 14.5873 25.9937 13.5214C25.9488 12.5357 25.7841 12.0003 25.6455 11.6441ZM17.7647 22.7975C14.8975 22.7975 12.5732 20.4735 12.5732 17.6063C12.5732 14.7391 14.8975 12.4151 17.7647 12.4151C20.6316 12.4151 22.9559 14.7391 22.9559 17.6063C22.9559 20.4735 20.6316 22.7975 17.7647 22.7975ZM23.1611 13.423C22.4911 13.423 21.9479 12.8798 21.9479 12.2099C21.9479 11.5399 22.4911 10.9967 23.1611 10.9967C23.8311 10.9967 24.3743 11.5399 24.3743 12.2099C24.374 12.8798 23.8311 13.423 23.1611 13.423Z" fill="white"/>
<path d="M17.7619 0.00012207C8.04004 0.00012207 0.15625 7.88392 0.15625 17.6057C0.15625 27.3276 8.04004 35.2114 17.7619 35.2114C27.4837 35.2114 35.3675 27.3276 35.3675 17.6057C35.3675 7.88392 27.4837 0.00012207 17.7619 0.00012207ZM27.8104 21.7737C27.7615 22.8499 27.5904 23.5846 27.3405 24.2277C26.8153 25.5857 25.7418 26.6592 24.3839 27.1844C23.741 27.4342 23.006 27.6051 21.9301 27.6542C20.852 27.7034 20.5077 27.7152 17.7621 27.7152C15.0164 27.7152 14.6722 27.7034 13.5939 27.6542C12.518 27.6051 11.783 27.4342 11.1402 27.1844C10.4653 26.9305 9.85444 26.5327 9.3494 26.0182C8.83522 25.5134 8.43736 24.9023 8.1835 24.2277C7.93366 23.5849 7.76254 22.8499 7.71364 21.774C7.66395 20.6957 7.6524 20.3513 7.6524 17.6057C7.6524 14.8602 7.66395 14.5158 7.71338 13.4378C7.76227 12.3616 7.93312 11.6269 8.18296 10.9838C8.43683 10.3092 8.83495 9.69804 9.3494 9.19327C9.85417 8.67882 10.4653 8.28097 11.1399 8.0271C11.783 7.77727 12.5177 7.60641 13.5939 7.55725C14.672 7.50809 15.0164 7.49627 17.7619 7.49627C20.5074 7.49627 20.8518 7.50809 21.9298 7.55752C23.006 7.60641 23.7407 7.77727 24.3839 8.02683C25.0584 8.2807 25.6696 8.67882 26.1746 9.19327C26.6888 9.69831 27.0869 10.3092 27.3405 10.9838C27.5906 11.6269 27.7615 12.3616 27.8106 13.4378C27.8598 14.5158 27.8714 14.8602 27.8714 17.6057C27.8714 20.3513 27.8598 20.6957 27.8104 21.7737Z" fill="white"/>
</g>
<defs>
<clipPath id="clip0_1233_8585">
<rect width="35.2113" height="35.2113" fill="white" transform="translate(0.15625 0.00012207)"/>
</clipPath>
</defs>
</svg>
