<svg width="36" height="36" viewBox="0 0 36 36" fill="none" xmlns="http://www.w3.org/2000/svg">
<g clip-path="url(#clip0_1233_8583)">
<path d="M35.5472 17.6057C35.5472 7.88139 27.6659 0.00012207 17.9416 0.00012207C8.21721 0.00012207 0.335938 7.88139 0.335938 17.6057C0.335938 27.3301 8.21721 35.2114 17.9416 35.2114C18.0447 35.2114 18.1479 35.2114 18.251 35.2045V21.5051H14.4686V17.0968H18.251V13.8508C18.251 10.089 20.548 8.03957 23.9041 8.03957C25.5134 8.03957 26.8957 8.15648 27.2946 8.2115V12.1453H24.9838C23.1614 12.1453 22.8037 13.0118 22.8037 14.2841V17.09H27.1708L26.6 21.4982H22.8037V34.5305C30.1623 32.4192 35.5472 25.6452 35.5472 17.6057Z" fill="white"/>
</g>
<defs>
<clipPath id="clip0_1233_8583">
<rect width="35.2113" height="35.2113" fill="white" transform="translate(0.335938 0.00012207)"/>
</clipPath>
</defs>
</svg>
