<svg width="51" height="36" viewBox="0 0 51 36" fill="none" xmlns="http://www.w3.org/2000/svg">
<path d="M49.464 5.34469C48.8302 3.14399 47.2457 1.57205 45.0274 0.943281C41.2245 0.000122632 25.0625 0.00012207 25.0625 0.00012207C25.0625 0.00012207 9.2175 0.000122632 5.09778 0.943281C2.87947 1.57205 1.29494 3.14399 0.661137 5.34469C0.0273341 9.43171 0.0273438 17.6057 0.0273438 17.6057C0.0273438 17.6057 0.0273534 25.7798 0.978057 29.8668C1.61186 32.0675 3.19635 33.6394 5.41466 34.2682C9.21747 35.2114 25.3794 35.2114 25.3794 35.2114C25.3794 35.2114 41.2245 35.2114 45.3442 34.2682C47.5625 33.6394 49.1471 32.0675 49.7809 29.8668C50.7316 25.7798 50.7315 17.6057 50.7315 17.6057C50.7315 17.6057 50.7316 9.43171 49.464 5.34469ZM20.309 25.151V10.0605L33.6189 17.6057L20.309 25.151Z" fill="white"/>
</svg>
