<svg width="36" height="36" viewBox="0 0 36 36" fill="none" xmlns="http://www.w3.org/2000/svg">
<g clip-path="url(#clip0_1233_8591)">
<path d="M18.3949 0.00012207C8.67304 0.00012207 0.789246 7.88392 0.789246 17.6057C0.789246 27.3276 8.67304 35.2114 18.3949 35.2114C28.1167 35.2114 36.0005 27.3276 36.0005 17.6057C36.0005 7.88392 28.1167 0.00012207 18.3949 0.00012207ZM13.2789 26.6149H8.99111V13.715H13.2789V26.6149ZM11.1351 11.9536H11.1072C9.66835 11.9536 8.73778 10.9631 8.73778 9.72518C8.73778 8.45934 9.69683 7.49627 11.1636 7.49627C12.6304 7.49627 13.533 8.45934 13.561 9.72518C13.561 10.9631 12.6304 11.9536 11.1351 11.9536ZM28.7397 26.6149H24.4524V19.7138C24.4524 17.9794 23.8316 16.7966 22.2802 16.7966C21.0958 16.7966 20.3903 17.5945 20.0803 18.3647C19.967 18.6403 19.9393 19.0255 19.9393 19.411V26.6149H15.6518C15.6518 26.6149 15.7079 14.9253 15.6518 13.715H19.9393V15.5415C20.5091 14.6625 21.5286 13.4123 23.8034 13.4123C26.6244 13.4123 28.7397 15.2559 28.7397 19.2181V26.6149Z" fill="white"/>
</g>
<defs>
<clipPath id="clip0_1233_8591">
<rect width="35.2113" height="35.2113" fill="white" transform="translate(0.789246 0.00012207)"/>
</clipPath>
</defs>
</svg>
