<svg width="37" height="36" viewBox="0 0 37 36" fill="none" xmlns="http://www.w3.org/2000/svg">
<g clip-path="url(#clip0_1233_8589)">
<path d="M18.5783 0.00012207C8.85645 0.00012207 0.972656 7.88392 0.972656 17.6057C0.972656 27.3276 8.85645 35.2114 18.5783 35.2114C28.3001 35.2114 36.1839 27.3276 36.1839 17.6057C36.1839 7.88392 28.3001 0.00012207 18.5783 0.00012207ZM26.6168 13.7271C26.6246 13.9004 26.6284 14.0745 26.6284 14.2494C26.6284 19.5891 22.5638 25.7466 15.1308 25.7469H15.1311H15.1308C12.8487 25.7469 10.7251 25.078 8.93677 23.9317C9.25296 23.969 9.57479 23.9876 9.90066 23.9876C11.794 23.9876 13.5364 23.3418 14.9197 22.2578C13.1507 22.225 11.6592 21.0567 11.1445 19.451C11.3908 19.4983 11.6441 19.5241 11.9039 19.5241C12.2728 19.5241 12.63 19.4744 12.9696 19.3817C11.1206 19.0115 9.72765 17.3774 9.72765 15.4206C9.72765 15.4024 9.72765 15.386 9.72819 15.369C10.2727 15.6718 10.8954 15.8539 11.5584 15.8744C10.4734 15.1504 9.76016 13.9127 9.76016 12.5107C9.76016 11.7703 9.96029 11.0767 10.3074 10.4795C12.3002 12.9247 15.2783 14.5328 18.6368 14.7017C18.5675 14.4057 18.5318 14.0973 18.5318 13.7803C18.5318 11.5495 20.3416 9.73968 22.5732 9.73968C23.7356 9.73968 24.7855 10.231 25.5229 11.0165C26.4435 10.8349 27.308 10.4986 28.089 10.0357C27.7867 10.9789 27.1463 11.7703 26.3119 12.2708C27.1294 12.173 27.9084 11.9562 28.6324 11.6344C28.0916 12.4449 27.4058 13.1568 26.6168 13.7271Z" fill="white"/>
</g>
<defs>
<clipPath id="clip0_1233_8589">
<rect width="35.2113" height="35.2113" fill="white" transform="translate(0.972656 0.00012207)"/>
</clipPath>
</defs>
</svg>
